<svg viewBox="0 0 303 256" xmlns="http://www.w3.org/2000/svg" fill-rule="evenodd" clip-rule="evenodd" stroke-linecap="round" stroke-linejoin="round" stroke-miterlimit="1.5"><path d="M141.368 244.612h19.566" fill="none" stroke="#a1a1a1"/><path d="M117 364l9 17" fill="none" stroke="#a1a1a1" stroke-width=".97" transform="matrix(1.11111 0 0 .94118 87.934 -223.976)"/><path d="M95 381l10-16" fill="none" stroke="#a1a1a1" stroke-width=".95" transform="matrix(1.1 0 0 1 -30.066 -246.388)"/><path d="M61.151 244.612h19.566" fill="none" stroke="#a1a1a1"/><path d="M117 364l9 17" fill="none" stroke="#a1a1a1" stroke-width=".97" transform="matrix(1.11111 0 0 .94118 -31.066 -155.976)"/><path d="M95 381l10-16" fill="none" stroke="#a1a1a1" stroke-width=".95" transform="matrix(1.1 0 0 1 -70.066 -178.388)"/><circle cx="83.987" cy="381.254" r="6.434" fill="#fff" stroke="#a1a1a1" stroke-width=".63" transform="translate(-122.653 -360.592) scale(1.58797)"/><text x="89.863" y="390.134" font-family="'Times-Italic','Times'" font-style="italic" font-size="12" transform="translate(-81.894 -141.25)">1</text><circle cx="83.987" cy="381.254" r="6.434" fill="#fff" stroke="#a1a1a1" stroke-width=".63" transform="translate(-102.219 -395.026) scale(1.58797)"/><text x="89.863" y="390.134" font-family="'Times-Italic','Times'" font-style="italic" font-size="12" transform="translate(-61.46 -175.685)">3</text><circle cx="83.987" cy="381.254" r="6.434" fill="#fff" stroke="#a1a1a1" stroke-width=".63" transform="translate(-82.653 -360.592) scale(1.58797)"/><text x="89.863" y="390.134" font-family="'Times-Italic','Times'" font-style="italic" font-size="12" transform="translate(-41.894 -141.522)">2</text><path d="M20.934 244.612H40.5" fill="none" stroke="#a1a1a1"/><g><path d="M95 381l10-16" fill="none" stroke="#a1a1a1" stroke-width=".95" transform="matrix(1.1 0 0 1 -90.566 -146.388)"/></g><g><path d="M117 364l9 17" fill="none" stroke="#a1a1a1" stroke-width=".97" transform="matrix(1.11111 0 0 .94118 -92.066 -123.976)"/></g><g><circle cx="83.987" cy="381.254" r="6.434" fill="#fff" stroke="#a1a1a1" stroke-width=".63" transform="translate(-42.219 -360.592) scale(1.58797)"/><text x="89.863" y="390.134" font-family="'Times-Italic','Times'" font-style="italic" font-size="12" transform="translate(-1.46 -141.25)">4</text><circle cx="83.987" cy="381.254" r="6.434" fill="#fff" stroke="#a1a1a1" stroke-width=".63" transform="translate(-21.785 -395.026) scale(1.58797)"/><text x="89.863" y="390.134" font-family="'Times-Italic','Times'" font-style="italic" font-size="12" transform="translate(18.974 -175.685)">6</text><circle cx="83.987" cy="381.254" r="6.434" fill="#fff" stroke="#a1a1a1" stroke-width=".63" transform="translate(-2.219 -360.592) scale(1.58797)"/><text x="89.863" y="390.134" font-family="'Times-Italic','Times'" font-style="italic" font-size="12" transform="translate(38.54 -141.522)">5</text><path d="M101.368 244.612h19.566" fill="none" stroke="#a1a1a1"/><g><path d="M95 381l10-16" fill="none" stroke="#a1a1a1" stroke-width=".95" transform="matrix(1.1 0 0 1 -10.132 -146.388)"/></g><g><path d="M117 364l9 17" fill="none" stroke="#a1a1a1" stroke-width=".97" transform="matrix(1.11111 0 0 .94118 -11.632 -123.976)"/></g></g><g><circle cx="83.987" cy="381.254" r="6.434" fill="#fff" stroke="#a1a1a1" stroke-width=".63" transform="translate(-82.219 -426.026) scale(1.58797)"/><text x="89.863" y="390.134" font-family="'Times-Italic','Times'" font-style="italic" font-size="12" transform="translate(-41.46 -206.685)">7</text><circle cx="83.987" cy="381.254" r="6.434" fill="#fff" stroke="#a1a1a1" stroke-width=".63" transform="translate(-61.785 -460.46) scale(1.58797)"/><text x="89.863" y="390.134" font-family="'Times-Italic','Times'" font-style="italic" font-size="12" transform="translate(-21.026 -241.119)">9</text><circle cx="83.987" cy="381.254" r="6.434" fill="#fff" stroke="#a1a1a1" stroke-width=".63" transform="translate(-42.219 -426.026) scale(1.58797)"/><text x="89.863" y="390.134" font-family="'Times-Italic','Times'" font-style="italic" font-size="12" transform="translate(-1.46 -206.956)">8</text><path d="M61.368 179.178h19.566" fill="none" stroke="#a1a1a1"/><g><path d="M95 381l10-16" fill="none" stroke="#a1a1a1" stroke-width=".95" transform="matrix(1.1 0 0 1 -50.132 -211.822)"/></g><g><path d="M117 364l9 17" fill="none" stroke="#a1a1a1" stroke-width=".97" transform="matrix(1.11111 0 0 .94118 -51.632 -189.41)"/></g></g><g><path d="M221.585 244.329h19.566" fill="none" stroke="#a1a1a1"/><path d="M117 364l9 17" fill="none" stroke="#a1a1a1" stroke-width=".97" transform="matrix(1.11111 0 0 .94118 129.368 -156.26)"/><path d="M95 381l10-16" fill="none" stroke="#a1a1a1" stroke-width=".95" transform="matrix(1.1 0 0 1 90.368 -178.671)"/><circle cx="83.987" cy="381.254" r="6.434" fill="#fff" stroke="#a1a1a1" stroke-width=".63" transform="translate(37.781 -360.875) scale(1.58797)"/><text x="86.863" y="390.134" font-family="'Times-Italic','Times'" font-style="italic" font-size="12" transform="translate(78.54 -141.534)">10</text><circle cx="83.987" cy="381.254" r="6.434" fill="#fff" stroke="#a1a1a1" stroke-width=".63" transform="translate(58.215 -395.309) scale(1.58797)"/><text x="86.863" y="390.134" font-family="'Times-Italic','Times'" font-style="italic" font-size="12" transform="translate(98.974 -175.968)">12</text><circle cx="83.987" cy="381.254" r="6.434" fill="#fff" stroke="#a1a1a1" stroke-width=".63" transform="translate(77.781 -360.875) scale(1.58797)"/><text x="86.863" y="390.134" font-family="'Times-Italic','Times'" font-style="italic" font-size="12" transform="translate(118.54 -141.805)">11</text><path d="M181.368 244.329h19.566" fill="none" stroke="#a1a1a1"/><g><path d="M95 381l10-16" fill="none" stroke="#a1a1a1" stroke-width=".95" transform="matrix(1.1 0 0 1 69.868 -146.671)"/></g><g><path d="M117 364l9 17" fill="none" stroke="#a1a1a1" stroke-width=".97" transform="matrix(1.11111 0 0 .94118 68.368 -124.26)"/></g><g><circle cx="83.987" cy="381.254" r="6.434" fill="#fff" stroke="#a1a1a1" stroke-width=".63" transform="translate(118.215 -360.875) scale(1.58797)"/><text x="86.863" y="390.134" font-family="'Times-Italic','Times'" font-style="italic" font-size="12" transform="translate(158.974 -141.534)">13</text><circle cx="83.987" cy="381.254" r="6.434" fill="#fff" stroke="#a1a1a1" stroke-width=".63" transform="translate(138.65 -395.309) scale(1.58797)"/><text x="86.863" y="390.134" font-family="'Times-Italic','Times'" font-style="italic" font-size="12" transform="translate(179.408 -175.968)">15</text><circle cx="83.987" cy="381.254" r="6.434" fill="#fff" stroke="#a1a1a1" stroke-width=".63" transform="translate(158.215 -360.875) scale(1.58797)"/><text x="86.863" y="390.134" font-family="'Times-Italic','Times'" font-style="italic" font-size="12" transform="translate(198.974 -141.805)">14</text><path d="M261.802 244.329h19.566" fill="none" stroke="#a1a1a1"/><g><path d="M95 381l10-16" fill="none" stroke="#a1a1a1" stroke-width=".95" transform="matrix(1.1 0 0 1 150.302 -146.671)"/></g><g><path d="M117 364l9 17" fill="none" stroke="#a1a1a1" stroke-width=".97" transform="matrix(1.11111 0 0 .94118 148.802 -124.26)"/></g></g><g><circle cx="83.987" cy="381.254" r="6.434" fill="#fff" stroke="#a1a1a1" stroke-width=".63" transform="translate(78.215 -426.309) scale(1.58797)"/><text x="86.863" y="390.134" font-family="'Times-Italic','Times'" font-style="italic" font-size="12" transform="translate(118.974 -206.968)">16</text><circle cx="83.987" cy="381.254" r="6.434" fill="#fff" stroke="#a1a1a1" stroke-width=".63" transform="translate(98.65 -460.743) scale(1.58797)"/><text x="86.863" y="390.134" font-family="'Times-Italic','Times'" font-style="italic" font-size="12" transform="translate(139.408 -241.402)">18</text><circle cx="83.987" cy="381.254" r="6.434" fill="#fff" stroke="#a1a1a1" stroke-width=".63" transform="translate(118.215 -426.309) scale(1.58797)"/><text x="86.863" y="390.134" font-family="'Times-Italic','Times'" font-style="italic" font-size="12" transform="translate(158.974 -207.24)">17</text><path d="M221.802 178.895h19.566" fill="none" stroke="#a1a1a1"/><g><path d="M95 381l10-16" fill="none" stroke="#a1a1a1" stroke-width=".95" transform="matrix(1.1 0 0 1 110.302 -212.105)"/></g><g><path d="M117 364l9 17" fill="none" stroke="#a1a1a1" stroke-width=".97" transform="matrix(1.11111 0 0 .94118 108.802 -189.693)"/></g></g></g><g><path d="M142.717 110.368h19.566" fill="none" stroke="#a1a1a1"/><path d="M117 364l9 17" fill="none" stroke="#a1a1a1" stroke-width=".97" transform="matrix(1.11111 0 0 .94118 50.5 -290.22)"/><path d="M95 381l10-16" fill="none" stroke="#a1a1a1" stroke-width=".95" transform="matrix(1.1 0 0 1 11.5 -312.632)"/><circle cx="83.987" cy="381.254" r="6.434" fill="#fff" stroke="#a1a1a1" stroke-width=".63" transform="translate(-41.087 -494.836) scale(1.58797)"/><text x="86.863" y="390.134" font-family="'Times-Italic','Times'" font-style="italic" font-size="12" transform="translate(-.328 -275.495)">19</text><circle cx="83.987" cy="381.254" r="6.434" fill="#fff" stroke="#a1a1a1" stroke-width=".63" transform="translate(-20.653 -529.27) scale(1.58797)"/><text x="86.863" y="390.134" font-family="'Times-Italic','Times'" font-style="italic" font-size="12" transform="translate(20.106 -309.929)">21</text><circle cx="83.987" cy="381.254" r="6.434" fill="#fff" stroke="#a1a1a1" stroke-width=".63" transform="translate(-1.087 -494.836) scale(1.58797)"/><text x="86.863" y="390.134" font-family="'Times-Italic','Times'" font-style="italic" font-size="12" transform="translate(39.672 -275.766)">20</text><path d="M102.5 110.368h19.566" fill="none" stroke="#a1a1a1"/><g><path d="M95 381l10-16" fill="none" stroke="#a1a1a1" stroke-width=".95" transform="matrix(1.1 0 0 1 -9 -280.632)"/></g><g><path d="M117 364l9 17" fill="none" stroke="#a1a1a1" stroke-width=".97" transform="matrix(1.11111 0 0 .94118 -10.5 -258.22)"/></g><g><circle cx="83.987" cy="381.254" r="6.434" fill="#fff" stroke="#a1a1a1" stroke-width=".63" transform="translate(39.347 -494.836) scale(1.58797)"/><text x="86.863" y="390.134" font-family="'Times-Italic','Times'" font-style="italic" font-size="12" transform="translate(80.106 -275.495)">22</text><circle cx="83.987" cy="381.254" r="6.434" fill="#fff" stroke="#a1a1a1" stroke-width=".63" transform="translate(59.781 -529.27) scale(1.58797)"/><text x="86.863" y="390.134" font-family="'Times-Italic','Times'" font-style="italic" font-size="12" transform="translate(100.54 -309.929)">24</text><circle cx="83.987" cy="381.254" r="6.434" fill="#fff" stroke="#a1a1a1" stroke-width=".63" transform="translate(79.347 -494.836) scale(1.58797)"/><text x="86.863" y="390.134" font-family="'Times-Italic','Times'" font-style="italic" font-size="12" transform="translate(120.106 -275.766)">23</text><path d="M182.934 110.368H202.5" fill="none" stroke="#a1a1a1"/><g><path d="M95 381l10-16" fill="none" stroke="#a1a1a1" stroke-width=".95" transform="matrix(1.1 0 0 1 71.434 -280.632)"/></g><g><path d="M117 364l9 17" fill="none" stroke="#a1a1a1" stroke-width=".97" transform="matrix(1.11111 0 0 .94118 69.934 -258.22)"/></g></g><g><circle cx="83.987" cy="381.254" r="6.434" fill="#fff" stroke="#a1a1a1" stroke-width=".63" transform="translate(-.653 -560.27) scale(1.58797)"/><text x="86.863" y="390.134" font-family="'Times-Italic','Times'" font-style="italic" font-size="12" transform="translate(40.106 -340.929)">25</text><circle cx="83.987" cy="381.254" r="6.434" fill="#fff" stroke="#a1a1a1" stroke-width=".63" transform="translate(19.781 -594.704) scale(1.58797)"/><text x="86.863" y="390.134" font-family="'Times-Italic','Times'" font-style="italic" font-size="12" transform="translate(60.54 -375.363)">27</text><circle cx="83.987" cy="381.254" r="6.434" fill="#fff" stroke="#a1a1a1" stroke-width=".63" transform="translate(39.347 -560.27) scale(1.58797)"/><text x="86.863" y="390.134" font-family="'Times-Italic','Times'" font-style="italic" font-size="12" transform="translate(80.106 -341.2)">26</text><path d="M142.934 44.934H162.5" fill="none" stroke="#a1a1a1"/><g><path d="M95 381l10-16" fill="none" stroke="#a1a1a1" stroke-width=".95" transform="matrix(1.1 0 0 1 31.434 -346.066)"/></g><g><path d="M117 364l9 17" fill="none" stroke="#a1a1a1" stroke-width=".97" transform="matrix(1.11111 0 0 .94118 29.934 -323.654)"/></g></g></g></svg>