<svg viewBox="0 0 91 113" xmlns="http://www.w3.org/2000/svg" fill-rule="evenodd" clip-rule="evenodd" stroke-linecap="round" stroke-linejoin="round" stroke-miterlimit="1.5"><path d="M95 381l10-16" fill="none" stroke="#a1a1a1" stroke-width=".85" transform="matrix(3.22582 0 0 -.875 -276.211 352.658)"/><path d="M95 381l10-16" fill="none" stroke="#a1a1a1" stroke-width=".32" transform="matrix(3.22582 0 0 -.875 -276.211 393.658)"/><path d="M117 364l9 17" fill="none" stroke="#a1a1a1" stroke-width=".77" transform="matrix(3.58424 0 0 -.82353 -389.114 353.048)"/><path d="M117 364l9 17" fill="none" stroke="#a1a1a1" stroke-width=".77" transform="matrix(3.58424 0 0 -.82353 -389.114 394.048)"/><circle cx="83.987" cy="381.254" r="6.434" fill="#fff" stroke="#a1a1a1" stroke-width=".43" transform="translate(-180.306 -873.345) scale(2.33137)"/><text x="89.863" y="390.134" font-family="'Times-Italic','Times'" font-style="italic" font-size="12" transform="translate(-77.111 -370.58)">1</text><circle cx="83.987" cy="381.254" r="6.434" fill="#fff" stroke="#a1a1a1" stroke-width=".43" transform="translate(-180.306 -792.213) scale(2.33137)"/><text x="89.863" y="390.134" font-family="'Times-Italic','Times'" font-style="italic" font-size="12" transform="translate(-77.111 -289.448)">3</text><circle cx="83.987" cy="381.254" r="6.434" fill="#fff" stroke="#a1a1a1" stroke-width=".43" transform="translate(-180.306 -832.779) scale(2.33137)"/><text x="89.863" y="390.134" font-family="'Times-Italic','Times'" font-style="italic" font-size="12" transform="translate(-77.111 -330.285)">2</text><g><path fill="#fff" stroke="#a1a1a1" stroke-width=".57" d="M221 224h19v14h-19z" transform="matrix(1.47368 0 0 2 -263.184 -425.717)"/><text x="89.863" y="390.134" font-family="'Times-Italic','Times'" font-style="italic" font-size="12" transform="translate(-17.111 -349.797)">4</text></g><g><path fill="#fff" stroke="#a1a1a1" stroke-width=".57" d="M221 224h19v14h-19z" transform="matrix(1.47368 0 0 2 -263.184 -385.717)"/><text x="89.863" y="390.134" font-family="'Times-Italic','Times'" font-style="italic" font-size="12" transform="translate(-17.111 -310.068)">5</text></g></svg>