<svg viewBox="0 0 766 412" xmlns="http://www.w3.org/2000/svg" fill-rule="evenodd" clip-rule="evenodd"><path d="M11.527 215.519h672.051l82.246 195.89H93.773l-82.246-195.89z" fill="#f0f0f0" fill-rule="nonzero" stroke="#969696"/><path d="M309.535 295.112L237.63 273.27" fill="none" stroke="#969696" stroke-width="2.5"/><path d="M233.812 272.11l6.726-1.567-2.007 6.613-4.719-5.046z" fill="#969696" stroke="#969696" stroke-width=".87" stroke-linejoin="round"/><path d="M265.5 355.957l53.462-21.019" fill="none" stroke="#969696" stroke-width="3.46"/><path d="M322.672 333.477l-4.301 5.402-2.527-6.43 6.828 1.028z" fill="#969696" stroke="#969696" stroke-width=".86" stroke-linejoin="round"/><path d="M338.344 336.163l-51.13 20.93" fill="none" stroke="#969696" stroke-width="2.5"/><path d="M283.523 358.602l4.227-5.461 2.618 6.394-6.845-.933z" fill="#969696" stroke="#969696" stroke-width=".86" stroke-linejoin="round"/><path d="M200.238 355.461l-31.324-76.09" fill="none" stroke="#969696" stroke-width="3.46"/><path d="M167.4 275.684l5.467 4.21-6.39 2.633.923-6.843z" fill="#969696" stroke="#969696" stroke-width=".87" stroke-linejoin="round"/><path d="M187.421 275.815l29.098 71.88" fill="none" stroke="#969696" stroke-width="3.46"/><path d="M218.016 351.39l-5.446-4.246 6.403-2.59-.957 6.836z" fill="#969696" stroke="#969696" stroke-width=".86" stroke-linejoin="round"/><path d="M242.652 267.242l69.008 21.426" fill="none" stroke="#969696" stroke-width="3.46"/><path d="M315.469 289.848l-6.734 1.527 2.046-6.597 4.688 5.07z" fill="#969696" stroke="#969696" stroke-width=".86" stroke-linejoin="round"/><ellipse cx="-27.32" cy="634.3" rx="30.758" ry="97.298" fill="#fff" stroke="#ba1518" stroke-width="2.71" stroke-linejoin="round" transform="matrix(.38713 .92202 -1 0 863.115 404.279)"/><ellipse cx="-27.32" cy="491.955" rx="30.757" ry="97.301" fill="#fff" stroke="#ba1518" stroke-width="2.71" stroke-linejoin="round" transform="matrix(.38713 .92202 -1 0 665.663 273.033)"/><ellipse cx="170.671" cy="563.125" rx="30.758" ry="97.299" fill="#fff" stroke="#ba1518" stroke-width="2.71" stroke-linejoin="round" transform="matrix(.38713 .92202 -1 0 885.728 156.102)"/><path d="M394.828 307.249c-.176-.42-1.308-.75-2.953-.75-1.922 0-3.617.54-3.383 1.1.164.39 1.305.74 3.008.74 1.645 0 3.586-.48 3.328-1.09zm-2.152 7.8c.613-.61.594-.65 1.074-1.21.387-.41.633-.71.469-1.1-.391-.93-3.008-1.7-6.578-1.7-6.668 0-8.106 3-8.028 3.19.086.21.801.21.926.21.715 0 .758-.04.992-.37 1.102-1.95 3.696-2.57 6.114-2.57.558 0 1.769 0 2.05.67.184.43-.133.86-.324 1.07-.359.54-2.547 2.95-3.324 3.84-.485.54-1.094 1.23-.914 1.66.41.98 3.137 1.7 6.547 1.7 6.703 0 8.043-3.01 7.968-3.19-.089-.21-.71-.21-.925-.21-.715 0-.688.06-.93.37-.723 1.31-2.547 2.57-6.18 2.57-1.207 0-1.793-.2-1.992-.68-.219-.52.094-.81 1.207-2.07l1.848-2.18zm-218.403-75.436c-.168-.4-1.308-.75-3.015-.75-1.645 0-3.582.48-3.32 1.1.171.42 1.304.74 2.945.74 1.926 0 3.625-.53 3.39-1.09zm-8.421 14c-.704 1.58-3.622 2.76-7.59 2.76-.434 0-1.52 0-2.871-.19 2.078-.14 2.91-.68 2.734-1.09-.141-.34-1.082-.73-3.008-.73-1.765 0-3.66.44-3.347 1.18.347.83 3.394 1.29 6.804 1.29 4.996 0 11.145-1.1 12.082-3.15l3.356-7.6c.168-.41.047-.7.019-.77-.496-1.18-3.781-1.91-7.347-1.91-7.258 0-10.063 3.01-9.985 3.2.09.21.801.21.957.21.621 0 .707-.02 1.098-.42 1.238-1.27 3.992-2.53 7.902-2.53.992 0 2.332.08 2.699.95.196.48.079.71-.054 1.06l-3.449 7.74zm49.82 118.398c-.012-.03-.102-.24-1.031-.24-1.645 0-6.754.17-8.598.21-.578.03-1.348.05-1.191.42.105.25.757.25 1.812.25 3.414 0 3.629.15 3.715.35l-.043.42-5.313 11.94c-.156.3-.14.34-.085.46.199.48 1.667.58 2.32.58.93 0 1.91-.18 2.238-.43.262-.19 1.879-4.03 2.059-4.55 2.449.06 8.453.4 9.027 1.77.063.15.098.23-.031.44-.055.24-.102.49-.008.72.512 1.22 3.715 2.05 7.437 2.05 2.11 0 3.899-.32 5.157-1.09 1.386-.91 1.711-2.06 1.695-2.1-.09-.21-.738-.21-.957-.21-.715 0-.742.09-.836.37-.789 1.52-1.992 2.58-5.125 2.58-1.332 0-2.359-.23-2.672-.98-.148-.35-.07-.83.067-1.16.132-.35.097-.44.011-.64-.566-1.35-5.289-1.96-11.433-2.18 2.047-.37 4.035-1.03 5.465-1.54 2.953-1.1 5.867-1.99 9.343-1.99.434 0 .496 0 .657.02.859.04.949.04 1.562.17.164.02.172.04.313.08-3.387.07-3.7.87-3.594 1.12.14.34 1.113.73 3.035.73 1.828 0 3.719-.46 3.379-1.27-.266-.62-2.192-1.3-5.387-1.3-1.988 0-5.207.16-9.629 1.83-2.086.78-4.531 1.61-7.101 1.92l3.742-8.75z" fill-rule="nonzero"/><path d="M17.034 3.959H689.08l82.25 195.88H99.28L17.034 3.959z" fill="#f0f0f0" fill-rule="nonzero" stroke="#969696"/><path d="M453.379 79.707l53.56-21.845" fill="none" stroke="#969696" stroke-width="2.5"/><path d="M510.632 56.355l-4.23 5.458-2.61-6.398 6.84.94z" fill="#969696" stroke="#969696" stroke-width=".86" stroke-linejoin="round"/><path d="M548.504 140.55l-71.108-21.023" fill="none" stroke="#969696" stroke-width="3.46"/><path d="M473.57 118.399l6.712-1.618-1.957 6.625-4.755-5.007z" fill="#969696" stroke="#969696" stroke-width=".87" stroke-linejoin="round"/><path d="M613.349 140.055l-32.572-76.09" fill="none" stroke="#969696" stroke-width="3.46"/><path d="M579.207 60.296l5.53 4.137-6.353 2.719.823-6.856z" fill="#969696" stroke="#969696" stroke-width=".86" stroke-linejoin="round"/><path d="M455.547 120.06l72.195 21.628" fill="none" stroke="#969696" stroke-width="2.5"/><path d="M531.563 142.832l-6.715 1.593 1.98-6.62 4.735 5.027z" fill="#969696" stroke="#969696" stroke-width=".87" stroke-linejoin="round"/><path d="M559.285 60.409l31.262 71.88" fill="none" stroke="#969696" stroke-width="3.46"/><path d="M592.137 135.945l-5.55-4.106 6.335-2.753-.785 6.859z" fill="#969696" stroke="#969696" stroke-width=".86" stroke-linejoin="round"/><path d="M496.855 51.835L445.84 73.257" fill="none" stroke="#969696" stroke-width="3.46"/><path d="M442.164 74.805l4.172-5.5 2.676 6.37-6.848-.87z" fill="#969696" stroke="#969696" stroke-width=".87" stroke-linejoin="round"/><ellipse cx="459.152" cy="258.204" rx="30.758" ry="97.299" fill="#fff" stroke="#969696" stroke-width="2.71" stroke-linejoin="round" stroke-dasharray="8.12,8.12" transform="matrix(.38713 .92202 -1 0 639.562 -391.029)"/><ellipse cx="459.154" cy="400.55" rx="30.758" ry="97.298" fill="#fff" stroke="#969696" stroke-width="2.71" stroke-linejoin="round" stroke-dasharray="8.12,8.12" transform="matrix(.38713 .92202 -1 0 837.015 -259.785)"/><ellipse cx="261.162" cy="329.375" rx="30.758" ry="97.299" fill="#fff" stroke="#969696" stroke-width="2.71" stroke-linejoin="round" transform="matrix(.38713 .92202 -1 0 616.945 -142.856)"/><path d="M394.828 91.72c-.176-.42-1.308-.75-2.953-.75-1.922 0-3.617.54-3.383 1.1.164.39 1.305.74 3.008.74 1.645 0 3.586-.48 3.328-1.09zm-2.152 7.8c.613-.6.594-.65 1.074-1.21.387-.41.633-.7.469-1.09-.391-.93-3.008-1.7-6.578-1.7-6.668 0-8.106 3-8.028 3.19.086.21.801.21.926.21.715 0 .758-.05.992-.37 1.102-1.96 3.696-2.58 6.114-2.58.558 0 1.769 0 2.05.67.184.43-.133.87-.324 1.07-.359.55-2.547 2.95-3.324 3.84-.485.54-1.094 1.23-.914 1.66.41.98 3.137 1.7 6.547 1.7 6.703 0 8.043-3.01 7.968-3.19-.089-.21-.71-.21-.925-.21-.715 0-.688.07-.93.37-.723 1.31-2.547 2.58-6.18 2.58-1.207 0-1.793-.21-1.992-.69-.219-.51.094-.8 1.207-2.07l1.848-2.18zm171.078-74.28c-.012-.03-.098-.23-1.027-.23-1.645 0-6.754.17-8.598.2-.551.03-1.317.05-1.152.44.097.24.812.24 1.867.24 3.41 0 3.582.18 3.652.35l-.043.41-4.641 10.38c-.093.22-.187.36-.046.7.5 1.18 3.933 1.91 7.285 1.91 2.359 0 3.953-.42 4.851-1.16.942-.79 1.301-2 1.286-2.04-.086-.2-.739-.2-.958-.2-.71 0-.738.08-.835.37-.645 1.35-1.461 2.58-4.317 2.58-2.14 0-2.422-.67-2.543-.96-.207-.5-.187-.6.016-1l5.203-11.99zm26.871 141.57c-.086.31-.32.79-.277.89.16.38 1.226.56 2.312.56.84 0 2.074-.16 2.395-.58.043-.04.504-1.01.687-1.54l.801-1.86c.242-.46.453-.91.625-1.39.133-.35.437-.96.496-1.04.785-.64 3.774-2.53 10.539-2.53 3.195 0 4.168.77 4.457 1.45.215.52-.035 1.1-.363 1.72l-.977 2.4-.761 1.59c-.106.41-.461 1.12-.418 1.22.16.38 1.226.56 2.312.56 2.203 0 2.422-.52 2.699-1.19.504-1.15 1.871-4.18 2.18-5 .109-.26 2.813-2.75 10.602-2.75 3.039 0 4.109.7 4.425 1.45.496 1.19-1.488 3.55-2.453 4.65-.41.5-.629.72-.453 1.14.41.98 3.227 1.7 6.578 1.7 6.668 0 8.035-3.03 7.965-3.19-.086-.21-.707-.21-.922-.21-.715 0-.687.06-.933.37-.59 1.1-2.266 2.58-6.176 2.58-1.211 0-1.793-.21-1.996-.69-.215-.51.226-1.01.656-1.48.91-1.07 2.922-3.37 2.426-4.56-.567-1.35-3.754-2.22-9.121-2.22-5.336 0-8.582.92-10.762 2.01-.176-.27-.688-.98-2.883-1.47-1.949-.44-4.289-.54-6.055-.54-6.421 0-9.343 1.32-10.351 1.8-.871-1.18-4.106-1.8-7.301-1.8-3.289 0-4.316.81-4.781 1.18-.996.73-1.383 1.95-1.356 2.01.086.22.801.22.926.22.711 0 .766-.02 1.008-.48.59-1.48 1.602-2.47 4.176-2.47 1.117 0 2.269.16 2.605.95.18.44.059.66-.418 1.74l-2.113 4.8zM33.059 294.755c0-4.49-3.282-8.19-8.125-8.19-3.469 0-5.141.95-7.235 2.52-3.297 2.39-6.578 8.18-7.719 12.72l-9.5 37.96c-.062.24.235.6.719.6.469 0 .656-.11.719-.3l4.172-16.5c1.14 3.6 3.765 5.8 8.14 5.8 4.36 0 8.844-2.1 11.532-4.72 2.875-2.75 4.781-6.58 4.781-11 0-4.3-2.203-7.41-4.359-8.91 3.468-1.97 6.875-5.68 6.875-9.98zm-10.766 9.92c-.766.3-1.438.42-2.859.42-.844 0-2.032.07-2.641-.23.125-.61 2.281-.49 2.937-.49 1.25 0 1.797 0 2.563.3zm7.422-11.3c0 4.19-2.281 8.49-5.391 10.35-1.609-.6-2.797-.72-4.594-.72-1.265 0-4.609-.06-4.609 1.91-.062 1.68 3.047 1.5 4.125 1.5 2.219 0 3.109-.07 4.906-.79 2.266 2.16 2.563 4.02 2.625 6.77.125 3.47-1.312 7.95-2.984 10.28-2.328 3.22-6.344 5.38-9.75 5.38-4.531 0-6.813-3.47-6.813-7.71 0-.61 0-1.5.297-2.64l3.828-15.12c1.313-5.14 5.625-14.64 12.797-14.64 3.469 0 5.563 1.84 5.563 5.43zM26.062 96.72c0-9.39-5.562-12.32-9.984-12.32C7.891 84.4 0 92.95 0 101.37c0 5.56 3.578 10.11 9.688 10.11 3.765 0 8.062-1.37 12.609-5.01.781 3.15 2.75 5.01 5.437 5.01 3.172 0 5.032-3.28 5.032-4.25 0-.4-.36-.59-.719-.59-.422 0-.609.19-.781.59-1.078 2.94-3.235 2.94-3.344 2.94-1.86 0-1.86-4.67-1.86-6.09 0-1.27 0-1.38.594-2.1 5.625-7.06 6.875-14 6.875-14.05 0-.12-.062-.6-.719-.6-.593 0-.593.18-.89 1.26-1.078 3.77-3.047 8.31-5.86 11.83v-3.7zm-4 8.18c-5.265 4.61-9.874 5.27-12.265 5.27-3.578 0-5.375-2.69-5.375-6.52 0-2.93 1.547-9.39 3.469-12.43 2.812-4.36 6.031-5.5 8.125-5.5 5.922 0 5.922 7.83 5.922 12.5 0 2.2 0 5.67.124 6.68z" fill-rule="nonzero"/><path d="M513.643 57.751l6.709.01-4.034 5.36-2.675-5.37z" fill="#969696"/><path d="M401.219 305.152c0-201.755 54.225-215.415 114.835-245.25" fill="none" stroke="#969696"/><path d="M263.442 353.646l-6.707-.162 4.154-5.267 2.553 5.43z" fill="#969696"/><path d="M375.851 111.41c0 21.712-.959 41.362-2.752 59.178-12.14 120.67-62.51 157.233-112.02 180.853" fill="none" stroke="#969696" transform="translate(0 .002)"/><g><path d="M517.656 144.12l5.15 4.3-6.53 1.54 1.38-5.84z" fill="#969696"/><path d="M413.292 320.5c0-166.886 39.497-187.945 104.844-173.185" fill="none" stroke="#969696"/></g><g><path d="M259.519 267.391l-4.836-4.649 6.62-1.079-1.784 5.728z" fill="#969696"/><path d="M366.217 97.941c0 19.369-.647 36.656-1.854 52.073-10.792 137.864-66.388 126.071-105.097 114.156" fill="none" stroke="#969696"/></g><path d="M548.504 140.55l-71.108-21.023" fill="none" stroke="#969696" stroke-width="3.46"/><path d="M473.57 118.399l6.712-1.618-1.957 6.625-4.755-5.007z" fill="#969696" stroke="#969696" stroke-width=".87" stroke-linejoin="round"/><path d="M613.349 140.055l-32.572-76.09" fill="none" stroke="#969696" stroke-width="3.46"/><path d="M579.207 60.296l5.53 4.137-6.353 2.719.823-6.856z" fill="#969696" stroke="#969696" stroke-width=".86" stroke-linejoin="round"/><path d="M531.563 142.832l-6.715 1.593 1.98-6.62 4.735 5.027z" fill="#969696" stroke="#969696" stroke-width=".87" stroke-linejoin="round"/><path d="M559.285 60.409l31.262 71.88" fill="none" stroke="#969696" stroke-width="3.46"/><path d="M592.137 135.945l-5.55-4.106 6.335-2.753-.785 6.859z" fill="#969696" stroke="#969696" stroke-width=".86" stroke-linejoin="round"/><path d="M496.855 51.835L445.84 73.257" fill="none" stroke="#969696" stroke-width="3.46"/><path d="M442.164 74.805l4.172-5.5 2.676 6.37-6.848-.87z" fill="#969696" stroke="#969696" stroke-width=".87" stroke-linejoin="round"/><g transform="matrix(.38713 .92202 -1 0 639.562 -391.029)"><ellipse cx="459.152" cy="258.204" rx="30.758" ry="97.299" fill="#fff" stroke="#2571a1" stroke-width="2.82" stroke-linejoin="round" stroke-dasharray="5.64,2.82"/></g><g transform="matrix(.38713 .92202 -1 0 837.015 -259.785)"><ellipse cx="459.154" cy="400.55" rx="30.758" ry="97.298" fill="#fff" stroke="#2571a1" stroke-width="2.82" stroke-linejoin="round" stroke-dasharray="5.64,2.82"/></g><path d="M485.98 97.941c6.57 15.663-31.66 28.36-85.4 28.36-53.73 0-102.62-12.697-109.2-28.36-6.58-15.66 31.65-28.36 85.39-28.36s102.63 12.7 109.21 28.36z" fill="#fff" fill-opacity=".5" fill-rule="nonzero"/><g transform="matrix(.38713 .92202 -1 0 616.945 -142.856)"><ellipse cx="261.162" cy="329.375" rx="30.758" ry="97.299" fill="none" stroke="#2571a1" stroke-width="2.82" stroke-linejoin="round" stroke-dasharray="5.64,2.82"/></g><path d="M394.828 91.72c-.176-.42-1.308-.75-2.953-.75-1.922 0-3.617.54-3.383 1.1.164.39 1.305.74 3.008.74 1.645 0 3.586-.48 3.328-1.09zm-2.152 7.8c.613-.6.594-.65 1.074-1.21.387-.41.633-.7.469-1.09-.391-.93-3.008-1.7-6.578-1.7-6.668 0-8.106 3-8.028 3.19.086.21.801.21.926.21.715 0 .758-.05.992-.37 1.102-1.96 3.696-2.58 6.114-2.58.558 0 1.769 0 2.05.67.184.43-.133.87-.324 1.07-.359.55-2.547 2.95-3.324 3.84-.485.54-1.094 1.23-.914 1.66.41.98 3.137 1.7 6.547 1.7 6.703 0 8.043-3.01 7.968-3.19-.089-.21-.71-.21-.925-.21-.715 0-.688.07-.93.37-.723 1.31-2.547 2.58-6.18 2.58-1.207 0-1.793-.21-1.992-.69-.219-.51.094-.8 1.207-2.07l1.848-2.18zm171.078-74.28c-.012-.03-.098-.23-1.027-.23-1.645 0-6.754.17-8.598.2-.551.03-1.317.05-1.152.44.097.24.812.24 1.867.24 3.41 0 3.582.18 3.652.35l-.043.41-4.641 10.38c-.093.22-.187.36-.046.7.5 1.18 3.933 1.91 7.285 1.91 2.359 0 3.953-.42 4.851-1.16.942-.79 1.301-2 1.286-2.04-.086-.2-.739-.2-.958-.2-.71 0-.738.08-.835.37-.645 1.35-1.461 2.58-4.317 2.58-2.14 0-2.422-.67-2.543-.96-.207-.5-.187-.6.016-1l5.203-11.99zm26.871 141.57c-.086.31-.32.79-.277.89.16.38 1.226.56 2.312.56.84 0 2.074-.16 2.395-.58.043-.04.504-1.01.687-1.54l.801-1.86c.242-.46.453-.91.625-1.39.133-.35.437-.96.496-1.04.785-.64 3.774-2.53 10.539-2.53 3.195 0 4.168.77 4.457 1.45.215.52-.035 1.1-.363 1.72l-.977 2.4-.761 1.59c-.106.41-.461 1.12-.418 1.22.16.38 1.226.56 2.312.56 2.203 0 2.422-.52 2.699-1.19.504-1.15 1.871-4.18 2.18-5 .109-.26 2.813-2.75 10.602-2.75 3.039 0 4.109.7 4.425 1.45.496 1.19-1.488 3.55-2.453 4.65-.41.5-.629.72-.453 1.14.41.98 3.227 1.7 6.578 1.7 6.668 0 8.035-3.03 7.965-3.19-.086-.21-.707-.21-.922-.21-.715 0-.687.06-.933.37-.59 1.1-2.266 2.58-6.176 2.58-1.211 0-1.793-.21-1.996-.69-.215-.51.226-1.01.656-1.48.91-1.07 2.922-3.37 2.426-4.56-.567-1.35-3.754-2.22-9.121-2.22-5.336 0-8.582.92-10.762 2.01-.176-.27-.688-.98-2.883-1.47-1.949-.44-4.289-.54-6.055-.54-6.421 0-9.343 1.32-10.351 1.8-.871-1.18-4.106-1.8-7.301-1.8-3.289 0-4.316.81-4.781 1.18-.996.73-1.383 1.95-1.356 2.01.086.22.801.22.926.22.711 0 .766-.02 1.008-.48.59-1.48 1.602-2.47 4.176-2.47 1.117 0 2.269.16 2.605.95.18.44.059.66-.418 1.74l-2.113 4.8z" fill-rule="nonzero"/></svg>