<?xml version="1.0" encoding="UTF-8" standalone="no"?>
<!DOCTYPE svg PUBLIC "-//W3C//DTD SVG 1.1//EN" "http://www.w3.org/Graphics/SVG/1.1/DTD/svg11.dtd">
<svg width="100%" height="100%" viewBox="0 0 303 256" version="1.1" xmlns="http://www.w3.org/2000/svg" xmlns:xlink="http://www.w3.org/1999/xlink" xml:space="preserve" xmlns:serif="http://www.serif.com/" style="fill-rule:evenodd;clip-rule:evenodd;stroke-linecap:round;stroke-linejoin:round;stroke-miterlimit:1.5;">
    <g transform="matrix(1,0,0,1,-79.066,-145.388)">
        <g transform="matrix(1,0,0,1,120.434,0)">
            <path d="M100,390L119.566,390" style="fill:none;stroke:rgb(161,161,161);stroke-width:1px;"/>
        </g>
        <g transform="matrix(1.11111,0,0,0.941176,167,-78.5882)">
            <path d="M117,364L126,381" style="fill:none;stroke:rgb(161,161,161);stroke-width:0.97px;"/>
        </g>
        <g transform="matrix(1.1,0,0,1,49,-101)">
            <path d="M95,381L105,365" style="fill:none;stroke:rgb(161,161,161);stroke-width:0.95px;"/>
        </g>
        <g>
            <g transform="matrix(1,0,0,1,40.217,-5.68434e-14)">
                <path d="M100,390L119.566,390" style="fill:none;stroke:rgb(161,161,161);stroke-width:1px;"/>
            </g>
            <g transform="matrix(1.11111,0,0,0.941176,48,-10.5882)">
                <path d="M117,364L126,381" style="fill:none;stroke:rgb(161,161,161);stroke-width:0.97px;"/>
            </g>
            <g transform="matrix(1.1,0,0,1,9,-33)">
                <path d="M95,381L105,365" style="fill:none;stroke:rgb(161,161,161);stroke-width:0.95px;"/>
            </g>
            <g>
                <g>
                    <g transform="matrix(1.58797,0,0,1.58797,-43.5868,-215.204)">
                        <circle cx="83.987" cy="381.254" r="6.434" style="fill:white;stroke:rgb(161,161,161);stroke-width:0.63px;"/>
                    </g>
                    <g transform="matrix(1,0,0,1,-2.8282,4.13748)">
                        <text x="89.863px" y="390.134px" style="font-family:'Times-Italic', 'Times';font-style:italic;font-size:12px;">1</text>
                    </g>
                </g>
                <g transform="matrix(1,0,0,1,20.434,-34.434)">
                    <g transform="matrix(1.58797,0,0,1.58797,-43.5868,-215.204)">
                        <circle cx="83.987" cy="381.254" r="6.434" style="fill:white;stroke:rgb(161,161,161);stroke-width:0.63px;"/>
                    </g>
                    <g transform="matrix(1,0,0,1,-2.8282,4.13748)">
                        <text x="89.863px" y="390.134px" style="font-family:'Times-Italic', 'Times';font-style:italic;font-size:12px;">3</text>
                    </g>
                </g>
                <g>
                    <g transform="matrix(1.58797,0,0,1.58797,-3.5868,-215.204)">
                        <circle cx="83.987" cy="381.254" r="6.434" style="fill:white;stroke:rgb(161,161,161);stroke-width:0.63px;"/>
                    </g>
                    <g transform="matrix(1,0,0,1,37.1718,3.8658)">
                        <text x="89.863px" y="390.134px" style="font-family:'Times-Italic', 'Times';font-style:italic;font-size:12px;">2</text>
                    </g>
                </g>
                <path d="M100,390L119.566,390" style="fill:none;stroke:rgb(161,161,161);stroke-width:1px;"/>
                <g transform="matrix(1.1,0,0,1,-11.5,-1)">
                    <path d="M95,381L105,365" style="fill:none;stroke:rgb(161,161,161);stroke-width:0.95px;"/>
                </g>
                <g transform="matrix(1.11111,0,0,0.941176,-13,21.4118)">
                    <path d="M117,364L126,381" style="fill:none;stroke:rgb(161,161,161);stroke-width:0.97px;"/>
                </g>
            </g>
            <g transform="matrix(1,0,0,1,80.434,-5.68434e-14)">
                <g>
                    <g transform="matrix(1.58797,0,0,1.58797,-43.5868,-215.204)">
                        <circle cx="83.987" cy="381.254" r="6.434" style="fill:white;stroke:rgb(161,161,161);stroke-width:0.63px;"/>
                    </g>
                    <g transform="matrix(1,0,0,1,-2.8282,4.13748)">
                        <text x="89.863px" y="390.134px" style="font-family:'Times-Italic', 'Times';font-style:italic;font-size:12px;">4</text>
                    </g>
                </g>
                <g transform="matrix(1,0,0,1,20.434,-34.434)">
                    <g transform="matrix(1.58797,0,0,1.58797,-43.5868,-215.204)">
                        <circle cx="83.987" cy="381.254" r="6.434" style="fill:white;stroke:rgb(161,161,161);stroke-width:0.63px;"/>
                    </g>
                    <g transform="matrix(1,0,0,1,-2.8282,4.13748)">
                        <text x="89.863px" y="390.134px" style="font-family:'Times-Italic', 'Times';font-style:italic;font-size:12px;">6</text>
                    </g>
                </g>
                <g>
                    <g transform="matrix(1.58797,0,0,1.58797,-3.5868,-215.204)">
                        <circle cx="83.987" cy="381.254" r="6.434" style="fill:white;stroke:rgb(161,161,161);stroke-width:0.63px;"/>
                    </g>
                    <g transform="matrix(1,0,0,1,37.1718,3.8658)">
                        <text x="89.863px" y="390.134px" style="font-family:'Times-Italic', 'Times';font-style:italic;font-size:12px;">5</text>
                    </g>
                </g>
                <path d="M100,390L119.566,390" style="fill:none;stroke:rgb(161,161,161);stroke-width:1px;"/>
                <g transform="matrix(1.1,0,0,1,-11.5,-1)">
                    <path d="M95,381L105,365" style="fill:none;stroke:rgb(161,161,161);stroke-width:0.95px;"/>
                </g>
                <g transform="matrix(1.11111,0,0,0.941176,-13,21.4118)">
                    <path d="M117,364L126,381" style="fill:none;stroke:rgb(161,161,161);stroke-width:0.97px;"/>
                </g>
            </g>
            <g transform="matrix(1,0,0,1,40.434,-65.434)">
                <g>
                    <g transform="matrix(1.58797,0,0,1.58797,-43.5868,-215.204)">
                        <circle cx="83.987" cy="381.254" r="6.434" style="fill:white;stroke:rgb(161,161,161);stroke-width:0.63px;"/>
                    </g>
                    <g transform="matrix(1,0,0,1,-2.8282,4.13748)">
                        <text x="89.863px" y="390.134px" style="font-family:'Times-Italic', 'Times';font-style:italic;font-size:12px;">7</text>
                    </g>
                </g>
                <g transform="matrix(1,0,0,1,20.434,-34.434)">
                    <g transform="matrix(1.58797,0,0,1.58797,-43.5868,-215.204)">
                        <circle cx="83.987" cy="381.254" r="6.434" style="fill:white;stroke:rgb(161,161,161);stroke-width:0.63px;"/>
                    </g>
                    <g transform="matrix(1,0,0,1,-2.8282,4.13748)">
                        <text x="89.863px" y="390.134px" style="font-family:'Times-Italic', 'Times';font-style:italic;font-size:12px;">9</text>
                    </g>
                </g>
                <g>
                    <g transform="matrix(1.58797,0,0,1.58797,-3.5868,-215.204)">
                        <circle cx="83.987" cy="381.254" r="6.434" style="fill:white;stroke:rgb(161,161,161);stroke-width:0.63px;"/>
                    </g>
                    <g transform="matrix(1,0,0,1,37.1718,3.8658)">
                        <text x="89.863px" y="390.134px" style="font-family:'Times-Italic', 'Times';font-style:italic;font-size:12px;">8</text>
                    </g>
                </g>
                <path d="M100,390L119.566,390" style="fill:none;stroke:rgb(161,161,161);stroke-width:1px;"/>
                <g transform="matrix(1.1,0,0,1,-11.5,-1)">
                    <path d="M95,381L105,365" style="fill:none;stroke:rgb(161,161,161);stroke-width:0.95px;"/>
                </g>
                <g transform="matrix(1.11111,0,0,0.941176,-13,21.4118)">
                    <path d="M117,364L126,381" style="fill:none;stroke:rgb(161,161,161);stroke-width:0.97px;"/>
                </g>
            </g>
        </g>
        <g transform="matrix(1,0,0,1,160.434,-0.283012)">
            <g transform="matrix(1,0,0,1,40.217,-5.68434e-14)">
                <path d="M100,390L119.566,390" style="fill:none;stroke:rgb(161,161,161);stroke-width:1px;"/>
            </g>
            <g transform="matrix(1.11111,0,0,0.941176,48,-10.5882)">
                <path d="M117,364L126,381" style="fill:none;stroke:rgb(161,161,161);stroke-width:0.97px;"/>
            </g>
            <g transform="matrix(1.1,0,0,1,9,-33)">
                <path d="M95,381L105,365" style="fill:none;stroke:rgb(161,161,161);stroke-width:0.95px;"/>
            </g>
            <g>
                <g>
                    <g transform="matrix(1.58797,0,0,1.58797,-43.5868,-215.204)">
                        <circle cx="83.987" cy="381.254" r="6.434" style="fill:white;stroke:rgb(161,161,161);stroke-width:0.63px;"/>
                    </g>
                    <g transform="matrix(1,0,0,1,-2.8282,4.13748)">
                        <text x="86.863px" y="390.134px" style="font-family:'Times-Italic', 'Times';font-style:italic;font-size:12px;">10</text>
                    </g>
                </g>
                <g transform="matrix(1,0,0,1,20.434,-34.434)">
                    <g transform="matrix(1.58797,0,0,1.58797,-43.5868,-215.204)">
                        <circle cx="83.987" cy="381.254" r="6.434" style="fill:white;stroke:rgb(161,161,161);stroke-width:0.63px;"/>
                    </g>
                    <g transform="matrix(1,0,0,1,-2.8282,4.13748)">
                        <text x="86.863px" y="390.134px" style="font-family:'Times-Italic', 'Times';font-style:italic;font-size:12px;">12</text>
                    </g>
                </g>
                <g>
                    <g transform="matrix(1.58797,0,0,1.58797,-3.5868,-215.204)">
                        <circle cx="83.987" cy="381.254" r="6.434" style="fill:white;stroke:rgb(161,161,161);stroke-width:0.63px;"/>
                    </g>
                    <g transform="matrix(1,0,0,1,37.1718,3.8658)">
                        <text x="86.863px" y="390.134px" style="font-family:'Times-Italic', 'Times';font-style:italic;font-size:12px;">11</text>
                    </g>
                </g>
                <path d="M100,390L119.566,390" style="fill:none;stroke:rgb(161,161,161);stroke-width:1px;"/>
                <g transform="matrix(1.1,0,0,1,-11.5,-1)">
                    <path d="M95,381L105,365" style="fill:none;stroke:rgb(161,161,161);stroke-width:0.95px;"/>
                </g>
                <g transform="matrix(1.11111,0,0,0.941176,-13,21.4118)">
                    <path d="M117,364L126,381" style="fill:none;stroke:rgb(161,161,161);stroke-width:0.97px;"/>
                </g>
            </g>
            <g transform="matrix(1,0,0,1,80.434,-5.68434e-14)">
                <g>
                    <g transform="matrix(1.58797,0,0,1.58797,-43.5868,-215.204)">
                        <circle cx="83.987" cy="381.254" r="6.434" style="fill:white;stroke:rgb(161,161,161);stroke-width:0.63px;"/>
                    </g>
                    <g transform="matrix(1,0,0,1,-2.8282,4.13748)">
                        <text x="86.863px" y="390.134px" style="font-family:'Times-Italic', 'Times';font-style:italic;font-size:12px;">13</text>
                    </g>
                </g>
                <g transform="matrix(1,0,0,1,20.434,-34.434)">
                    <g transform="matrix(1.58797,0,0,1.58797,-43.5868,-215.204)">
                        <circle cx="83.987" cy="381.254" r="6.434" style="fill:white;stroke:rgb(161,161,161);stroke-width:0.63px;"/>
                    </g>
                    <g transform="matrix(1,0,0,1,-2.8282,4.13748)">
                        <text x="86.863px" y="390.134px" style="font-family:'Times-Italic', 'Times';font-style:italic;font-size:12px;">15</text>
                    </g>
                </g>
                <g>
                    <g transform="matrix(1.58797,0,0,1.58797,-3.5868,-215.204)">
                        <circle cx="83.987" cy="381.254" r="6.434" style="fill:white;stroke:rgb(161,161,161);stroke-width:0.63px;"/>
                    </g>
                    <g transform="matrix(1,0,0,1,37.1718,3.8658)">
                        <text x="86.863px" y="390.134px" style="font-family:'Times-Italic', 'Times';font-style:italic;font-size:12px;">14</text>
                    </g>
                </g>
                <path d="M100,390L119.566,390" style="fill:none;stroke:rgb(161,161,161);stroke-width:1px;"/>
                <g transform="matrix(1.1,0,0,1,-11.5,-1)">
                    <path d="M95,381L105,365" style="fill:none;stroke:rgb(161,161,161);stroke-width:0.95px;"/>
                </g>
                <g transform="matrix(1.11111,0,0,0.941176,-13,21.4118)">
                    <path d="M117,364L126,381" style="fill:none;stroke:rgb(161,161,161);stroke-width:0.97px;"/>
                </g>
            </g>
            <g transform="matrix(1,0,0,1,40.434,-65.434)">
                <g>
                    <g transform="matrix(1.58797,0,0,1.58797,-43.5868,-215.204)">
                        <circle cx="83.987" cy="381.254" r="6.434" style="fill:white;stroke:rgb(161,161,161);stroke-width:0.63px;"/>
                    </g>
                    <g transform="matrix(1,0,0,1,-2.8282,4.13748)">
                        <text x="86.863px" y="390.134px" style="font-family:'Times-Italic', 'Times';font-style:italic;font-size:12px;">16</text>
                    </g>
                </g>
                <g transform="matrix(1,0,0,1,20.434,-34.434)">
                    <g transform="matrix(1.58797,0,0,1.58797,-43.5868,-215.204)">
                        <circle cx="83.987" cy="381.254" r="6.434" style="fill:white;stroke:rgb(161,161,161);stroke-width:0.63px;"/>
                    </g>
                    <g transform="matrix(1,0,0,1,-2.8282,4.13748)">
                        <text x="86.863px" y="390.134px" style="font-family:'Times-Italic', 'Times';font-style:italic;font-size:12px;">18</text>
                    </g>
                </g>
                <g>
                    <g transform="matrix(1.58797,0,0,1.58797,-3.5868,-215.204)">
                        <circle cx="83.987" cy="381.254" r="6.434" style="fill:white;stroke:rgb(161,161,161);stroke-width:0.63px;"/>
                    </g>
                    <g transform="matrix(1,0,0,1,37.1718,3.8658)">
                        <text x="86.863px" y="390.134px" style="font-family:'Times-Italic', 'Times';font-style:italic;font-size:12px;">17</text>
                    </g>
                </g>
                <path d="M100,390L119.566,390" style="fill:none;stroke:rgb(161,161,161);stroke-width:1px;"/>
                <g transform="matrix(1.1,0,0,1,-11.5,-1)">
                    <path d="M95,381L105,365" style="fill:none;stroke:rgb(161,161,161);stroke-width:0.95px;"/>
                </g>
                <g transform="matrix(1.11111,0,0,0.941176,-13,21.4118)">
                    <path d="M117,364L126,381" style="fill:none;stroke:rgb(161,161,161);stroke-width:0.97px;"/>
                </g>
            </g>
        </g>
        <g transform="matrix(1,0,0,1,81.566,-134.244)">
            <g transform="matrix(1,0,0,1,40.217,-5.68434e-14)">
                <path d="M100,390L119.566,390" style="fill:none;stroke:rgb(161,161,161);stroke-width:1px;"/>
            </g>
            <g transform="matrix(1.11111,0,0,0.941176,48,-10.5882)">
                <path d="M117,364L126,381" style="fill:none;stroke:rgb(161,161,161);stroke-width:0.97px;"/>
            </g>
            <g transform="matrix(1.1,0,0,1,9,-33)">
                <path d="M95,381L105,365" style="fill:none;stroke:rgb(161,161,161);stroke-width:0.95px;"/>
            </g>
            <g>
                <g>
                    <g transform="matrix(1.58797,0,0,1.58797,-43.5868,-215.204)">
                        <circle cx="83.987" cy="381.254" r="6.434" style="fill:white;stroke:rgb(161,161,161);stroke-width:0.63px;"/>
                    </g>
                    <g transform="matrix(1,0,0,1,-2.8282,4.13748)">
                        <text x="86.863px" y="390.134px" style="font-family:'Times-Italic', 'Times';font-style:italic;font-size:12px;">19</text>
                    </g>
                </g>
                <g transform="matrix(1,0,0,1,20.434,-34.434)">
                    <g transform="matrix(1.58797,0,0,1.58797,-43.5868,-215.204)">
                        <circle cx="83.987" cy="381.254" r="6.434" style="fill:white;stroke:rgb(161,161,161);stroke-width:0.63px;"/>
                    </g>
                    <g transform="matrix(1,0,0,1,-2.8282,4.13748)">
                        <text x="86.863px" y="390.134px" style="font-family:'Times-Italic', 'Times';font-style:italic;font-size:12px;">21</text>
                    </g>
                </g>
                <g>
                    <g transform="matrix(1.58797,0,0,1.58797,-3.5868,-215.204)">
                        <circle cx="83.987" cy="381.254" r="6.434" style="fill:white;stroke:rgb(161,161,161);stroke-width:0.63px;"/>
                    </g>
                    <g transform="matrix(1,0,0,1,37.1718,3.8658)">
                        <text x="86.863px" y="390.134px" style="font-family:'Times-Italic', 'Times';font-style:italic;font-size:12px;">20</text>
                    </g>
                </g>
                <path d="M100,390L119.566,390" style="fill:none;stroke:rgb(161,161,161);stroke-width:1px;"/>
                <g transform="matrix(1.1,0,0,1,-11.5,-1)">
                    <path d="M95,381L105,365" style="fill:none;stroke:rgb(161,161,161);stroke-width:0.95px;"/>
                </g>
                <g transform="matrix(1.11111,0,0,0.941176,-13,21.4118)">
                    <path d="M117,364L126,381" style="fill:none;stroke:rgb(161,161,161);stroke-width:0.97px;"/>
                </g>
            </g>
            <g transform="matrix(1,0,0,1,80.434,-5.68434e-14)">
                <g>
                    <g transform="matrix(1.58797,0,0,1.58797,-43.5868,-215.204)">
                        <circle cx="83.987" cy="381.254" r="6.434" style="fill:white;stroke:rgb(161,161,161);stroke-width:0.63px;"/>
                    </g>
                    <g transform="matrix(1,0,0,1,-2.8282,4.13748)">
                        <text x="86.863px" y="390.134px" style="font-family:'Times-Italic', 'Times';font-style:italic;font-size:12px;">22</text>
                    </g>
                </g>
                <g transform="matrix(1,0,0,1,20.434,-34.434)">
                    <g transform="matrix(1.58797,0,0,1.58797,-43.5868,-215.204)">
                        <circle cx="83.987" cy="381.254" r="6.434" style="fill:white;stroke:rgb(161,161,161);stroke-width:0.63px;"/>
                    </g>
                    <g transform="matrix(1,0,0,1,-2.8282,4.13748)">
                        <text x="86.863px" y="390.134px" style="font-family:'Times-Italic', 'Times';font-style:italic;font-size:12px;">24</text>
                    </g>
                </g>
                <g>
                    <g transform="matrix(1.58797,0,0,1.58797,-3.5868,-215.204)">
                        <circle cx="83.987" cy="381.254" r="6.434" style="fill:white;stroke:rgb(161,161,161);stroke-width:0.63px;"/>
                    </g>
                    <g transform="matrix(1,0,0,1,37.1718,3.8658)">
                        <text x="86.863px" y="390.134px" style="font-family:'Times-Italic', 'Times';font-style:italic;font-size:12px;">23</text>
                    </g>
                </g>
                <path d="M100,390L119.566,390" style="fill:none;stroke:rgb(161,161,161);stroke-width:1px;"/>
                <g transform="matrix(1.1,0,0,1,-11.5,-1)">
                    <path d="M95,381L105,365" style="fill:none;stroke:rgb(161,161,161);stroke-width:0.95px;"/>
                </g>
                <g transform="matrix(1.11111,0,0,0.941176,-13,21.4118)">
                    <path d="M117,364L126,381" style="fill:none;stroke:rgb(161,161,161);stroke-width:0.97px;"/>
                </g>
            </g>
            <g transform="matrix(1,0,0,1,40.434,-65.434)">
                <g>
                    <g transform="matrix(1.58797,0,0,1.58797,-43.5868,-215.204)">
                        <circle cx="83.987" cy="381.254" r="6.434" style="fill:white;stroke:rgb(161,161,161);stroke-width:0.63px;"/>
                    </g>
                    <g transform="matrix(1,0,0,1,-2.8282,4.13748)">
                        <text x="86.863px" y="390.134px" style="font-family:'Times-Italic', 'Times';font-style:italic;font-size:12px;">25</text>
                    </g>
                </g>
                <g transform="matrix(1,0,0,1,20.434,-34.434)">
                    <g transform="matrix(1.58797,0,0,1.58797,-43.5868,-215.204)">
                        <circle cx="83.987" cy="381.254" r="6.434" style="fill:white;stroke:rgb(161,161,161);stroke-width:0.63px;"/>
                    </g>
                    <g transform="matrix(1,0,0,1,-2.8282,4.13748)">
                        <text x="86.863px" y="390.134px" style="font-family:'Times-Italic', 'Times';font-style:italic;font-size:12px;">27</text>
                    </g>
                </g>
                <g>
                    <g transform="matrix(1.58797,0,0,1.58797,-3.5868,-215.204)">
                        <circle cx="83.987" cy="381.254" r="6.434" style="fill:white;stroke:rgb(161,161,161);stroke-width:0.63px;"/>
                    </g>
                    <g transform="matrix(1,0,0,1,37.1718,3.8658)">
                        <text x="86.863px" y="390.134px" style="font-family:'Times-Italic', 'Times';font-style:italic;font-size:12px;">26</text>
                    </g>
                </g>
                <path d="M100,390L119.566,390" style="fill:none;stroke:rgb(161,161,161);stroke-width:1px;"/>
                <g transform="matrix(1.1,0,0,1,-11.5,-1)">
                    <path d="M95,381L105,365" style="fill:none;stroke:rgb(161,161,161);stroke-width:0.95px;"/>
                </g>
                <g transform="matrix(1.11111,0,0,0.941176,-13,21.4118)">
                    <path d="M117,364L126,381" style="fill:none;stroke:rgb(161,161,161);stroke-width:0.97px;"/>
                </g>
            </g>
        </g>
    </g>
</svg>
