<svg clip-rule="evenodd" fill-rule="evenodd" viewBox="0 0 1185 1184" xmlns="http://www.w3.org/2000/svg">
  <clipPath id="a">
    <path clip-rule="nonzero" d="M1011.85 370.672c-51.85 34.426-34.186 3.972-97.268 22.98-63.086 19.008 15.055 64.93-53.965 57.059-69.023-7.871-8.75 79.652-72.515 55.187-63.766-24.464-26.219-16.964-77.055-53.07-50.836-36.102 91.195-55.144 62.265-101.836-30.656-49.473-47.23-11.906-79.742-48.367 0 0-23.75 1.039 10.856-44.82 34.601-45.864-10.672-42.786 42.777-76.016s-4.055 1.805 60.473-17.273c64.527-19.079 44.57-27.973 115.136-23.536 70.567 4.434 30.09 23.989 85.218 28.614 65.63 5.511 24.44 10.586 58.55 21.879 0 0 18.28 18.035 17.1 46.632-2.8 56.45 7.06 34.067-29.18 81.954-36.24 47.886 9.2 16.187-42.65 50.613z"/>
  </clipPath>
  <clipPath id="b">
    <path clip-rule="nonzero" d="M1011.85 370.672c-51.85 34.426-34.186 3.972-97.268 22.98-63.086 19.008-25.867 47.946-94.887 40.074-69.019-7.871 32.168 96.637-31.597 72.172-63.766-24.464-37.024 3.11-87.86-32.996-50.84-36.105-2.82-30.746-21.121-82.535s-16.793.227-20.293-53.769c-3.5-53.997-12.941-31.391 21.664-77.25 34.602-45.86 13.262-44.329 66.711-77.559s-4.051 1.805 60.477-17.273c64.527-19.079 44.566-27.973 115.136-23.536 70.567 4.434 30.086 23.989 85.218 28.614 65.63 5.511 24.44 10.586 58.55 21.879 0 0 18.28 18.035 17.1 46.632-2.8 56.45 7.06 34.067-29.18 81.954-36.24 47.886 9.19 16.187-42.65 50.613z"/>
  </clipPath>
  <path d="M465.797 263.723c-51.848-43.76-34.184-5.049-97.266-29.211-63.086-24.162-25.867-60.946-94.886-50.94-69.02 10.005-28.977-.7-92.743 30.398-63.765 31.098-37.023-3.952-87.863 41.943-50.836 45.895-2.816 39.083-21.117 104.914-18.301 65.832-16.793-.288-20.293 68.349s-12.941 39.902 21.664 98.196c34.602 58.294 13.262 56.348 66.711 98.588 53.449 42.241-4.051-2.294 60.476 21.958 64.524 24.251 44.567 35.557 115.137 29.916 70.567-5.636 22.442-11.058 85.219-36.371 62.777-25.319 9.148 18.466 58.551-27.812 49.402-46.277 7.043-53.07 37.093-114.805 30.055-61.735 43.958 5.139 41.149-66.611-2.805-71.755 7.059-43.304-29.184-104.175-36.238-60.871 9.2-20.576-42.648-64.337z" fill="#f5f5f5" fill-rule="nonzero" stroke="#ba1518" stroke-dasharray="9.26 9.26" stroke-width="3.09" transform="matrix(1 0 0 -.7867 0 674.226)"/>
  <path d="M183.293 333.766c92.426-83.578 206.523-102.79 296.957-172.286" fill="none" stroke="#000" stroke-width="6.4"/>
  <path d="M322.758 324.872c-93.598-63.087 68.937-98.97 159.875-159.923" fill="none" stroke="#000" stroke-width="3.2"/>
  <path d="M324.78 284.234c-60.757-59.832-141.092-71.957-206.69-126.437" fill="none" stroke="#000" stroke-width="6.4"/>
  <path d="M280.823 313.652c47.79-21.324-111.229-114.16-165.593-152.183" fill="none" stroke="#000" stroke-width="3.2"/>
  <path d="M277.45 315.156l3.753-5.18 2.605 5.848z" stroke="#000" stroke-linejoin="round" stroke-width=".799"/>
  <path d="M184.836 331.45c61.855-31.884 90.016-78.134 138.234-46.684" fill="none" stroke="#000" stroke-width="6.4"/>
  <path d="M394.503 355.762c-58.652-1.508-72.898-48.685-117.253-38.895" fill="none" stroke="#000" stroke-width="9.6"/>
  <path d="M266.433 319.258l14.149-12.957 4.137 18.75z" stroke="#000" stroke-linejoin="round" stroke-width="2.396"/>
  <ellipse cx="181.075" cy="334.03" fill="#fff" rx="83.392" ry="83.391" stroke="#ba1518" stroke-linejoin="round" stroke-width="2.74" transform="rotate(90 181.075 334.03)"/>
  <circle cx="386.35" cy="353.682" fill="#fff" r="83.393" stroke="#ba1518" stroke-linejoin="round" stroke-width="2.74" transform="rotate(90 386.35 353.681)"/>
  <path d="M479.242 167.594c27.813-18.073 48.508-13.77 66.504-4.582" fill="none" stroke="#000" stroke-width="2.4"/>
  <path d="M548.214 164.27l-4.788.25 2.18-4.278z" stroke="#000" stroke-linejoin="round" stroke-width=".595"/>
  <path d="M478.452 160.676c30.267-20.969 22.391-44.578 18.22-51.824" fill="none" stroke="#000" stroke-width="3.2"/>
  <path d="M494.832 105.653l5.534 3.199-5.546 3.195z" stroke="#000" stroke-linejoin="round" stroke-width=".796"/>
  <path d="M477.844 163.113c33.817-22.031 33.941-33.304 35.45-44.66" fill="none" stroke="#000" stroke-width="2"/>
  <path d="M513.593 116.164l1.523 3.695-3.965-.527z" stroke="#000" stroke-linejoin="round" stroke-width=".504"/>
  <path d="M480.797 164.13c23.527-15.65 32.726-20.189 45.715-21.277" fill="none" stroke="#000" stroke-width="3.2"/>
  <path d="M530.195 142.543l-5.25 3.652-.535-6.379z" stroke="#000" stroke-linejoin="round" stroke-width=".803"/>
  <path d="M125.734 161.238c-26.39-20.09-29.312-41.027-26.734-61.066" fill="none" stroke="#000" stroke-linecap="round" stroke-width="2.4"/>
  <path d="M119.489 164.315c-29.946-21.424-49.516-6.053-54.93.317" fill="none" stroke="#000" stroke-linecap="round" stroke-width="3.2"/>
  <path d="M121.988 164.066c-32.14-24.41-42.797-20.726-53.996-18.316" fill="none" stroke="#000" stroke-linecap="round" stroke-width="2"/>
  <path d="M121.95 160.941c-22.665-16.875-30.04-24.003-35.446-35.868" fill="none" stroke="#000" stroke-linecap="round" stroke-width="3.2"/>
  <path d="M215.441 191.795c-.156.76-.464 1.94-.464 2.18 0 .94.711 1.38 1.488 1.38.597 0 1.531-.4 1.887-1.43.046-.11.668-2.48.957-3.77l1.132-4.58c.313-1.13.602-2.243.868-3.419.199-.867.597-2.355.664-2.555.757-1.578 3.468-6.222 8.312-6.222 2.289 0 2.754 1.89 2.754 3.578 0 1.266-.355 2.687-.777 4.223l-1.422 5.915-1.024 3.88c-.199 1.03-.664 2.76-.664 3 0 .94.711 1.38 1.489 1.38 1.578 0 1.886-1.27 2.289-2.91.711-2.85 2.597-10.289 3.062-12.289.156-.644 2.848-6.777 8.422-6.777 2.18 0 2.734 1.734 2.734 3.578 0 2.91-2.132 8.708-3.156 11.418-.445 1.22-.668 1.78-.668 2.8 0 2.4 1.801 4.18 4.199 4.18 4.778 0 6.668-7.44 6.668-7.84 0-.51-.445-.51-.601-.51-.512 0-.512.15-.778.91-.753 2.71-2.398 6.33-5.199 6.33-.867 0-1.222-.51-1.222-1.69 0-1.27.468-2.49.914-3.62.976-2.65 3.109-8.314 3.109-11.224 0-3.309-2.023-5.442-5.867-5.442-3.82 0-6.418 2.243-8.309 4.93-.043-.664-.199-2.398-1.621-3.621-1.265-1.066-2.91-1.309-4.176-1.309-4.601 0-7.089 3.243-7.957 4.422-.265-2.91-2.398-4.422-4.687-4.422-2.356 0-3.332 1.977-3.777 2.887-.934 1.801-1.579 4.801-1.579 4.957 0 .508.512.508.602.508.512 0 .555-.043.867-1.176.867-3.621 1.887-6.066 3.731-6.066.8 0 1.578.402 1.578 2.355 0 1.067-.157 1.621-.821 4.266zm44.778 0c-.157.76-.465 1.94-.465 2.18 0 .94.711 1.38 1.488 1.38.598 0 1.531-.4 1.887-1.43.047-.11.668-2.48.957-3.77l1.133-4.58a74.2 74.2 0 00.867-3.419 57.29 57.29 0 01.664-2.555c.758-1.578 3.469-6.222 8.312-6.222 2.286 0 2.754 1.89 2.754 3.578 0 3.156-2.511 9.688-3.312 11.858-.465 1.19-.508 1.81-.508 2.36 0 2.4 1.777 4.18 4.176 4.18 4.801 0 6.664-7.44 6.664-7.84 0-.51-.441-.51-.598-.51-.511 0-.511.15-.777.91-1 3.46-2.691 6.33-5.199 6.33-.867 0-1.223-.51-1.223-1.69 0-1.27.465-2.49.934-3.62.953-2.71 3.109-8.314 3.109-11.224 0-3.422-2.199-5.442-5.867-5.442-4.598 0-7.086 3.243-7.953 4.422-.266-2.843-2.356-4.422-4.688-4.422-2.355 0-3.332 1.977-3.844 2.887-.8 1.735-1.511 4.754-1.511 4.957 0 .508.511.508.601.508.512 0 .555-.043.868-1.176.867-3.621 1.886-6.066 3.73-6.066 1.023 0 1.578.668 1.578 2.355 0 1.067-.156 1.621-.82 4.266z" fill-rule="nonzero"/>
  <ellipse cx="301.945" cy="991.098" rx="2.7" ry="2.711" transform="matrix(0 -1 -1 0 1293.04 494.043)"/>
  <ellipse cx="324.578" cy="991.098" rx="2.7" ry="2.711" transform="matrix(0 -1 -1 0 1315.68 516.676)"/>
  <ellipse cx="347.262" cy="991.098" rx="2.7" ry="2.711" transform="matrix(0 -1 -1 0 1338.36 539.36)"/>
  <path d="M386.766 180.867c0-5.289-3.555-8.598-8.153-8.598-6.82 0-13.664 7.243-13.664 14.466 0 5.06 3.422 8.62 8.153 8.62 6.8 0 13.664-7.02 13.664-14.488zm-13.598 13.378c-2.199 0-4.441-1.58-4.441-5.56 0-2.51 1.332-8.017 2.953-10.619 2.554-3.91 5.465-4.687 6.886-4.687 2.957 0 4.489 2.445 4.489 5.512 0 1.976-1.02 7.334-2.953 10.664-1.801 2.95-4.602 4.69-6.934 4.69zM457.461 73.53c0-.14-.109-.35-.359-.35-.391 0-1.829 1.43-2.438 2.46-.781-1.93-2.187-2.5-3.328-2.5-4.234 0-8.641 5.3-8.641 10.5 0 3.52 2.11 5.74 4.735 5.74 1.531 0 2.937-.86 4.234-2.14-.328 1.25-1.516 6.09-1.625 6.4-.281 1.02-.562 1.16-2.578 1.19-.469 0-.828 0-.828.72 0 .03 0 .39.469.39 1.156 0 2.406-.11 3.593-.11 1.219 0 2.5.11 3.688.11.172 0 .64 0 .64-.72 0-.39-.359-.39-.921-.39-1.735 0-1.735-.25-1.735-.58 0-.25.078-.45.156-.78zm-9.922 15.07c-2.156 0-2.297-2.77-2.297-3.38 0-1.72 1.031-5.62 1.641-7.14 1.109-2.65 2.984-4.15 4.453-4.15 2.328 0 2.828 2.9 2.828 3.15 0 .22-1.969 8.06-2.078 8.22-.531 1-2.547 3.3-4.547 3.3zm20.625 3.73c-.125.5-.344 1.36-.344 1.49 0 .55.453.8.86.8.453 0 .843-.33.968-.55.125-.24.329-1.03.454-1.56.125-.47.406-1.63.562-2.27.141-.55.297-1.09.422-1.67.281-1.08.281-1.14.781-1.91.797-1.23 2.047-2.67 4.016-2.67 1.406 0 1.484 1.16 1.484 1.77 0 1.5-1.094 4.29-1.484 5.34-.281.7-.375.94-.375 1.36 0 1.33 1.094 2.16 2.375 2.16 2.515 0 3.625-3.47 3.625-3.85 0-.33-.328-.33-.406-.33-.344 0-.375.16-.469.44-.578 2-1.672 3.03-2.672 3.03-.531 0-.625-.34-.625-.87 0-.58.125-.91.578-2.03.297-.78 1.328-3.44 1.328-4.85 0-.4 0-1.47-.922-2.18-.437-.33-1.156-.69-2.343-.69-2.25 0-3.641 1.48-4.438 2.54-.203-2.14-1.984-2.54-3.266-2.54-2.093 0-3.5 1.28-4.25 2.3-.171-1.74-1.656-2.3-2.687-2.3-1.078 0-1.656.78-1.984 1.36-.547.94-.891 2.36-.891 2.48 0 .33.344.33.422.33.344 0 .375-.08.547-.75.375-1.48.859-2.72 1.843-2.72.641 0 .829.56.829 1.24 0 .48-.235 1.4-.407 2.07-.172.69-.422 1.72-.562 2.27l-.797 3.22c-.094.33-.25.95-.25 1.03 0 .55.453.8.859.8.453 0 .844-.33.969-.55.125-.24.328-1.03.453-1.56.125-.47.406-1.63.563-2.27.14-.55.297-1.09.422-1.67.281-1.03.328-1.24 1.046-2.27.704-1 1.891-2.31 3.766-2.31 1.469 0 1.484 1.28 1.484 1.77 0 .62-.078.95-.421 2.36zm17.621.46c-.094.33-.25.95-.25 1.03 0 .55.453.8.86.8.453 0 .843-.33.968-.55.125-.24.328-1.03.453-1.56.125-.47.407-1.63.563-2.27.141-.55.297-1.09.422-1.67.281-1.03.328-1.24 1.047-2.27.703-1 1.89-2.31 3.765-2.31 1.469 0 1.485 1.28 1.485 1.77 0 1.5-1.078 4.29-1.485 5.34-.265.7-.375.94-.375 1.36 0 1.33 1.11 2.16 2.391 2.16 2.516 0 3.609-3.47 3.609-3.85 0-.33-.312-.33-.39-.33-.36 0-.375.16-.485.44-.578 2-1.656 3.03-2.656 3.03-.531 0-.625-.34-.625-.87 0-.58.125-.91.578-2.03.297-.78 1.328-3.44 1.328-4.85 0-2.43-1.937-2.87-3.265-2.87-2.094 0-3.5 1.28-4.25 2.3-.172-1.74-1.657-2.3-2.688-2.3-1.078 0-1.656.78-1.984 1.36-.547.94-.891 2.36-.891 2.48 0 .33.344.33.422.33.344 0 .375-.08.547-.75.375-1.48.859-2.72 1.844-2.72.64 0 .828.56.828 1.24 0 .48-.235 1.4-.406 2.07-.172.69-.422 1.72-.563 2.27zm20.385.14c.005-.891-.752-1.455-1.432-1.454-.83 0-1.454.688-1.458 1.438a1.45 1.45 0 001.442 1.453c.83 0 1.453-.672 1.448-1.437zm8.528 0c.005-.89-.752-1.454-1.432-1.454-.83 0-1.454.689-1.458 1.438a1.451 1.451 0 001.442 1.454c.82 0 1.454-.673 1.448-1.438zm8.526 0c.005-.891-.752-1.454-1.432-1.454-.83 0-1.454.688-1.458 1.438a1.45 1.45 0 001.442 1.453c.83 0 1.454-.672 1.448-1.437zm16.155-5.24c0-2.79-2.078-4.4-4.547-4.4-3.703 0-7.219 3.5-7.219 6.94 0 2.51 1.828 4.39 4.563 4.39 3.594 0 7.203-3.32 7.203-6.93zm-7.172 6.22c-1.266 0-2.516-.79-2.516-2.78 0-1.03.485-3.5 1.454-4.92 1.078-1.56 2.546-2.22 3.671-2.22 1.36 0 2.516.94 2.516 2.8 0 .59-.312 3.08-1.406 4.84-.969 1.49-2.469 2.28-3.719 2.28zm31.316-1.77c-.578-5.55-5.484-9.36-10.812-9.36-6.422 0-10.859 5.42-10.859 10.67 0 .25 0 .83.625.83.578 0 .593-.53.593-.78.157-5.33 4.375-9.47 9.641-9.47 4.797 0 8.891 3.31 9.547 7.95a9.45 9.45 0 00-1.703-1.5c-1.125-.78-2.11-1.08-2.219-1.08-.297 0-.375.25-.375.46 0 .33.109.34.531.51 2.656 1.07 3.688 2.96 4.141 3.78.047.13.187.22.328.22.203 0 .25-.12.422-.4 1.39-2.57 3.453-3.36 4.172-3.64.281-.1.375-.14.375-.5 0-.1-.016-.43-.344-.43-.234 0-2.438.79-4.063 2.74zM187.375 318.684c0-1.032-.723-1.848-1.898-1.848-1.379 0-2.77 1.324-2.77 2.715 0 .965.723 1.847 1.953 1.847 1.176 0 2.715-1.179 2.715-2.714zm-3.891 19.23c.614-1.484.614-1.578 1.121-2.969.415-1.015.668-1.738.668-2.703 0-2.312-1.644-4.199-4.199-4.199-4.812 0-6.75 7.422-6.75 7.879 0 .508.508.508.614.508.507 0 .562-.094.816-.911 1.379-4.812 3.422-6.351 5.176-6.351.402 0 1.269 0 1.269 1.644 0 1.071-.359 2.141-.562 2.649-.414 1.336-2.715 7.273-3.532 9.469-.507 1.336-1.175 3.019-1.175 4.089 0 2.407 1.738 4.2 4.199 4.2 4.801 0 6.699-7.422 6.699-7.875 0-.508-.453-.508-.613-.508-.508 0-.508.144-.762.906-.922 3.238-2.609 6.356-5.23 6.356-.868 0-1.215-.508-1.215-1.688 0-1.281.304-2.004 1.484-5.121zm203.149-1.703c0-.055 0-.563-.668-.563-1.18 0-4.91.403-6.235.508-.414.055-.976.106-.976 1.031 0 .602.457.602 1.23.602 2.45 0 2.555.359 2.555.867l-.144 1.031-7.426 29.473c-.211.711-.211.816-.211 1.125 0 1.176 1.027 1.43 1.484 1.43.668 0 1.442-.453 1.738-1.071.266-.464 2.567-9.933 2.875-11.207 1.739.149 5.938.977 5.938 4.348 0 .359 0 .563-.16 1.07-.11.614-.203 1.231-.203 1.793 0 3.02 2.047 5.067 4.711 5.067 1.535 0 2.914-.817 4.035-2.715 1.285-2.246 1.847-5.055 1.847-5.16 0-.508-.468-.508-.617-.508-.508 0-.558.199-.718.906-1.02 3.746-2.196 6.356-4.458 6.356-.96 0-1.628-.563-1.628-2.41 0-.868.199-2.043.414-2.86.199-.871.199-1.086.199-1.594 0-3.316-3.223-4.8-7.567-5.375 1.579-.91 3.223-2.554 4.399-3.785 2.445-2.699 4.801-4.906 7.316-4.906.305 0 .36 0 .453.051.614.109.668.109 1.082.418.094.039.094.093.204.199-2.461.148-2.918 2.152-2.918 2.754 0 .828.562 1.793 1.941 1.793 1.336 0 2.82-1.125 2.82-3.117 0-1.536-1.175-3.223-3.488-3.223-1.434 0-3.785.414-7.465 4.508-1.738 1.937-3.73 3.984-5.683 4.746zm-149.68-17.637h4.063c-1.188 5.313-1.516 6.844-1.516 9.25 0 .547 0 1.5.281 2.719.36 1.578.766 1.797 1.297 1.797.719 0 1.469-.641 1.469-1.36 0-.218 0-.281-.219-.781-1.031-2.594-1.031-4.922-1.031-5.922 0-1.906.25-3.843.641-5.703h4.093c.469 0 1.75 0 1.75-1.219 0-.859-.75-.859-1.437-.859h-12c-.797 0-2.156 0-3.735 1.688-1.25 1.39-2.187 3.046-2.187 3.218 0 .047 0 .36.437.36.282 0 .344-.141.563-.422 1.766-2.766 3.844-2.766 4.562-2.766h2.047c-1.156 4.344-3.093 8.672-4.593 11.938-.297.547-.297.609-.297.859 0 .688.578.969 1.047.969 1.078 0 1.359-1 1.796-2.328.5-1.641.5-1.719.969-3.516zm19.086 3.07c0-.406-.312-.953-1.016-.953-.671 0-1.406.641-1.406 1.375 0 .422.328.953 1.016.953.719 0 1.406-.703 1.406-1.375zm-5.125 12.75c-.109.329-.234.625-.234 1.047 0 1.188 1.015 2.141 2.39 2.141 2.516 0 3.61-3.469 3.61-3.844 0-.328-.313-.328-.391-.328-.359 0-.375.156-.484.438-.578 2-1.672 3.031-2.657 3.031-.5 0-.625-.328-.625-.875 0-.578.172-1.063.391-1.61.25-.671.531-1.359.813-2.015.218-.594 1.125-2.875 1.234-3.188.062-.25.141-.547.141-.797 0-1.187-1-2.14-2.375-2.14-2.5 0-3.641 3.422-3.641 3.844 0 .328.344.328.422.328.344 0 .375-.125.453-.407.656-2.156 1.75-3.062 2.687-3.062.391 0 .625.203.625.891 0 .578-.156.953-.781 2.5zm90.934-40.773h4.062c-1.187 5.313-1.515 6.844-1.515 9.25 0 .547 0 1.5.281 2.719.359 1.578.765 1.797 1.297 1.797.718 0 1.468-.641 1.468-1.36 0-.218 0-.281-.218-.781-1.032-2.594-1.032-4.922-1.032-5.922 0-1.906.25-3.844.641-5.703h4.094c.469 0 1.75 0 1.75-1.219 0-.859-.75-.859-1.438-.859h-12c-.797 0-2.156 0-3.734 1.687-1.25 1.391-2.188 3.047-2.188 3.219 0 .047 0 .36.438.36.281 0 .344-.141.562-.422 1.766-2.766 3.844-2.766 4.563-2.766h2.047c-1.156 4.344-3.094 8.672-4.594 11.938-.297.546-.297.609-.297.859 0 .687.578.969 1.047.969 1.078 0 1.359-1 1.797-2.328.5-1.641.5-1.719.969-3.516zm18.804 2.082c.032-.047.094-.375.094-.406 0-.125-.094-.344-.391-.344-.5 0-2.593.203-3.218.25-.203.016-.547.047-.547.578 0 .344.344.344.64.344 1.219 0 1.219.187 1.219.375 0 .187-.062.328-.109.562l-3.531 14.204c-.125.453-.125.5-.125.562a.81.81 0 00.843.797c.688 0 1-.5 1.157-1.047.046-.109 1.125-4.531 1.234-4.875 1.781.172 3.219.75 3.219 2.063 0 .125 0 .25-.063.5-.094.375-.094.5-.094.781 0 1.781 1.454 2.578 2.657 2.578 2.437 0 3.187-3.813 3.187-3.844 0-.328-.328-.328-.39-.328-.36 0-.391.125-.516.609-.297 1.079-.969 2.86-2.203 2.86-.672 0-.875-.625-.875-1.297 0-.438 0-.484.14-1.141.032-.078.125-.5.125-.781 0-2.234-3-2.578-4.062-2.656.734-.453 1.656-1.281 2.094-1.656 1.265-1.204 2.531-2.391 3.937-2.391.297 0 .625.078.828.328-1.078.172-1.312 1.031-1.312 1.406 0 .563.437.938 1.015.938.672 0 1.422-.563 1.422-1.61 0-.828-.593-1.765-1.937-1.765-1.422 0-2.735 1.031-4.016 2.219-1.047 1-1.875 1.781-2.906 2.203z" fill-rule="nonzero"/>
  <path d="M320.355 282.64l-8.984-8.538" fill="none" stroke="#000" stroke-width="9.6"/>
  <path d="M328.387 290.27l-18.653-4.481 13.227-13.917z" stroke="#000" stroke-linejoin="round" stroke-width="2.4"/>
  <ellipse cx="788.274" cy="334.029" fill="none" rx="83.392" ry="83.39" stroke="#969696" stroke-linejoin="round" stroke-width="2.74" transform="rotate(90 788.272 334.028)"/>
  <circle cx="993.549" cy="353.682" fill="none" r="83.393" stroke="#969696" stroke-linejoin="round" stroke-width="2.74" transform="rotate(90 993.548 353.682)"/>
  <path d="M1011.85 370.672c-51.85 34.426-34.186 3.973-97.268 22.98-63.086 19.008 7.496 24.684-53.965 57.059-31.961 16.836-11.84 58.035-75.605 33.566-63.766-24.465-23.125 4.657-73.965-31.449-50.836-36.101 91.195-55.144 62.265-101.836-30.656-49.472-47.23-11.906-79.742-48.367 0 0-23.75 1.039 10.856-44.82 34.601-45.864-10.672-42.785 42.777-76.016 53.449-33.23-4.051 1.805 60.473-17.273 64.527-19.078 44.57-27.973 115.136-23.536 70.567 4.434 30.09 23.989 85.218 28.614 65.63 5.511 24.44 10.586 58.56 21.879 0 0 18.27 18.035 17.09 46.632-2.8 56.45 7.06 34.067-29.18 81.954-36.24 47.886 9.2 16.187-42.65 50.613z" fill="#f5f5f5" fill-rule="nonzero" stroke="#ba1518" stroke-dasharray="8.22 8.22" stroke-width="2.74"/>
  <path d="M790.492 333.766c92.422-83.578 206.52-102.789 296.958-172.287" fill="none" stroke="#000" stroke-width="6.4"/>
  <path d="M929.958 324.87c-93.602-63.085 68.937-98.971 159.876-159.923" fill="none" stroke="#000" stroke-width="3.2"/>
  <path d="M931.98 284.235c-60.756-59.833-141.097-71.957-206.692-126.437" fill="none" stroke="#000" stroke-width="5.6"/>
  <path d="M888.023 313.363c48.567-14.667-111.23-113.87-165.59-151.894" fill="none" stroke="#000" stroke-width="3.2"/>
  <path d="M792.035 331.45c61.856-31.883 90.012-78.134 138.231-46.684" fill="none" stroke="#000" stroke-width="6.4"/>
  <g clip-path="url(#a)">
    <circle cx="788.274" cy="334.027" fill="#fff" r="83.39" stroke="#ba1518" stroke-linejoin="round" stroke-width="2.74" transform="rotate(90 788.273 334.027)"/>
  </g>
  <path d="M1001.695 355.763c-58.648-1.508-72.898-48.684-117.25-38.895" fill="none" stroke="#000" stroke-width="9.6"/>
  <path d="M1086.443 167.594c27.803-18.074 48.498-13.77 66.502-4.582" fill="none" stroke="#000" stroke-width="2.4"/>
  <path d="M1155.41 164.27l-4.788.25 2.183-4.278z" stroke="#000" stroke-linejoin="round" stroke-width=".595"/>
  <path d="M1085.648 160.671c30.266-20.967 22.395-44.575 18.222-51.82" fill="none" stroke="#000" stroke-width="3.2"/>
  <path d="M1102.025 105.653l5.535 3.2-5.547 3.195z" stroke="#000" stroke-linejoin="round" stroke-width=".796"/>
  <path d="M1085.037 163.116c33.817-22.03 33.943-33.306 35.45-44.66" fill="none" stroke="#000" stroke-width="2"/>
  <path d="M1120.795 116.163l1.524 3.695-3.96-.527z" stroke="#000" stroke-linejoin="round" stroke-width=".504"/>
  <path d="M1087.994 164.129c23.524-15.647 32.728-20.187 45.721-21.278" fill="none" stroke="#000" stroke-width="3.2"/>
  <path d="M1137.394 142.543l-5.253 3.652-.534-6.379z" stroke="#000" stroke-linejoin="round" stroke-width=".803"/>
  <path d="M732.93 161.237c-26.386-20.09-29.313-41.027-26.734-61.066" fill="none" stroke="#000" stroke-linecap="round" stroke-width="2.4"/>
  <path d="M726.691 164.316c-29.946-21.424-49.517-6.053-54.934.317" fill="none" stroke="#000" stroke-linecap="round" stroke-width="3.2"/>
  <path d="M729.186 164.067c-32.142-24.41-42.797-20.727-53.998-18.316" fill="none" stroke="#000" stroke-linecap="round" stroke-width="2"/>
  <path d="M729.148 160.944c-22.664-16.878-30.043-24.006-35.445-35.87" fill="none" stroke="#000" stroke-linecap="round" stroke-width="3.2"/>
  <path d="M822.641 191.795c-.157.76-.469 1.94-.469 2.18 0 .94.711 1.38 1.488 1.38.602 0 1.535-.4 1.891-1.43.043-.11.668-2.48.957-3.77l1.133-4.58c.308-1.13.597-2.243.863-3.419.203-.867.601-2.355.668-2.555.754-1.578 3.465-6.222 8.308-6.222 2.29 0 2.758 1.89 2.758 3.578 0 1.266-.355 2.687-.777 4.223l-1.426 5.915-1.019 3.88c-.2 1.03-.668 2.76-.668 3 0 .94.711 1.38 1.488 1.38 1.578 0 1.891-1.27 2.289-2.91.711-2.85 2.602-10.289 3.066-12.289.157-.644 2.844-6.777 8.422-6.777 2.176 0 2.731 1.734 2.731 3.578 0 2.91-2.133 8.708-3.153 11.418-.445 1.22-.668 1.78-.668 2.8 0 2.4 1.801 4.18 4.2 4.18 4.777 0 6.664-7.44 6.664-7.84 0-.51-.442-.51-.598-.51-.512 0-.512.15-.777.91-.758 2.71-2.403 6.33-5.2 6.33-.867 0-1.222-.51-1.222-1.69 0-1.27.465-2.49.91-3.62.977-2.65 3.109-8.314 3.109-11.224 0-3.309-2.019-5.442-5.863-5.442-3.82 0-6.422 2.243-8.308 4.93-.047-.664-.204-2.398-1.626-3.621-1.265-1.066-2.91-1.309-4.175-1.309-4.598 0-7.086 3.243-7.953 4.422-.266-2.91-2.399-4.422-4.688-4.422-2.355 0-3.332 1.977-3.777 2.887-.934 1.801-1.578 4.801-1.578 4.957 0 .508.511.508.601.508.508 0 .555-.043.863-1.176.868-3.621 1.891-6.066 3.735-6.066.801 0 1.578.402 1.578 2.355 0 1.067-.156 1.621-.824 4.266zm44.777 0c-.156.76-.469 1.94-.469 2.18 0 .94.711 1.38 1.489 1.38.601 0 1.535-.4 1.89-1.43.043-.11.664-2.48.953-3.77l1.137-4.58c.309-1.13.598-2.243.863-3.419.203-.867.602-2.355.668-2.555.754-1.578 3.465-6.222 8.309-6.222 2.289 0 2.758 1.89 2.758 3.578 0 3.156-2.512 9.688-3.313 11.858-.465 1.19-.512 1.81-.512 2.36 0 2.4 1.778 4.18 4.18 4.18 4.797 0 6.664-7.44 6.664-7.84 0-.51-.445-.51-.601-.51-.512 0-.512.15-.778.91-1 3.46-2.687 6.33-5.199 6.33-.867 0-1.223-.51-1.223-1.69 0-1.27.469-2.49.934-3.62.957-2.71 3.113-8.314 3.113-11.224 0-3.422-2.199-5.442-5.867-5.442-4.598 0-7.086 3.243-7.953 4.422-.266-2.843-2.356-4.422-4.688-4.422-2.355 0-3.335 1.977-3.843 2.887-.801 1.735-1.512 4.754-1.512 4.957 0 .508.512.508.598.508.511 0 .558-.043.867-1.176.867-3.621 1.89-6.066 3.734-6.066 1.02 0 1.578.668 1.578 2.355 0 1.067-.156 1.621-.824 4.266z" fill-rule="nonzero"/>
  <ellipse cx="909.144" cy="991.098" rx="2.7" ry="2.71" transform="matrix(0 -1 -1 0 1900.24 1101.24)"/>
  <ellipse cx="931.777" cy="991.098" rx="2.7" ry="2.711" transform="matrix(0 -1 -1 0 1922.87 1123.87)"/>
  <ellipse cx="954.461" cy="991.098" rx="2.7" ry="2.711" transform="matrix(0 -1 -1 0 1945.56 1146.56)"/>
  <path d="M993.965 180.867c0-5.289-3.555-8.598-8.156-8.598-6.821 0-13.664 7.243-13.664 14.466 0 5.06 3.421 8.62 8.156 8.62 6.797 0 13.664-7.02 13.664-14.488zm-13.598 13.378c-2.199 0-4.445-1.58-4.445-5.56 0-2.51 1.336-8.017 2.957-10.619 2.555-3.91 5.465-4.687 6.887-4.687 2.953 0 4.488 2.445 4.488 5.512 0 1.976-1.024 7.334-2.957 10.664-1.797 2.95-4.598 4.69-6.93 4.69zM1058.48 78.17c0-.14-.1-.36-.36-.36-.39 0-1.82 1.43-2.43 2.46-.78-1.93-2.19-2.5-3.33-2.5-4.24 0-8.64 5.3-8.64 10.5 0 3.52 2.11 5.74 4.73 5.74 1.53 0 2.94-.86 4.24-2.14-.33 1.25-1.52 6.09-1.63 6.4-.28 1.02-.56 1.16-2.58 1.19-.46 0-.82 0-.82.72 0 .03 0 .39.46.39 1.16 0 2.41-.11 3.6-.11 1.22 0 2.5.11 3.69.11.17 0 .64 0 .64-.72 0-.39-.36-.39-.93-.39-1.73 0-1.73-.25-1.73-.57 0-.25.08-.46.16-.79zm-9.92 15.06c-2.15 0-2.29-2.77-2.29-3.38 0-1.71 1.03-5.62 1.64-7.14 1.11-2.65 2.98-4.15 4.45-4.15 2.33 0 2.83 2.9 2.83 3.15 0 .22-1.97 8.06-2.08 8.22-.53 1-2.55 3.3-4.55 3.3zm20.62 3.737c-.12.5-.34 1.36-.34 1.49 0 .54.45.79.86.79.45 0 .84-.33.97-.54.12-.24.33-1.04.45-1.57.13-.47.41-1.62.56-2.26.14-.55.3-1.1.43-1.67.28-1.08.28-1.14.78-1.91.79-1.23 2.04-2.67 4.01-2.67 1.41 0 1.49 1.15 1.49 1.76 0 1.5-1.1 4.3-1.49 5.35-.28.7-.37.93-.37 1.36 0 1.32 1.09 2.15 2.37 2.15 2.52 0 3.63-3.47 3.63-3.84 0-.33-.33-.33-.41-.33-.34 0-.37.16-.47.44-.58 2-1.67 3.03-2.67 3.03-.53 0-.62-.34-.62-.88 0-.57.12-.9.57-2.03.3-.78 1.33-3.43 1.33-4.84 0-.41 0-1.47-.92-2.19-.44-.33-1.16-.69-2.34-.69-2.25 0-3.64 1.49-4.44 2.55-.2-2.14-1.99-2.55-3.27-2.55-2.09 0-3.5 1.29-4.25 2.3-.17-1.73-1.65-2.3-2.68-2.3-1.08 0-1.66.79-1.99 1.36-.55.94-.89 2.36-.89 2.49 0 .33.34.33.42.33.35 0 .38-.08.55-.75.37-1.49.86-2.72 1.84-2.72.64 0 .83.56.83 1.23 0 .49-.23 1.41-.41 2.08-.17.69-.42 1.72-.56 2.27l-.79 3.21c-.1.33-.25.96-.25 1.04 0 .54.45.79.85.79.46 0 .85-.33.97-.54.13-.24.33-1.04.46-1.57.12-.47.4-1.62.56-2.26.14-.55.3-1.1.42-1.67.28-1.04.33-1.24 1.05-2.27.7-1 1.89-2.31 3.76-2.31 1.47 0 1.49 1.28 1.49 1.76 0 .63-.08.96-.42 2.36zm17.63.45c-.1.33-.25.96-.25 1.04 0 .54.45.79.85.79.46 0 .85-.33.97-.54.13-.24.33-1.04.46-1.57.12-.47.4-1.62.56-2.26.14-.55.29-1.1.42-1.67.28-1.04.33-1.24 1.05-2.27.7-1 1.89-2.31 3.76-2.31 1.47 0 1.49 1.28 1.49 1.76 0 1.5-1.08 4.3-1.49 5.35-.26.7-.37.93-.37 1.36 0 1.32 1.11 2.15 2.39 2.15 2.51 0 3.61-3.47 3.61-3.84 0-.33-.32-.33-.39-.33-.36 0-.38.16-.49.44-.57 2-1.65 3.03-2.65 3.03-.54 0-.63-.34-.63-.88 0-.57.13-.9.58-2.03.3-.78 1.33-3.43 1.33-4.84 0-2.44-1.94-2.88-3.27-2.88-2.09 0-3.5 1.29-4.25 2.3-.17-1.73-1.65-2.3-2.68-2.3-1.08 0-1.66.79-1.99 1.36-.55.94-.89 2.36-.89 2.49 0 .33.34.33.42.33.34 0 .38-.08.55-.75.37-1.49.86-2.72 1.84-2.72.64 0 .83.56.83 1.23 0 .49-.23 1.41-.41 2.08-.17.69-.42 1.72-.56 2.27zm20.381.143c-.005-.89-.752-1.455-1.442-1.458a1.47 1.47 0 00-1.458 1.442c.006.9.753 1.454 1.443 1.448a1.449 1.449 0 001.457-1.433zm8.524 0a1.452 1.452 0 00-1.442-1.448 1.455 1.455 0 00-1.458 1.432c.006.91.753 1.454 1.443 1.458a1.457 1.457 0 001.457-1.443zm8.535 0c-.006-.89-.753-1.455-1.443-1.458a1.47 1.47 0 00-1.457 1.442c.005.91.752 1.454 1.442 1.448a1.449 1.449 0 001.458-1.433zm16.15-5.233c0-2.8-2.08-4.41-4.55-4.41-3.7 0-7.22 3.5-7.22 6.94 0 2.52 1.83 4.39 4.56 4.39 3.6 0 7.21-3.31 7.21-6.92zm-7.17 6.22c-1.27 0-2.52-.8-2.52-2.78 0-1.03.48-3.5 1.45-4.92 1.08-1.57 2.55-2.22 3.68-2.22 1.35 0 2.51.94 2.51 2.79 0 .6-.31 3.08-1.41 4.85-.96 1.48-2.46 2.28-3.71 2.28zm31.31-1.776c-.58-5.55-5.48-9.37-10.81-9.37-6.42 0-10.86 5.43-10.86 10.68 0 .25 0 .82.63.82.57 0 .59-.53.59-.78.16-5.32 4.37-9.47 9.64-9.47 4.8 0 8.89 3.32 9.55 7.96-.72-.8-1.3-1.22-1.71-1.5-1.12-.78-2.11-1.08-2.21-1.08-.3 0-.38.25-.38.45 0 .33.11.35.53.52 2.66 1.06 3.69 2.95 4.14 3.78.05.12.19.22.33.22.2 0 .25-.13.42-.41 1.39-2.56 3.46-3.36 4.17-3.64.29-.09.38-.14.38-.5 0-.09-.02-.42-.34-.42-.24 0-2.44.78-4.07 2.74zM794.574 318.684c0-1.032-.722-1.848-1.902-1.848-1.375 0-2.766 1.324-2.766 2.715 0 .965.723 1.847 1.953 1.847 1.176 0 2.715-1.179 2.715-2.714zm-3.894 19.23c.617-1.484.617-1.578 1.125-2.969.414-1.015.668-1.738.668-2.703 0-2.312-1.645-4.199-4.2-4.199-4.812 0-6.753 7.422-6.753 7.879 0 .508.507.508.617.508.508 0 .558-.094.812-.911 1.379-4.812 3.426-6.351 5.176-6.351.402 0 1.273 0 1.273 1.644 0 1.071-.363 2.141-.562 2.649-.414 1.336-2.715 7.273-3.531 9.469-.508 1.336-1.176 3.019-1.176 4.089 0 2.411 1.738 4.2 4.199 4.2 4.801 0 6.699-7.422 6.699-7.875 0-.508-.453-.508-.617-.508-.508 0-.508.144-.762.91-.921 3.234-2.605 6.352-5.226 6.352-.871 0-1.219-.508-1.219-1.688 0-1.281.309-2.004 1.485-5.121z" fill-rule="nonzero"/>
  <ellipse cx="-393.233" cy="1026.36" fill="#ebebeb" rx="20.914" ry="20.912" stroke="#969696" stroke-linejoin="round" stroke-width="2.74" transform="matrix(1 .0071 -.0071 1 1424.09 -623.07)"/>
  <g clip-path="url(#b)">
    <circle cx="993.549" cy="353.682" fill="#fff" r="83.393" stroke="#ba1518" stroke-linejoin="round" stroke-width="2.74" transform="rotate(90 993.548 353.682)"/>
  </g>
  <path d="M993.828 336.211c0-.055 0-.563-.668-.563-1.176 0-4.906.403-6.23.508-.414.055-.977.106-.977 1.031 0 .602.453.602 1.231.602 2.445 0 2.554.359 2.554.867l-.148 1.031-7.422 29.473c-.215.711-.215.816-.215 1.125 0 1.176 1.031 1.43 1.485 1.43.667 0 1.445-.453 1.738-1.071.269-.464 2.57-9.933 2.875-11.207 1.738.149 5.937.977 5.937 4.348 0 .363 0 .563-.16 1.07-.105.614-.199 1.231-.199 1.793 0 3.02 2.047 5.067 4.707 5.067 1.539 0 2.914-.817 4.044-2.715 1.28-2.246 1.84-5.055 1.84-5.16 0-.508-.47-.508-.61-.508-.51 0-.57.199-.73.906-1.01 3.746-2.19 6.356-4.45 6.356-.961 0-1.633-.563-1.633-2.41 0-.868.203-2.043.418-2.86.199-.871.199-1.086.199-1.594 0-3.316-3.223-4.8-7.57-5.375 1.578-.91 3.222-2.554 4.398-3.785 2.449-2.699 4.805-4.906 7.318-4.906.31 0 .36 0 .46.055.61.105.66.105 1.08.414.09.039.09.093.2.199-2.46.148-2.92 2.152-2.92 2.754 0 .832.57 1.793 1.94 1.793 1.34 0 2.82-1.125 2.82-3.117 0-1.536-1.17-3.223-3.49-3.223-1.43 0-3.783.414-7.459 4.508-1.738 1.937-3.73 3.984-5.683 4.746z" fill-rule="nonzero"/>
  <path d="M930.353 284.852c14.25 16.015 10.518 29.695 12.315 46.625" fill="none" stroke="#000" stroke-width="6.4"/>
  <path d="M943.453 338.82l-7.535-10.336 12.73-1.351z" stroke="#000" stroke-linejoin="round" stroke-width="1.599"/>
  <path d="M931.625 283.242c21.258 21.34 45.664 23.664 61.146 25.698" fill="none" stroke="#000" stroke-width="4.8"/>
  <path d="M998.264 309.664l-8.855 3.676 1.25-9.52z" stroke="#000" stroke-linejoin="round" stroke-width="1.2"/>
  <path d="M916.066 315.86c34.086 11.242 72.96 3.874 86.532 3.18" fill="none" stroke="#000" stroke-width="4.8"/>
  <circle cx="-307.048" cy="1023.3" fill="#fff" r="20.913" stroke="#ba1518" stroke-linejoin="round" stroke-width="2.74" transform="matrix(1 .0071 -.0071 1 1335.44 -706.833)"/>
  <path d="M912.789 320.09c22.9 6.737 21.641 17.116 25.66 33.617" fill="none" stroke="#000" stroke-width="6.4"/>
  <circle cx="-354.524" cy="949.386" fill="#fff" stroke="#ba1518" stroke-linejoin="round" stroke-width="2.74" transform="matrix(1 .0071 -.0071 1 1308.14 -585.629)" r="20.912"/>
  <path d="M885.487 314.991c-31.922 9.064-70.738-12.55-97.582-25.265" fill="none" stroke="#000" stroke-width="6.4"/>
  <path d="M781.227 286.566l12.746-1.043-5.481 11.567z" stroke="#000" stroke-linejoin="round" stroke-width="1.604"/>
  <path d="M885.89 319.793c-14.653 2.269-50.555 13.21-60.477 29.574" fill="none" stroke="#000" stroke-width="3.2"/>
  <path d="M823.504 352.528l.133-6.395 5.473 3.32z" stroke="#000" stroke-linejoin="round" stroke-width=".795"/>
  <path d="M773.91 274.906c20.457 4.418 73.742 17.442 96.356 3.12" fill="none" stroke="#000" stroke-width="6.4"/>
  <circle cx="-278.353" cy="760.323" fill="#fff" r="20.913" stroke="#ba1518" stroke-linejoin="round" stroke-width="2.74" transform="matrix(1 .0071 -.0071 1 1042.1 -474.614)"/>
  <path d="M813.602 350.847c7.207-22.37 23.676-48.87 47.644-62.555" fill="none" stroke="#000" stroke-width="4.8"/>
  <ellipse cx="-363.826" cy="811.684" fill="#fff" rx="20.914" ry="20.912" stroke="#ba1518" stroke-linejoin="round" stroke-width="2.74" transform="matrix(1 .0071 -.0071 1 1178.7 -439.532)"/>
  <path d="M724.434 421.726h4.062c-1.187 5.313-1.516 6.844-1.516 9.25 0 .547 0 1.5.282 2.719.359 1.578.765 1.797 1.297 1.797.718 0 1.468-.641 1.468-1.359 0-.219 0-.282-.218-.782-1.032-2.593-1.032-4.921-1.032-5.921 0-1.907.25-3.844.641-5.704h4.094c.468 0 1.75 0 1.75-1.218 0-.86-.75-.86-1.438-.86h-12c-.797 0-2.156 0-3.734 1.688-1.25 1.39-2.188 3.047-2.188 3.219 0 .046 0 .359.438.359.281 0 .344-.141.562-.422 1.766-2.766 3.844-2.766 4.563-2.766h2.047c-1.157 4.344-3.094 8.672-4.594 11.938-.297.547-.297.609-.297.859 0 .688.578.969 1.047.969 1.078 0 1.359-1 1.797-2.328.5-1.641.5-1.719.969-3.516zm19.086 3.071c0-.406-.313-.953-1.016-.953-.672 0-1.406.64-1.406 1.375 0 .422.328.953 1.015.953.719 0 1.407-.703 1.407-1.375zm-5.125 12.75c-.11.328-.235.625-.235 1.047 0 1.187 1.016 2.14 2.391 2.14 2.515 0 3.609-3.468 3.609-3.843 0-.329-.312-.329-.39-.329-.36 0-.375.157-.485.438-.578 2-1.672 3.031-2.656 3.031-.5 0-.625-.328-.625-.875 0-.578.172-1.062.391-1.609.25-.672.531-1.36.812-2.016.219-.594 1.125-2.875 1.234-3.187.063-.25.141-.547.141-.797 0-1.188-1-2.141-2.375-2.141-2.5 0-3.641 3.422-3.641 3.844 0 .328.344.328.422.328.344 0 .375-.125.453-.406.657-2.156 1.75-3.063 2.688-3.063.391 0 .625.203.625.891 0 .578-.156.953-.781 2.5zm24.507-6.61c0-4.14-4.5-5.546-7.703-5.546-3.219 0-7.734 1.359-7.734 5.578V440c0 .391 0 .984.594.984.625 0 .625-.578.625-.984v-8.984c0-.672 0-2.204 2.109-3.391 1.531-.828 3.344-1 4.375-1 2.234 0 3.797.656 4.453 1.031 1.781 1.047 2.047 2.188 2.047 3.344v9c0 .391 0 .984.609.984.625 0 .625-.578.625-.984zm12.844 7.516c-.125.5-.344 1.359-.344 1.484 0 .547.453.797.86.797.453 0 .843-.328.968-.547.125-.234.329-1.031.454-1.562.125-.469.406-1.625.562-2.266.141-.547.297-1.093.422-1.672.281-1.078.281-1.14.781-1.906.797-1.234 2.047-2.672 4.016-2.672 1.406 0 1.484 1.157 1.484 1.766 0 1.5-1.094 4.297-1.484 5.344-.281.703-.375.937-.375 1.359 0 1.328 1.094 2.156 2.375 2.156 2.515 0 3.625-3.468 3.625-3.843 0-.329-.328-.329-.406-.329-.344 0-.375.157-.469.438-.578 2-1.672 3.031-2.672 3.031-.531 0-.625-.344-.625-.875 0-.578.125-.906.578-2.031.297-.781 1.328-3.438 1.328-4.844 0-.406 0-1.469-.922-2.187-.437-.328-1.156-.688-2.343-.688-2.25 0-3.641 1.485-4.438 2.547-.203-2.141-1.984-2.547-3.266-2.547-2.093 0-3.5 1.281-4.25 2.297-.171-1.734-1.656-2.297-2.687-2.297-1.078 0-1.656.781-1.984 1.36-.547.937-.891 2.359-.891 2.484 0 .328.344.328.422.328.344 0 .375-.078.547-.75.375-1.484.859-2.719 1.843-2.719.641 0 .829.563.829 1.235 0 .484-.235 1.406-.407 2.078-.172.687-.422 1.719-.562 2.265l-.797 3.219c-.094.328-.25.953-.25 1.031 0 .547.453.797.859.797.453 0 .844-.328.969-.547.125-.234.328-1.031.453-1.562.125-.469.406-1.625.563-2.266.14-.547.297-1.093.422-1.672.281-1.031.328-1.234 1.046-2.265.704-1 1.891-2.313 3.766-2.313 1.469 0 1.484 1.282 1.484 1.766 0 .625-.078.953-.421 2.359zm17.621.453c-.094.328-.25.953-.25 1.031 0 .547.453.797.86.797.453 0 .843-.328.968-.547.125-.234.328-1.031.453-1.562.125-.469.407-1.625.563-2.266.141-.547.297-1.093.422-1.672.281-1.031.328-1.234 1.047-2.265.703-1 1.89-2.313 3.765-2.313 1.469 0 1.485 1.282 1.485 1.766 0 1.5-1.078 4.297-1.485 5.344-.265.703-.375.937-.375 1.359 0 1.328 1.11 2.156 2.391 2.156 2.516 0 3.609-3.468 3.609-3.843 0-.329-.312-.329-.39-.329-.36 0-.375.157-.485.438-.578 2-1.656 3.031-2.656 3.031-.531 0-.625-.344-.625-.875 0-.578.125-.906.578-2.031.297-.781 1.328-3.438 1.328-4.844 0-2.437-1.937-2.875-3.265-2.875-2.094 0-3.5 1.281-4.25 2.297-.172-1.734-1.657-2.297-2.688-2.297-1.078 0-1.656.781-1.984 1.36-.547.937-.891 2.359-.891 2.484 0 .328.344.328.422.328.344 0 .375-.078.547-.75.375-1.484.859-2.719 1.844-2.719.64 0 .828.563.828 1.235 0 .484-.235 1.406-.406 2.078-.172.687-.422 1.719-.563 2.265zm20.38.141c0-.89-.751-1.452-1.438-1.453-.828 0-1.454.688-1.454 1.437 0 .906.75 1.453 1.438 1.454a1.45 1.45 0 001.454-1.438zm8.527.001c0-.89-.75-1.453-1.437-1.452-.828 0-1.452.686-1.452 1.436 0 .906.75 1.454 1.436 1.453.829 0 1.453-.672 1.453-1.437zm8.527-.006c0-.89-.75-1.452-1.438-1.453-.828 0-1.454.688-1.454 1.437 0 .906.751 1.453 1.438 1.454.828 0 1.454-.673 1.454-1.438zm16.16-5.23c0-2.796-2.078-4.406-4.547-4.406-3.703 0-7.219 3.5-7.219 6.938 0 2.515 1.828 4.39 4.563 4.39 3.594 0 7.203-3.312 7.203-6.922zm-7.172 6.219c-1.266 0-2.516-.797-2.516-2.781 0-1.031.485-3.5 1.454-4.922 1.078-1.562 2.546-2.219 3.671-2.219 1.36 0 2.516.938 2.516 2.797 0 .594-.312 3.078-1.406 4.844-.969 1.484-2.469 2.281-3.719 2.281zm112.953-194.734h4.063c-1.188 5.312-1.516 6.844-1.516 9.25 0 .547 0 1.5.281 2.719.36 1.578.766 1.796 1.297 1.796.719 0 1.469-.64 1.469-1.359 0-.219 0-.281-.219-.781-1.031-2.594-1.031-4.922-1.031-5.922 0-1.906.25-3.844.641-5.703h4.093c.469 0 1.75 0 1.75-1.219 0-.859-.75-.859-1.437-.859h-12c-.797 0-2.156 0-3.735 1.687-1.25 1.391-2.187 3.047-2.187 3.219 0 .047 0 .359.437.359.282 0 .344-.14.563-.422 1.766-2.765 3.844-2.765 4.562-2.765h2.047c-1.156 4.344-3.093 8.672-4.593 11.937-.297.547-.297.61-.297.86 0 .687.578.968 1.047.968 1.078 0 1.359-1 1.796-2.328.5-1.64.5-1.718.969-3.515zm18.805 2.086c.031-.047.094-.375.094-.407 0-.125-.094-.343-.391-.343-.5 0-2.594.203-3.219.25-.203.015-.547.047-.547.578 0 .344.344.344.641.344 1.219 0 1.219.187 1.219.375 0 .187-.063.328-.11.562l-3.531 14.203c-.125.453-.125.5-.125.563a.81.81 0 00.844.797c.687 0 1-.5 1.156-1.047.047-.11 1.125-4.532 1.234-4.875 1.782.172 3.219.75 3.219 2.062 0 .125 0 .25-.062.5-.094.375-.094.5-.094.781 0 1.782 1.453 2.579 2.656 2.579 2.438 0 3.188-3.813 3.188-3.844 0-.328-.328-.328-.391-.328-.359 0-.39.125-.516.609-.296 1.078-.968 2.859-2.203 2.859-.671 0-.875-.625-.875-1.296 0-.438 0-.485.141-1.141.031-.078.125-.5.125-.781 0-2.235-3-2.578-4.062-2.657.734-.453 1.656-1.281 2.093-1.656 1.266-1.203 2.531-2.39 3.938-2.39.297 0 .625.078.828.328-1.078.172-1.313 1.031-1.313 1.406 0 .562.438.937 1.016.937.672 0 1.422-.562 1.422-1.609 0-.828-.594-1.766-1.938-1.766-1.422 0-2.734 1.032-4.015 2.219-1.047 1-1.875 1.781-2.907 2.203zm25.367 7.125c0-4.141-4.5-5.547-7.703-5.547-3.219 0-7.734 1.359-7.734 5.578v9.031c0 .391 0 .985.593.985.625 0 .625-.579.625-.985v-8.984c0-.672 0-2.203 2.11-3.391 1.531-.828 3.343-1 4.375-1 2.234 0 3.797.656 4.453 1.031 1.781 1.047 2.047 2.188 2.047 3.344v9c0 .391 0 .985.609.985.625 0 .625-.579.625-.985zm12.846 7.515c-.12.5-.34 1.36-.34 1.485 0 .547.45.797.86.797.45 0 .84-.329.97-.547.12-.235.32-1.032.45-1.563.12-.469.41-1.625.56-2.265.14-.547.3-1.094.42-1.672.29-1.078.29-1.141.79-1.907.79-1.234 2.04-2.671 4.01-2.671 1.41 0 1.49 1.156 1.49 1.765 0 1.5-1.1 4.297-1.49 5.344-.28.703-.37.937-.37 1.359 0 1.328 1.09 2.157 2.37 2.157 2.52 0 3.63-3.469 3.63-3.844 0-.328-.33-.328-.41-.328-.34 0-.38.156-.47.437-.58 2-1.67 3.031-2.67 3.031-.53 0-.63-.343-.63-.875 0-.578.13-.906.58-2.031.3-.781 1.33-3.437 1.33-4.844 0-.406 0-1.468-.92-2.187-.44-.328-1.16-.688-2.35-.688-2.25 0-3.64 1.485-4.43 2.547-.21-2.14-1.99-2.547-3.27-2.547-2.09 0-3.5 1.282-4.25 2.297-.17-1.734-1.65-2.297-2.69-2.297-1.07 0-1.65.782-1.98 1.36-.55.937-.89 2.359-.89 2.484 0 .328.34.328.42.328.34 0 .38-.078.55-.75.37-1.484.86-2.718 1.84-2.718.64 0 .83.562.83 1.234 0 .484-.23 1.406-.41 2.078-.17.688-.42 1.719-.56 2.266l-.8 3.218c-.09.329-.25.954-.25 1.032 0 .547.46.797.86.797.46 0 .85-.329.97-.547.13-.235.33-1.032.46-1.563.12-.469.4-1.625.56-2.265.14-.547.29-1.094.42-1.672.28-1.032.33-1.235 1.05-2.266.7-1 1.89-2.312 3.76-2.312 1.47 0 1.49 1.281 1.49 1.765 0 .625-.08.953-.43 2.36zm17.62.453c-.09.329-.25.954-.25 1.032 0 .547.46.797.86.797.45 0 .85-.329.97-.547.13-.235.33-1.032.45-1.563.13-.469.41-1.625.57-2.265.14-.547.29-1.094.42-1.672.28-1.032.33-1.235 1.04-2.266.71-1 1.9-2.312 3.77-2.312 1.47 0 1.48 1.281 1.48 1.765 0 1.5-1.07 4.297-1.48 5.344-.27.703-.37.937-.37 1.359 0 1.328 1.1 2.157 2.39 2.157 2.51 0 3.61-3.469 3.61-3.844 0-.328-.32-.328-.4-.328-.35 0-.37.156-.48.437-.58 2-1.65 3.031-2.65 3.031-.54 0-.63-.343-.63-.875 0-.578.13-.906.58-2.031.3-.781 1.33-3.437 1.33-4.844 0-2.437-1.94-2.875-3.27-2.875-2.09 0-3.5 1.282-4.25 2.297-.17-1.734-1.66-2.297-2.69-2.297-1.07 0-1.65.782-1.98 1.36-.55.937-.89 2.359-.89 2.484 0 .328.34.328.42.328.34 0 .38-.078.55-.75.37-1.484.86-2.718 1.84-2.718.64 0 .83.562.83 1.234 0 .484-.24 1.406-.41 2.078-.17.688-.42 1.719-.56 2.266zm20.384.143c0-.89-.75-1.454-1.437-1.458a1.464 1.464 0 00-1.453 1.442c0 .91.75 1.454 1.437 1.448a1.443 1.443 0 001.453-1.432zm8.528 0c0-.89-.75-1.454-1.438-1.448a1.45 1.45 0 00-1.453 1.432c0 .91.75 1.454 1.438 1.458a1.452 1.452 0 001.453-1.442zm8.528-.012c0-.89-.75-1.444-1.437-1.448a1.457 1.457 0 00-1.453 1.432c0 .91.75 1.455 1.438 1.458a1.446 1.446 0 001.453-1.442zm16.15-5.224c0-2.797-2.08-4.407-4.54-4.407-3.71 0-7.22 3.5-7.22 6.938 0 2.516 1.83 4.391 4.56 4.391 3.59 0 7.2-3.313 7.2-6.922zm-7.17 6.218c-1.26 0-2.51-.796-2.51-2.781 0-1.031.48-3.5 1.45-4.922 1.08-1.562 2.55-2.218 3.67-2.218 1.36 0 2.52.937 2.52 2.796 0 .594-.32 3.079-1.41 4.844-.97 1.485-2.47 2.281-3.72 2.281zM814.648 358.34c0-2.688-1.984-4.906-4.875-4.906-2.093 0-3.093.562-4.343 1.5-1.969 1.437-3.953 4.921-4.625 7.64l-5.703 22.766c-.032.14.14.359.421.359.297 0 .407-.062.438-.172l2.516-9.906c.671 2.156 2.25 3.484 4.875 3.484 2.609 0 5.296-1.25 6.921-2.828 1.719-1.656 2.86-3.953 2.86-6.609 0-2.578-1.328-4.438-2.61-5.344 2.079-1.172 4.125-3.406 4.125-5.984zm-6.453 5.953c-.468.187-.875.25-1.734.25-.5 0-1.219.031-1.578-.141.078-.359 1.375-.281 1.765-.281.75 0 1.079 0 1.547.172zm4.438-6.781c0 2.515-1.36 5.093-3.219 6.203-.969-.36-1.687-.422-2.766-.422-.75 0-2.765-.031-2.765 1.141-.031 1.015 1.828.906 2.469.906 1.328 0 1.875-.047 2.953-.469 1.359 1.281 1.531 2.406 1.578 4.047.062 2.078-.797 4.766-1.797 6.172-1.406 1.937-3.797 3.219-5.844 3.219-2.734 0-4.094-2.079-4.094-4.625 0-.36 0-.891.188-1.579l2.297-9.062c.781-3.094 3.359-8.781 7.672-8.781 2.078 0 3.328 1.109 3.328 3.25zm9.816 10.929c0-.406-.312-.953-1.015-.953-.672 0-1.407.641-1.407 1.375 0 .422.328.953 1.016.953.719 0 1.406-.703 1.406-1.375zm-5.125 12.75c-.109.328-.234.625-.234 1.047 0 1.188 1.015 2.141 2.39 2.141 2.516 0 3.61-3.469 3.61-3.844 0-.328-.313-.328-.391-.328-.359 0-.375.156-.484.437-.578 2-1.672 3.032-2.656 3.032-.5 0-.625-.328-.625-.875 0-.578.171-1.063.39-1.61.25-.672.531-1.359.813-2.015.218-.594 1.125-2.875 1.234-3.188.063-.25.141-.547.141-.797 0-1.187-1-2.14-2.375-2.14-2.5 0-3.641 3.422-3.641 3.843 0 .329.344.329.422.329.344 0 .375-.125.453-.407.656-2.156 1.75-3.062 2.688-3.062.39 0 .625.203.625.89 0 .579-.157.954-.782 2.5zm114.285-24.992c1.407-4.125 5.313-4.156 5.703-4.156 5.422 0 5.813 6.266 5.813 9.109 0 2.188-.187 2.797-.437 3.516-.782 2.609-1.86 6.766-1.86 7.703 0 .391.172.641.469.641.469 0 .75-.782 1.141-2.141.828-3.016 1.187-5.062 1.328-6.172.078-.469.14-.937.281-1.406 1.156-3.547 3.453-8.891 4.891-11.719.25-.437.671-1.219.671-1.359 0-.36-.359-.36-.421-.36-.11 0-.329 0-.438.25-1.859 3.407-3.297 6.985-4.734 10.61-.032-1.11-.063-3.828-1.469-7.313-.859-2.187-2.297-3.937-4.766-3.937-4.484 0-7 5.437-7 6.562 0 .36.328.36.688.36zm24.957-2.18c.032-.046.094-.375.094-.406 0-.125-.094-.344-.39-.344-.5 0-2.594.204-3.219.25-.203.016-.547.047-.547.579 0 .343.344.343.641.343 1.218 0 1.218.188 1.218.375 0 .188-.062.328-.109.563l-3.531 14.203c-.125.453-.125.5-.125.562a.81.81 0 00.843.797c.688 0 1-.5 1.157-1.047.047-.109 1.125-4.531 1.234-4.875 1.781.172 3.219.75 3.219 2.063 0 .125 0 .25-.063.5-.093.375-.093.5-.093.781 0 1.781 1.453 2.578 2.656 2.578 2.437 0 3.187-3.812 3.187-3.843 0-.329-.328-.329-.39-.329-.36 0-.391.125-.516.61-.297 1.078-.969 2.859-2.203 2.859-.672 0-.875-.625-.875-1.297 0-.437 0-.484.141-1.14.031-.078.125-.5.125-.782 0-2.234-3-2.578-4.063-2.656.734-.453 1.656-1.281 2.094-1.656 1.265-1.203 2.531-2.391 3.937-2.391.297 0 .625.078.828.328-1.078.172-1.312 1.032-1.312 1.407 0 .562.437.937 1.016.937.671 0 1.421-.562 1.421-1.609 0-.828-.593-1.766-1.937-1.766-1.422 0-2.734 1.031-4.016 2.219-1.047 1-1.875 1.781-2.906 2.203zm58.174-45.468c-4.48 1.078-7.97 5.734-7.97 10.078 0 3.437 2.3 6.031 5.68 6.031 4.2 0 7.17-5.641 7.17-10.578 0-3.266-1.44-5.063-2.66-6.672-1.28-1.625-3.4-4.312-3.4-5.891 0-.781.71-1.64 1.96-1.64 1.08 0 1.8.469 2.55.969.72.421 1.44.89 1.99.89.89 0 1.42-.859 1.42-1.437 0-.782-.57-.891-1.86-1.172-1.86-.406-2.36-.406-2.94-.406-2.8 0-4.09 1.546-4.09 3.703 0 1.937 1.04 3.937 2.15 6.125zm.42.797c.91 1.64 1.99 3.578 1.99 6.156 0 2.375-1.38 8.359-4.7 8.359-1.97 0-3.44-1.5-3.44-4.234 0-2.25 1.33-9 6.15-10.281zm13.91 3.582c.04-.047.1-.375.1-.407 0-.125-.1-.343-.39-.343-.5 0-2.6.203-3.22.25-.2.015-.55.046-.55.578 0 .343.35.343.64.343 1.22 0 1.22.188 1.22.375 0 .188-.06.329-.11.563l-3.53 14.203c-.12.453-.12.5-.12.563 0 .375.29.796.84.796.69 0 1-.5 1.16-1.046.04-.11 1.12-4.532 1.23-4.875 1.78.171 3.22.75 3.22 2.062 0 .125 0 .25-.06.5-.1.375-.1.5-.1.781 0 1.782 1.46 2.578 2.66 2.578 2.44 0 3.19-3.812 3.19-3.843 0-.328-.33-.328-.39-.328-.36 0-.4.125-.52.609-.3 1.078-.97 2.859-2.2 2.859-.68 0-.88-.625-.88-1.297 0-.437 0-.484.14-1.14.03-.078.13-.5.13-.781 0-2.235-3-2.579-4.07-2.657.74-.453 1.66-1.281 2.1-1.656 1.26-1.203 2.53-2.391 3.94-2.391.29 0 .62.079.82.329-1.07.171-1.31 1.031-1.31 1.406 0 .562.44.937 1.02.937.67 0 1.42-.562 1.42-1.609 0-.828-.59-1.766-1.94-1.766-1.42 0-2.73 1.032-4.01 2.219-1.05 1-1.88 1.781-2.91 2.203zm-243.277-11.856h3.324c-.969 4.348-1.238 5.602-1.238 7.57 0 .45 0 1.231.23 2.227.293 1.293.625 1.473 1.059 1.473.59 0 1.203-.528 1.203-1.114 0-.179 0-.23-.18-.64-.843-2.125-.843-4.028-.843-4.848 0-1.562.207-3.148.527-4.668h3.352c.382 0 1.429 0 1.429-1 0-.703-.613-.703-1.176-.703h-9.824c-.652 0-1.765 0-3.054 1.383-1.024 1.137-1.793 2.492-1.793 2.633 0 .039 0 .297.359.297.23 0 .281-.118.461-.348 1.445-2.262 3.144-2.262 3.734-2.262h1.676c-.949 3.555-2.535 7.098-3.762 9.77-.242.449-.242.5-.242.707 0 .562.473.793.856.793.882 0 1.113-.821 1.472-1.907.41-1.343.41-1.406.793-2.878zm17.004 12.449c1.891-1.941 2.648-4.679 2.648-4.91 0-.269-.246-.269-.347-.269-.282 0-.282.066-.434.523-.371 1.359-1.051 2.609-1.906 3.711-.028-.309-.063-1.676-.102-1.867-.308-2.035-1.855-3.352-3.914-3.352-3.019 0-5.91 2.813-5.91 5.692 0 1.894 1.367 3.582 3.762 3.582 1.89 0 3.594-.856 4.742-1.754.476 1.512 1.523 1.754 2.137 1.754 1.191 0 1.933-1.012 1.933-1.434 0-.254-.242-.254-.347-.254-.266 0-.305.09-.356.203-.281.782-.922.911-1.164.911-.297 0-.641 0-.742-2.536zm-1.602.703c-2.019 1.653-3.757 1.833-4.539 1.833-1.367 0-2.125-.911-2.125-2.278 0-.601.297-2.84 1.356-4.262.949-1.226 2.125-1.585 2.84-1.585 1.64 0 2.113 1.585 2.277 2.867.129.883.09 2.34.191 3.425zm11.442-4.019a.628.628 0 00-.653-.641c-.406 0-.894.395-.894.883 0 .41.32.637.629.637.484 0 .918-.445.918-.879zm.691 7.047c0-.207-.254-.207-.32-.207-.242 0-.254.054-.344.336-.258.804-.91 1.648-1.648 1.648-.336 0-.438-.242-.438-.562 0-.309.078-.473.192-.754.117-.297.23-.578.308-.793a84.41 84.41 0 00.832-2.024c.129-.293.203-.484.203-.726 0-.703-.664-1.293-1.597-1.293-1.536 0-2.368 1.879-2.368 2.277 0 .203.243.203.321.203.242 0 .254-.074.332-.293.32-1.05 1.023-1.687 1.664-1.687.281 0 .433.152.433.547 0 .066 0 .258-.089.539-.102.254-.754 1.828-.973 2.328-.102.254-.102.281-.32.781-.075.203-.153.406-.153.664 0 .754.719 1.293 1.598 1.293 1.535 0 2.367-1.922 2.367-2.277zm23.945 29.262h3.325c-.969 4.347-1.239 5.601-1.239 7.574 0 .445 0 1.226.231 2.222.293 1.293.625 1.473 1.062 1.473.586 0 1.2-.523 1.2-1.113 0-.18 0-.231-.176-.641-.848-2.121-.848-4.027-.848-4.847 0-1.559.207-3.145.527-4.668h3.352c.383 0 1.43 0 1.43-.997 0-.703-.614-.703-1.176-.703h-9.824c-.653 0-1.766 0-3.055 1.379-1.023 1.141-1.793 2.496-1.793 2.637 0 .039 0 .293.359.293.231 0 .282-.113.461-.344 1.446-2.265 3.145-2.265 3.735-2.265h1.676c-.946 3.554-2.532 7.097-3.762 9.773-.242.445-.242.5-.242.703 0 .563.472.793.855.793.883 0 1.113-.82 1.473-1.906.41-1.344.41-1.406.793-2.879zm18.77 3.714c0-1.804-1.563-2.851-3.367-2.851-2.813 0-4.899 3.211-5.41 5.281l-3.223 12.945c-.039.153.168.258.281.258.192 0 .36-.027.399-.14l1.367-5.5c.433.945 1.422 1.828 3.082 1.828 2.879 0 6.129-2.075 6.129-5.219 0-1.215-.551-2.445-1.602-3.121 1.012-.641 2.344-1.805 2.344-3.481zm-4.07 3.454c-.305.066-.446.156-1.047.156-.332 0-.821-.028-.961-.106.207-.125.781-.152.961-.152.304 0 .765.027 1.047.102zm2.715-3.813c0 1.09-.54 2.688-1.805 3.406-.399-.117-.781-.269-1.934-.269-.726 0-1.75.051-1.75.781 0 .523.641.598 1.688.598.703 0 1.316-.102 1.957-.282.613.422.933 1.27.933 2.176 0 2.981-2.035 5.195-4.539 5.195-1.574 0-2.715-.96-2.715-2.585 0-.204.028-.411.067-.602l1.355-5.461c.5-1.957 2.301-4.875 4.68-4.875 1.215 0 2.063.652 2.063 1.918zm7.476 5.777a.627.627 0 00-.652-.64c-.41 0-.895.398-.895.883 0 .41.321.64.629.64.484 0 .918-.449.918-.883zm.691 7.047c0-.203-.253-.203-.32-.203-.242 0-.254.051-.344.332-.257.805-.91 1.649-1.652 1.649-.332 0-.434-.243-.434-.563 0-.305.079-.473.192-.754.117-.293.23-.574.308-.793.063-.129.625-1.496.833-2.019.124-.297.203-.489.203-.731 0-.703-.664-1.293-1.598-1.293-1.535 0-2.367 1.883-2.367 2.278 0 .207.242.207.32.207.242 0 .254-.079.332-.297.32-1.047 1.024-1.688 1.664-1.688.281 0 .434.153.434.551 0 .063 0 .254-.09.535a130.42 130.42 0 01-.973 2.328c-.101.258-.101.282-.32.782-.074.203-.152.41-.152.664 0 .754.714 1.293 1.597 1.293 1.535 0 2.367-1.918 2.367-2.278zm-104.007-82.328c0-5.625-3.344-7.375-6-7.375-4.907 0-9.641 5.125-9.641 10.172 0 3.344 2.156 6.062 5.813 6.062 2.25 0 4.843-.828 7.562-3.015.469 1.906 1.656 3.015 3.266 3.015 1.906 0 3.015-1.968 3.015-2.546 0-.25-.218-.36-.437-.36-.25 0-.36.11-.469.36-.641 1.765-1.937 1.765-2 1.765-1.109 0-1.109-2.797-1.109-3.656 0-.766 0-.828.359-1.266 3.359-4.218 4.125-8.39 4.125-8.422 0-.078-.047-.359-.437-.359-.36 0-.36.109-.532.75-.656 2.266-1.828 4.984-3.515 7.109zm-2.407 4.922c-3.156 2.766-5.921 3.156-7.359 3.156-2.141 0-3.219-1.625-3.219-3.906 0-1.766.938-5.641 2.078-7.469 1.688-2.609 3.625-3.297 4.875-3.297 3.547 0 3.547 4.703 3.547 7.5 0 1.328 0 3.407.078 4.016zm16.383-6.758c0-.406-.312-.953-1.015-.953-.672 0-1.407.641-1.407 1.375 0 .422.328.953 1.016.953.719 0 1.406-.703 1.406-1.375zm-5.125 12.75c-.109.328-.234.625-.234 1.047 0 1.188 1.015 2.141 2.39 2.141 2.516 0 3.61-3.469 3.61-3.844 0-.328-.313-.328-.391-.328-.359 0-.375.156-.484.437-.578 2-1.672 3.032-2.656 3.032-.5 0-.625-.329-.625-.875 0-.579.171-1.063.39-1.61.25-.672.531-1.359.813-2.015.218-.594 1.125-2.875 1.234-3.188.063-.25.141-.547.141-.797 0-1.187-1-2.14-2.375-2.14-2.5 0-3.641 3.421-3.641 3.843 0 .328.344.328.422.328.344 0 .375-.125.453-.406.656-2.156 1.75-3.062 2.688-3.062.39 0 .625.203.625.89 0 .578-.157.953-.782 2.5zm188.844 35.992h3.328c-.973 4.348-1.242 5.602-1.242 7.575 0 .445 0 1.226.23 2.222.293 1.293.625 1.473 1.063 1.473.586 0 1.203-.524 1.203-1.113 0-.18 0-.231-.18-.641-.843-2.121-.843-4.027-.843-4.848 0-1.558.203-3.144.523-4.668h3.352c.382 0 1.433 0 1.433-.996 0-.703-.617-.703-1.18-.703h-9.824c-.652 0-1.761 0-3.054 1.379-1.024 1.141-1.793 2.496-1.793 2.637 0 .039 0 .293.359.293.23 0 .281-.114.461-.344 1.445-2.266 3.144-2.266 3.734-2.266h1.676c-.945 3.555-2.531 7.098-3.762 9.774-.242.445-.242.496-.242.703 0 .562.473.793.86.793.878 0 1.109-.82 1.468-1.906.41-1.344.41-1.407.793-2.879zm14.945 12.477c-.101-1.188-.793-6.191-4.144-6.191-1.215 0-2.266.667-2.84 1.203-1.254 1.125-1.496 2.445-1.496 2.507 0 .243.269.243.32.243.266 0 .293-.039.395-.344.437-1.215 1.957-1.957 3.328-1.957 3.312 0 3.746 3.312 3.746 5.41 0 1.023-.063 1.254-.152 1.469-.473 1.551-1.09 3.828-1.09 4.441 0 .231.09.496.359.496.141 0 .371 0 .691-1.074a21.38 21.38 0 00.805-3.797c.078-.719 1.231-3.492 1.664-4.476.293-.641.715-1.614 1.688-3.391a.556.556 0 00.101-.27c0-.253-.265-.253-.332-.253-.062 0-.242 0-.304.101-.247.434-1.805 3.375-2.739 5.883zm8.543-3.637c.067-.207.067-.23.067-.308 0-.254-.219-.254-.461-.243l-1.805.141c-.242.012-.281.023-.344.09-.066.062-.105.242-.105.332 0 .254.23.254.437.254.012 0 .282 0 .496.027.282.028.297.078.297.192 0 .039 0 .078-.078.332l-2.019 8.109c-.067.219-.067.246-.067.332 0 .348.27.539.563.539.578 0 .707-.551.769-.754l.653-2.699c.382.012 2.226.113 2.226 1.164 0 .102 0 .152-.051.332-.039.203-.039.293-.039.383 0 1.035.934 1.574 1.789 1.574 1.496 0 2.086-2.109 2.086-2.277 0-.203-.257-.203-.308-.203-.254 0-.282.062-.356.332-.14.511-.578 1.648-1.371 1.648-.535 0-.613-.551-.613-.867 0-.016 0-.219.062-.477a2.26 2.26 0 00.079-.496c0-1.293-1.626-1.511-2.583-1.586.407-.23 1.024-.73 1.254-.933.844-.668 1.649-1.293 2.481-1.293.344 0 .433.09.512.164-.012 0-.079.054-.118.054-.675.231-.675.829-.675.883 0 .242.179.598.664.598.293 0 .91-.242.91-1.047 0-.715-.551-1.152-1.254-1.152-1.012 0-1.856.664-2.93 1.535-.511.41-1 .781-1.586 1.012zm-6.48-53.168h3.324c-.969 4.348-1.238 5.602-1.238 7.571 0 .449 0 1.23.23 2.226.293 1.293.625 1.473 1.059 1.473.59 0 1.203-.524 1.203-1.114 0-.179 0-.23-.18-.64-.844-2.121-.844-4.027-.844-4.848 0-1.558.207-3.144.528-4.668h3.351c.383 0 1.43 0 1.43-1 0-.703-.613-.703-1.176-.703h-9.824c-.652 0-1.766 0-3.055 1.383-1.023 1.137-1.793 2.496-1.793 2.637 0 .035 0 .293.36.293.23 0 .281-.118.461-.348 1.445-2.262 3.144-2.262 3.734-2.262h1.676c-.949 3.555-2.535 7.098-3.762 9.774-.242.445-.242.496-.242.703 0 .562.473.793.855.793.883 0 1.114-.821 1.473-1.906.41-1.344.41-1.407.793-2.879zm11.824 6.414c-3.086.782-4.813 3.426-4.813 5.59 0 2.176 1.665 3.594 3.7 3.594 2.492 0 4.426-2.918 4.426-5.922 0-1.984-1.075-3.16-1.715-3.863-.754-.856-2.305-2.547-2.305-3.492 0-.27.297-.856 1.141-.856.691 0 1.265.32 1.726.574.18.102.922.524 1.227.524.5 0 .871-.446.871-.856 0-.511-.27-.551-1.383-.781-.242-.039-1.188-.242-1.852-.242-1.535 0-2.406.894-2.406 2.148 0 1.102.664 2.356 1.383 3.582zm.344.551c.574.934 1.316 2.121 1.316 3.606 0 1.675-1.008 4.453-2.734 4.453-1.129 0-2.242-.743-2.242-2.446 0-1.355.781-4.91 3.66-5.613zm9.66 1.875c.066-.207.066-.23.066-.309 0-.257-.218-.257-.461-.242l-1.804.141c-.242.012-.282.023-.344.09-.066.062-.106.242-.106.332 0 .254.231.254.438.254.012 0 .281 0 .496.027.281.023.297.074.297.191 0 .04 0 .079-.078.332l-2.02 8.11c-.066.219-.066.242-.066.332 0 .348.269.539.562.539.579 0 .703-.551.77-.754l.652-2.699c.383.012 2.227.113 2.227 1.164 0 .101 0 .152-.051.332-.039.203-.039.293-.039.383 0 1.035.934 1.574 1.789 1.574 1.496 0 2.086-2.109 2.086-2.277 0-.204-.258-.204-.309-.204-.254 0-.281.063-.355.333-.141.511-.578 1.648-1.371 1.648-.535 0-.613-.551-.613-.871 0-.012 0-.215.062-.473.055-.23.078-.383.078-.496 0-1.293-1.625-1.512-2.582-1.586.406-.23 1.024-.73 1.254-.933.844-.668 1.648-1.293 2.481-1.293.343 0 .433.089.511.164-.015 0-.078.05-.117.05-.676.231-.676.832-.676.883 0 .246.18.602.664.602.293 0 .91-.242.91-1.047 0-.719-.55-1.152-1.253-1.152-1.012 0-1.856.664-2.93 1.535-.512.41-1 .781-1.586 1.011z" fill-rule="nonzero"/>
  <path d="M943.176 254.2c-7.418 3.788-9.324 10.124-10.266 18.159" fill="none" stroke="#000" stroke-width="2.4"/>
  <path d="M932.266 277.864l-3.801-8.81 9.535 1.118z" stroke="#000" stroke-linejoin="round" stroke-width="1.198"/>
  <path d="M852.621 432.313c23.63-15.37 35.543-76.975 33.902-103.932" fill="none" stroke="#000" stroke-width="2.4"/>
  <path d="M886.19 322.852l5.296 8-9.582.582z" stroke="#000" stroke-linejoin="round" stroke-width="1.202"/>
  <circle cx="-355.866" cy="741.964" fill="#ebebeb" stroke="#969696" stroke-linejoin="round" stroke-width="2.74" transform="matrix(1 .0071 -.0071 1 1100.58 -378.323)" r="20.912"/>
  <path d="M89.801 1012.25c-46.563 52.99-32.371.13-56.774 71.62-24.398 71.48 7.938 22.96 8.43 93.66s-43.344 48.46-1.742 111.69c41.605 63.22 31.351-2.96 84.297 49.84 52.945 52.8 11.824 59.04 80.508 77.85 68.683 18.8 26.574 6 98.855-7.62 72.281-13.61 31.582 32.1 101.516 4.02 69.937-28.09-3.871-44.79 48.07-97.11s67.906-8.59 92.684-78.6c24.777-70.01-11.676-9.74-15.61-82.72-3.933-72.98 13.625-48.33-27.027-112.31-40.656-63.983-23.024 17.24-76.785-31.45-53.766-48.673 22.074-84.035-49.309-99.584s-28.629 38.004-98.855 46.294c-70.227 8.291-39.457-62.414-103.641-25.775-64.184 36.638-38.051 27.21-84.617 80.195z" fill="#ebebeb" fill-rule="nonzero" stroke="#000" stroke-dasharray="9.26 9.26" stroke-width="3.09" transform="matrix(1 0 0 -.78683 0 1838.68)"/>
  <path d="M176.794 932.563c92.421-83.583 206.518-102.793 296.956-172.29" fill="none" stroke="#000" stroke-width="6.4"/>
  <path d="M316.259 923.664c-93.602-63.086 68.933-98.965 159.874-159.922" fill="none" stroke="#000" stroke-width="3.2"/>
  <path d="M318.281 883.03c-60.758-59.83-141.097-71.956-206.691-126.437" fill="none" stroke="#000" stroke-width="6.4"/>
  <path d="M274.32 912.448c47.792-21.325-111.23-114.157-165.59-152.184" fill="none" stroke="#000" stroke-width="3.2"/>
  <path d="M270.95 913.948l3.75-5.176 2.608 5.843z" stroke="#000" stroke-linejoin="round" stroke-width=".799"/>
  <path d="M178.336 930.247c61.855-31.886 97.348-80.644 139.195-43.793" fill="none" stroke="#000" stroke-width="6.4"/>
  <path d="M388 954.556c-58.648-1.509-72.898-48.685-117.25-38.891" fill="none" stroke="#000" stroke-width="9.6"/>
  <path d="M259.933 918.053l14.149-12.954 4.137 18.747z" stroke="#000" stroke-linejoin="round" stroke-width="2.396"/>
  <path d="M472.742 766.387c27.81-18.071 48.508-13.766 66.504-4.582" fill="none" stroke="#000" stroke-width="2.4"/>
  <path d="M541.71 763.062l-4.788.25 2.183-4.273z" stroke="#000" stroke-linejoin="round" stroke-width=".595"/>
  <path d="M471.948 759.47c30.267-20.97 22.396-44.579 18.223-51.825" fill="none" stroke="#000" stroke-width="3.2"/>
  <path d="M488.328 704.446l5.535 3.202-5.546 3.192z" stroke="#000" stroke-linejoin="round" stroke-width=".796"/>
  <path d="M471.34 761.906c33.816-22.027 33.941-33.304 35.45-44.66" fill="none" stroke="#000" stroke-width="2"/>
  <path d="M507.095 714.961l1.527 3.691-3.965-.527z" stroke="#000" stroke-linejoin="round" stroke-width=".504"/>
  <path d="M474.293 762.922c23.53-15.65 32.73-20.189 45.719-21.277" fill="none" stroke="#000" stroke-width="3.2"/>
  <path d="M523.692 741.333l-5.25 3.652-.535-6.379z" stroke="#000" stroke-linejoin="round" stroke-width=".803"/>
  <path d="M119.23 760.029C92.844 739.938 89.918 719 92.496 698.962" fill="none" stroke="#000" stroke-linecap="round" stroke-width="2.4"/>
  <path d="M112.988 763.105c-29.945-21.425-49.516-6.053-54.933.317" fill="none" stroke="#000" stroke-linecap="round" stroke-width="3.2"/>
  <path d="M115.488 762.86c-32.14-24.41-42.797-20.726-53.996-18.316" fill="none" stroke="#000" stroke-linecap="round" stroke-width="2"/>
  <path d="M115.45 759.74c-22.665-16.879-30.044-24.008-35.446-35.871" fill="none" stroke="#000" stroke-linecap="round" stroke-width="3.2"/>
  <path d="M319.859 887.989l-14.989-15.09" fill="none" stroke="#000" stroke-width="9.6"/>
  <path d="M327.668 895.844l-18.516-5.016 13.62-13.531z" stroke="#000" stroke-linejoin="round" stroke-width="2.396"/>
  <path d="M451.996 1155.35c-19.312-16.3-12.734-1.89-36.226-10.89-23.497-8.99-9.633-22.69-35.34-18.96-25.707 3.72-10.793-.27-34.539 11.32-23.75 11.58-13.789-1.47-32.723 15.62s-1.051 14.55-7.867 39.07c-6.817 24.52-6.254-.1-7.559 25.45-1.304 25.57-4.816 14.87 8.07 36.58 12.887 21.71 4.938 20.98 24.844 36.72 19.906 15.73-1.508-.86 22.524 8.17 24.031 9.03 16.601 13.25 42.882 11.15 26.282-2.1 8.36-4.12 31.739-13.55s3.406 6.88 21.804-10.36c18.399-17.23 2.625-19.76 13.817-42.75 11.195-23 16.371 1.91 15.324-24.81-1.043-26.73 2.629-16.13-10.867-38.8s3.426-7.66-15.883-23.96z" fill="#f5f5f5" fill-rule="nonzero" stroke="#ba1518" stroke-dasharray="9.28 9.28" stroke-width="3.09" transform="matrix(1 0 0 -.7848 0 1909.78)"/>
  <path d="M255.746 1112.87c-3.535-32.65 13.914-4.45-2.351-30.91-16.27-26.47-1.364-15.81-24.7-36.9s-6.363-7.77-35.734-20.85-14.012-6.51-46.719-5.05c-32.707 1.45-11.594-7.62-41.238 4.54-29.645 12.14-3.145 13.6-26.512 34.48-23.367 20.87-9.574-8.27-23.902 20.34s2.351 11.89 6.633 44.76c4.277 32.87-18.559 22.49-2.039 51.12 16.515 28.64 4.148-4.66 27.871 15.49 23.726 20.15 6.777 21.24 36.015 33.24 29.239 12.01 4.586 10.1 37.383 9.53 32.801-.57 18.004 15.32 47.137.42s10.008-21.42 29.965-47.26c19.961-25.86 10 .67 23.605-29.39 13.602-30.06-1.883-10.92-5.414-43.56z" fill="#f5f5f5" fill-rule="nonzero" stroke="#2571a1" stroke-dasharray="8.97 8.97" stroke-width="2.99" transform="matrix(1 0 0 -.83842 0 1894.08)"/>
  <path d="M481.934 673.723c0-.141-.11-.36-.36-.36-.39 0-1.828 1.438-2.437 2.469-.782-1.938-2.188-2.5-3.328-2.5-4.235 0-8.641 5.297-8.641 10.5 0 3.516 2.109 5.734 4.734 5.734 1.532 0 2.938-.859 4.235-2.14-.328 1.25-1.516 6.093-1.625 6.406-.282 1.016-.563 1.156-2.578 1.187-.469 0-.829 0-.829.719 0 .031 0 .391.469.391 1.156 0 2.406-.11 3.594-.11 1.219 0 2.5.11 3.687.11.172 0 .641 0 .641-.719 0-.391-.359-.391-.922-.391-1.734 0-1.734-.25-1.734-.578 0-.25.078-.453.156-.781zm-9.922 15.062c-2.157 0-2.297-2.766-2.297-3.375 0-1.719 1.031-5.625 1.64-7.141 1.11-2.656 2.985-4.156 4.454-4.156 2.328 0 2.828 2.906 2.828 3.156 0 .219-1.969 8.063-2.078 8.219-.532 1-2.547 3.297-4.547 3.297zm20.621 3.742c-.125.5-.344 1.36-.344 1.485 0 .547.453.797.859.797.454 0 .844-.329.969-.547.125-.235.328-1.032.453-1.563.125-.469.407-1.625.563-2.265.14-.547.297-1.094.422-1.672.281-1.078.281-1.141.781-1.907.797-1.234 2.047-2.671 4.016-2.671 1.406 0 1.484 1.156 1.484 1.765 0 1.5-1.094 4.297-1.484 5.344-.282.703-.375.937-.375 1.359 0 1.328 1.093 2.157 2.375 2.157 2.515 0 3.625-3.469 3.625-3.844 0-.328-.329-.328-.407-.328-.343 0-.375.156-.468.437-.579 2-1.672 3.031-2.672 3.031-.532 0-.625-.343-.625-.875 0-.578.125-.906.578-2.031.297-.781 1.328-3.437 1.328-4.844 0-.406 0-1.468-.922-2.187-.437-.328-1.156-.688-2.344-.688-2.25 0-3.64 1.485-4.437 2.547-.203-2.14-1.985-2.547-3.266-2.547-2.094 0-3.5 1.282-4.25 2.297-.172-1.734-1.656-2.297-2.687-2.297-1.078 0-1.657.782-1.985 1.36-.547.937-.89 2.359-.89 2.484 0 .328.343.328.422.328.343 0 .375-.078.546-.75.375-1.484.86-2.718 1.844-2.718.641 0 .828.562.828 1.234 0 .484-.234 1.406-.406 2.078-.172.688-.422 1.719-.562 2.266l-.797 3.218c-.094.329-.25.954-.25 1.032 0 .547.453.797.859.797.453 0 .844-.329.969-.547.125-.235.328-1.032.453-1.563.125-.469.406-1.625.562-2.265.141-.547.297-1.094.422-1.672.282-1.032.328-1.235 1.047-2.266.703-1 1.891-2.312 3.766-2.312 1.469 0 1.484 1.281 1.484 1.765 0 .625-.078.953-.422 2.36zm37.918-.203c-.578-5.547-5.485-9.359-10.813-9.359-6.422 0-10.859 5.422-10.859 10.672 0 .25 0 .828.625.828.578 0 .594-.531.594-.781.156-5.329 4.375-9.469 9.64-9.469 4.797 0 8.891 3.312 9.547 7.953a9.211 9.211 0 00-1.703-1.5c-1.125-.781-2.109-1.078-2.219-1.078-.297 0-.375.25-.375.453 0 .328.11.344.532.516 2.656 1.062 3.687 2.953 4.14 3.781a.362.362 0 00.328.219c.203 0 .25-.125.422-.407 1.391-2.562 3.453-3.359 4.172-3.64.281-.094.375-.141.375-.5 0-.094-.016-.422-.344-.422-.234 0-2.437.781-4.062 2.734zM271.09 777.527c-.152.739-.457 1.887-.457 2.125 0 .914.695 1.348 1.453 1.348.59 0 1.5-.391 1.848-1.391.043-.109.652-2.429.933-3.691l1.11-4.473c.3-1.105.585-2.191.843-3.344.196-.847.586-2.3.653-2.496.738-1.543 3.386-6.082 8.121-6.082 2.238 0 2.691 1.848 2.691 3.496 0 1.239-.347 2.629-.758 4.125l-1.39 5.778-1 3.801c-.196 1-.649 2.691-.649 2.929 0 .914.692 1.348 1.453 1.348 1.543 0 1.848-1.238 2.239-2.844.691-2.781 2.539-10.055 2.996-12.008.152-.629 2.777-6.625 8.23-6.625 2.125 0 2.668 1.696 2.668 3.496 0 2.848-2.082 8.512-3.082 11.165-.433 1.191-.652 1.734-.652 2.734 0 2.344 1.758 4.082 4.105 4.082 4.668 0 6.512-7.274 6.512-7.664 0-.5-.434-.5-.586-.5-.5 0-.5.152-.758.89-.738 2.649-2.347 6.188-5.082 6.188-.847 0-1.195-.5-1.195-1.648 0-1.239.457-2.434.891-3.54.957-2.585 3.039-8.121 3.039-10.968 0-3.235-1.973-5.321-5.731-5.321-3.734 0-6.277 2.196-8.121 4.821-.043-.649-.195-2.344-1.586-3.539-1.238-1.039-2.844-1.282-4.082-1.282-4.496 0-6.926 3.172-7.773 4.325-.262-2.848-2.344-4.325-4.582-4.325-2.301 0-3.258 1.934-3.692 2.825-.91 1.757-1.543 4.691-1.543 4.843 0 .5.5.5.586.5.5 0 .543-.046.848-1.152.848-3.539 1.848-5.93 3.648-5.93.782 0 1.543.391 1.543 2.305 0 1.039-.152 1.582-.804 4.168zM125.328 956.289c-.152.738-.457 1.887-.457 2.125 0 .914.695 1.348 1.453 1.348.586 0 1.5-.391 1.848-1.391.043-.109.652-2.43.933-3.691l1.106-4.473c.305-1.106.586-2.191.848-3.344a53.44 53.44 0 01.652-2.496c.738-1.543 3.387-6.082 8.121-6.082 2.234 0 2.691 1.848 2.691 3.496 0 1.238-.347 2.629-.757 4.125l-1.391 5.778-1 3.8c-.195 1-.652 2.692-.652 2.93 0 .914.695 1.348 1.457 1.348 1.539 0 1.843-1.239 2.234-2.844.695-2.781 2.543-10.055 2.996-12.008.152-.629 2.781-6.625 8.231-6.625 2.129 0 2.671 1.695 2.671 3.496 0 2.848-2.085 8.512-3.082 11.164-.433 1.192-.652 1.735-.652 2.735 0 2.343 1.758 4.082 4.106 4.082 4.668 0 6.511-7.274 6.511-7.664 0-.5-.433-.5-.586-.5-.5 0-.5.152-.757.89-.739 2.649-2.348 6.188-5.082 6.188-.848 0-1.196-.5-1.196-1.649 0-1.238.457-2.433.891-3.539.957-2.586 3.039-8.121 3.039-10.969 0-3.234-1.977-5.32-5.731-5.32-3.734 0-6.277 2.195-8.121 4.82-.043-.648-.195-2.343-1.586-3.539-1.238-1.039-2.843-1.281-4.082-1.281-4.496 0-6.929 3.172-7.773 4.324-.262-2.847-2.348-4.324-4.582-4.324-2.301 0-3.258 1.934-3.691 2.824-.915 1.758-1.543 4.692-1.543 4.844 0 .5.5.5.585.5.5 0 .543-.047.848-1.152.848-3.539 1.844-5.93 3.649-5.93.781 0 1.543.391 1.543 2.305 0 1.039-.153 1.582-.805 4.168zm43.762 0c-.152.738-.457 1.887-.457 2.125 0 .914.695 1.348 1.453 1.348.586 0 1.5-.391 1.848-1.391.043-.109.652-2.43.933-3.691l1.106-4.473c.304-1.106.586-2.191.847-3.344.196-.847.586-2.301.653-2.496.738-1.543 3.386-6.082 8.121-6.082 2.234 0 2.691 1.848 2.691 3.496 0 3.086-2.453 9.469-3.234 11.598-.457 1.148-.5 1.758-.5 2.301 0 2.343 1.738 4.082 4.082 4.082 4.691 0 6.515-7.274 6.515-7.664 0-.5-.433-.5-.586-.5-.5 0-.5.152-.761.89-.977 3.387-2.625 6.188-5.082 6.188-.844 0-1.192-.5-1.192-1.649 0-1.238.453-2.433.911-3.539.933-2.652 3.039-8.121 3.039-10.969 0-3.343-2.149-5.32-5.731-5.32-4.496 0-6.926 3.172-7.773 4.324-.262-2.781-2.305-4.324-4.582-4.324-2.301 0-3.258 1.934-3.758 2.824-.781 1.696-1.477 4.649-1.477 4.844 0 .5.5.5.586.5.5 0 .543-.047.848-1.152.848-3.539 1.848-5.93 3.648-5.93 1 0 1.543.652 1.543 2.305 0 1.039-.152 1.582-.804 4.168zm188.598 9.805c-.153.738-.458 1.886-.458 2.125 0 .914.696 1.347 1.458 1.347.585 0 1.496-.39 1.843-1.39.047-.11.653-2.43.934-3.692l1.109-4.472c.305-1.106.586-2.192.848-3.344.195-.848.586-2.301.648-2.496.739-1.543 3.391-6.082 8.125-6.082 2.235 0 2.692 1.847 2.692 3.496 0 1.238-.348 2.629-.762 4.125l-1.391 5.777-.996 3.801c-.195 1-.652 2.691-.652 2.93 0 .914.695 1.347 1.453 1.347 1.543 0 1.848-1.238 2.238-2.843.696-2.782 2.539-10.055 2.996-12.008.153-.629 2.782-6.625 8.231-6.625 2.129 0 2.672 1.695 2.672 3.496 0 2.844-2.086 8.512-3.086 11.164-.434 1.191-.649 1.734-.649 2.734 0 2.344 1.758 4.082 4.102 4.082 4.668 0 6.516-7.273 6.516-7.664 0-.5-.434-.5-.586-.5-.5 0-.5.153-.762.891-.738 2.648-2.344 6.187-5.082 6.187-.844 0-1.191-.5-1.191-1.648 0-1.238.453-2.434.89-3.539.953-2.586 3.039-8.125 3.039-10.969 0-3.234-1.976-5.32-5.734-5.32-3.735 0-6.274 2.195-8.121 4.82-.043-.648-.196-2.344-1.586-3.539-1.235-1.039-2.844-1.281-4.082-1.281-4.492 0-6.926 3.172-7.774 4.324-.258-2.848-2.343-4.324-4.582-4.324-2.3 0-3.254 1.933-3.691 2.824-.91 1.758-1.539 4.691-1.539 4.844 0 .496.5.496.586.496.5 0 .543-.043.847-1.149.844-3.539 1.844-5.929 3.649-5.929.781 0 1.539.39 1.539 2.304 0 1.04-.152 1.582-.801 4.168zm62.742-10.684c0-5.168-3.477-8.406-7.969-8.406-6.668 0-13.356 7.082-13.356 14.137 0 4.953 3.344 8.425 7.969 8.425 6.645 0 13.356-6.863 13.356-14.156zm-13.289 13.07c-2.153 0-4.344-1.543-4.344-5.429 0-2.453 1.301-7.836 2.887-10.379 2.496-3.821 5.343-4.582 6.73-4.582 2.891 0 4.387 2.39 4.387 5.386 0 1.934-.996 7.165-2.887 10.422-1.758 2.887-4.496 4.582-6.773 4.582zM186 903.902c0-.14-.109-.359-.359-.359-.391 0-1.829 1.437-2.438 2.469-.781-1.938-2.187-2.5-3.328-2.5-4.234 0-8.641 5.297-8.641 10.5 0 3.515 2.11 5.734 4.735 5.734 1.531 0 2.937-.859 4.234-2.141-.328 1.25-1.515 6.094-1.625 6.407-.281 1.015-.562 1.156-2.578 1.187-.469 0-.828 0-.828.719 0 .031 0 .391.469.391 1.156 0 2.406-.11 3.593-.11 1.219 0 2.5.11 3.688.11.172 0 .64 0 .64-.719 0-.391-.359-.391-.921-.391-1.735 0-1.735-.25-1.735-.578 0-.25.078-.453.156-.781zm-9.922 15.063c-2.156 0-2.297-2.766-2.297-3.375 0-1.719 1.031-5.625 1.641-7.141 1.109-2.656 2.984-4.156 4.453-4.156 2.328 0 2.828 2.906 2.828 3.156 0 .219-1.969 8.063-2.078 8.219-.531 1-2.547 3.297-4.547 3.297zm20.621 3.738c-.125.5-.344 1.359-.344 1.484 0 .547.454.797.86.797.453 0 .844-.328.969-.547.125-.234.328-1.031.453-1.562.125-.469.406-1.625.562-2.266.141-.547.297-1.093.422-1.672.281-1.078.281-1.14.781-1.906.797-1.234 2.047-2.672 4.016-2.672 1.406 0 1.484 1.157 1.484 1.766 0 1.5-1.093 4.297-1.484 5.344-.281.703-.375.937-.375 1.359 0 1.328 1.094 2.156 2.375 2.156 2.516 0 3.625-3.468 3.625-3.843 0-.329-.328-.329-.406-.329-.344 0-.375.157-.469.438-.578 2-1.672 3.031-2.672 3.031-.531 0-.625-.344-.625-.875 0-.578.125-.906.578-2.031.297-.781 1.328-3.438 1.328-4.844 0-.406 0-1.469-.922-2.187-.437-.328-1.156-.688-2.343-.688-2.25 0-3.641 1.485-4.438 2.547-.203-2.141-1.984-2.547-3.265-2.547-2.094 0-3.5 1.281-4.25 2.297-.172-1.734-1.657-2.297-2.688-2.297-1.078 0-1.656.781-1.984 1.36-.547.937-.891 2.359-.891 2.484 0 .328.344.328.422.328.344 0 .375-.078.547-.75.375-1.484.859-2.719 1.844-2.719.64 0 .828.563.828 1.235 0 .484-.235 1.406-.407 2.078-.171.687-.421 1.719-.562 2.265l-.797 3.219c-.094.328-.25.953-.25 1.031 0 .547.453.797.859.797.454 0 .844-.328.969-.547.125-.234.328-1.031.453-1.562.125-.469.407-1.625.563-2.266.14-.547.297-1.093.422-1.672.281-1.031.328-1.234 1.047-2.265.703-1 1.89-2.313 3.765-2.313 1.469 0 1.485 1.282 1.485 1.766 0 .625-.079.953-.422 2.359zm17.621.453c-.093.328-.25.953-.25 1.031 0 .547.453.797.86.797.453 0 .843-.328.968-.547.125-.234.329-1.031.454-1.562.125-.469.406-1.625.562-2.266.141-.547.297-1.093.422-1.672.281-1.031.328-1.234 1.047-2.265.703-1 1.89-2.313 3.765-2.313 1.469 0 1.485 1.282 1.485 1.766 0 1.5-1.078 4.297-1.485 5.344-.265.703-.375.937-.375 1.359 0 1.328 1.11 2.156 2.391 2.156 2.516 0 3.609-3.468 3.609-3.843 0-.329-.312-.329-.39-.329-.36 0-.375.157-.485.438-.578 2-1.656 3.031-2.656 3.031-.531 0-.625-.344-.625-.875 0-.578.125-.906.578-2.031.297-.781 1.328-3.438 1.328-4.844 0-2.437-1.937-2.875-3.265-2.875-2.094 0-3.5 1.281-4.25 2.297-.172-1.734-1.656-2.297-2.688-2.297-1.078 0-1.656.781-1.984 1.36-.547.937-.891 2.359-.891 2.484 0 .328.344.328.422.328.344 0 .375-.078.547-.75.375-1.484.859-2.719 1.844-2.719.64 0 .828.563.828 1.235 0 .484-.234 1.406-.406 2.078-.172.687-.422 1.719-.563 2.265zm21.172-.812c.688-4.735 4.844-7.953 9.516-7.953 5.625 0 9.5 4.546 9.64 9.296 0 .469.032.954.61.954.625 0 .625-.579.625-.829 0-5.281-4.438-10.671-10.844-10.671-5.375 0-10.219 3.812-10.797 9.359-1.64-1.953-3.844-2.734-4.062-2.734-.328 0-.36.328-.36.421 0 .36.047.375.5.547 2.688 1.094 3.719 3 4.141 3.782.125.218.312.218.328.218.234 0 .297-.156.375-.297 1.406-2.609 3.344-3.39 4.25-3.765.219-.078.375-.125.375-.453 0-.203-.078-.453-.375-.453-.125 0-1.109.328-2.141 1-.921.625-1.5 1.281-1.781 1.578zm114.981-24.289c0-.141-.11-.36-.36-.36-.39 0-1.828 1.438-2.437 2.469-.781-1.938-2.188-2.5-3.328-2.5-4.235 0-8.641 5.297-8.641 10.5 0 3.516 2.109 5.734 4.734 5.734 1.532 0 2.938-.859 4.235-2.14-.328 1.25-1.516 6.093-1.625 6.406-.281 1.016-.563 1.156-2.578 1.187-.469 0-.828 0-.828.719 0 .031 0 .391.468.391 1.157 0 2.407-.11 3.594-.11 1.219 0 2.5.11 3.688.11.171 0 .64 0 .64-.719 0-.391-.359-.391-.922-.391-1.734 0-1.734-.25-1.734-.578 0-.25.078-.453.156-.781zm-9.922 15.062c-2.156 0-2.297-2.766-2.297-3.375 0-1.719 1.031-5.625 1.641-7.141 1.109-2.656 2.984-4.156 4.453-4.156 2.328 0 2.828 2.906 2.828 3.156 0 .219-1.969 8.063-2.078 8.219-.532 1-2.547 3.297-4.547 3.297zm20.621 3.738c-.125.5-.344 1.36-.344 1.485 0 .547.453.797.86.797.453 0 .843-.328.968-.547.125-.235.328-1.031.453-1.563.125-.468.407-1.625.563-2.265.14-.547.297-1.094.422-1.672.281-1.078.281-1.141.781-1.906.797-1.235 2.047-2.672 4.016-2.672 1.406 0 1.484 1.156 1.484 1.765 0 1.5-1.094 4.297-1.484 5.344-.282.703-.375.938-.375 1.359 0 1.329 1.093 2.157 2.375 2.157 2.515 0 3.625-3.469 3.625-3.844 0-.328-.328-.328-.407-.328-.343 0-.375.156-.468.437-.579 2-1.672 3.032-2.672 3.032-.531 0-.625-.344-.625-.875 0-.579.125-.907.578-2.032.297-.781 1.328-3.437 1.328-4.843 0-.407 0-1.469-.922-2.188-.437-.328-1.156-.687-2.344-.687-2.25 0-3.64 1.484-4.437 2.546-.203-2.14-1.985-2.546-3.266-2.546-2.093 0-3.5 1.281-4.25 2.296-.172-1.734-1.656-2.296-2.687-2.296-1.078 0-1.656.781-1.985 1.359-.547.937-.89 2.359-.89 2.484 0 .328.343.328.422.328.343 0 .375-.078.547-.75.374-1.484.859-2.718 1.843-2.718.641 0 .828.562.828 1.234 0 .484-.234 1.406-.406 2.078-.172.688-.422 1.719-.562 2.266l-.797 3.219c-.094.328-.25.953-.25 1.031 0 .547.453.797.859.797.453 0 .844-.328.969-.547.125-.235.328-1.031.453-1.563.125-.468.406-1.625.563-2.265.14-.547.296-1.094.421-1.672.282-1.031.329-1.235 1.047-2.266.703-1 1.891-2.312 3.766-2.312 1.469 0 1.484 1.281 1.484 1.765 0 .625-.078.953-.422 2.36zm27.887-4.64c0-2.797-2.079-4.406-4.547-4.406-3.703 0-7.219 3.5-7.219 6.937 0 2.516 1.828 4.391 4.562 4.391 3.594 0 7.204-3.313 7.204-6.922zm-7.172 6.219c-1.266 0-2.516-.797-2.516-2.782 0-1.031.484-3.5 1.453-4.922 1.078-1.562 2.547-2.218 3.672-2.218 1.359 0 2.516.937 2.516 2.797 0 .593-.313 3.078-1.407 4.843-.968 1.485-2.468 2.282-3.718 2.282zm14.504-1.938c.687-4.734 4.843-7.953 9.515-7.953 5.625 0 9.5 4.547 9.641 9.297 0 .469.031.953.609.953.625 0 .625-.578.625-.828 0-5.281-4.437-10.672-10.843-10.672-5.376 0-10.219 3.812-10.797 9.359-1.641-1.953-3.844-2.734-4.063-2.734-.328 0-.359.328-.359.422 0 .359.047.375.5.547 2.687 1.093 3.719 3 4.14 3.781.125.219.313.219.329.219.234 0 .296-.157.374-.297 1.407-2.61 3.344-3.391 4.25-3.766.219-.078.376-.125.376-.453 0-.203-.079-.453-.376-.453-.124 0-1.109.328-2.14 1-.922.625-1.5 1.281-1.781 1.578z" fill-rule="nonzero"/>
  <path d="M787.613 804.094c60.204 57.19 149.918 82.491 190.52 39.297" fill="none" stroke="#000" stroke-width="9.6"/>
  <path d="M985.72 835.317l-4.379 18.676-13.992-13.15z" stroke="#000" stroke-linejoin="round" stroke-width="2.402"/>
  <path d="M786.266 818.684c73.164 36.835 87.042 63.355 100.984 122.824" fill="none" stroke="#000" stroke-width="9.6"/>
  <path d="M889.773 952.295l-13.137-13.979 18.695-4.382z" stroke="#000" stroke-linejoin="round" stroke-width="2.403"/>
  <path d="M681.938 892.92c-20.989 23.885-14.594.059-25.59 32.281-11 32.222 3.574 10.351 3.797 42.22.222 31.869-19.54 21.846-.786 50.349 18.754 28.5 14.133-1.33 37.996 22.47 23.868 23.8 5.333 26.61 36.293 35.09 30.961 8.47 11.977 2.7 44.559-3.44s14.234 14.47 45.762 1.81c31.523-12.66-1.746-20.19 21.668-43.77 23.41-23.59 30.609-3.87 41.777-35.43 11.168-31.555-5.262-4.392-7.035-37.29-1.774-32.894 6.141-21.782-12.184-50.622-18.328-28.839-10.379 7.77-34.613-14.176-24.234-21.94 9.949-37.877-22.227-44.886-32.175-7.013-12.902 17.126-44.558 20.867-31.656 3.735-17.785-28.139-46.719-11.62-28.93 16.514-17.152 12.266-38.14 36.147z" fill="#ebebeb" fill-rule="nonzero" stroke="#000" stroke-dasharray="9.27 9.27" stroke-width="3.09" transform="matrix(1 0 0 -.78532 0 1513.02)"/>
  <path d="M933.316 1003.969c7.746-70.993 7.4-179.934-47.765-204.111" fill="none" stroke="#000" stroke-width="9.6"/>
  <path d="M875.402 795.4l19.064-2.123-7.709 17.585z" stroke="#000" stroke-linejoin="round" stroke-width="2.402"/>
  <path d="M941.559 973.92c-.954-42.602-3.278-81.208 35.067-127.172" fill="none" stroke="#000" stroke-width="4.8"/>
  <path d="M874.387 1243.3c-40.797 43.42-41.93 7.33-73.203 61.23-9.731 16.77 26.722 3.29 28.925 21.72 7.075 59.18-36.148 27.86-17.171 87.07 5.902 18.43 13.042-13.81 27.402-1.3 46.144 40.18 3.66 38.26 55.855 64.59 16.243 8.19-4.894-9.74 13.828-12.85 60.168-10 24.325 22.76 83.129 11.32 18.298-3.56 4.36-14.46 16.168-28.97 37.97-46.61 21.31-1.23 52.44-51.66 9.68-15.69-7.08-2.49-8.51-21.71-4.6-61.8 13.27-21.33-2.89-78.49-5.03-17.79-8.34.03-22.38-13.03-45.128-42 7.16-25.2-40.82-58.85-14.93-10.47-15.195 4.54-33.906 5.05-60.125 1.64-25.027-27.28-83.109-13.08-18.075 4.42 16.941 15.45 4.242 28.96z" fill="#ebebeb" fill-rule="nonzero" stroke="#979797" stroke-dasharray="9.27 9.27" stroke-width="3.09" transform="matrix(1 0 0 -.78562 0 2110.7)"/>
  <path d="M1053.754 801.555c-73.922 19.593-107.849 25.922-161.407-.797m97.093 18.609c-60.868 7.867-113.488 55.895-99.274 115.935" fill="none" stroke="#000" stroke-width="6.4"/>
  <path d="M985.426 1054.52c5.769 25.46-12.836 15.01 3.426 34.44 16.258 19.43 17.458-7.16 39.548 6.14 22.1 13.3-4.84 16.18 20.26 17.78 25.11 1.6 14.06-3.59 39.98-9.85 25.91-6.27 17.16 4.06 36.4-12.83 19.25-16.9 4.14-4.04 13.45-28.56 9.31-24.51 8.91-5.94 9.6-32.04.7-26.1-.79-12.35-11.06-35.931-10.27-23.579 10.4-13.686-6.46-32.595-16.86-18.914-7.21-4.715-30.31-16.953-23.11-12.242-14.99-15.424-40.5-16.136s-9.07 13.562-33.53 23.525c-24.46 9.962-3.46-17.54-22.63.229-19.162 17.769-5.737 13.318-19.639 34.811-13.902 21.49-20.188 6.537-23.391 32.04-3.203 25.51 19.082 10.48 24.856 35.93z" fill="#ebebeb" fill-rule="nonzero" stroke="#fff" stroke-dasharray="9.28 9.28" stroke-width="3.09" transform="matrix(1 0 0 -.7846 0 1601.95)"/>
  <path d="M753.926 764.574c-.149.735-.453 1.879-.453 2.113 0 .907.691 1.34 1.445 1.34.582 0 1.488-.39 1.836-1.383.043-.105.644-2.414.926-3.668l1.101-4.441c.301-1.101.582-2.18.84-3.324.195-.84.582-2.285.649-2.481.734-1.531 3.363-6.039 8.066-6.039 2.223 0 2.676 1.832 2.676 3.473 0 1.23-.344 2.609-.754 4.098L768.875 760l-.992 3.777c-.192.992-.645 2.676-.645 2.91 0 .907.688 1.34 1.446 1.34 1.531 0 1.832-1.23 2.218-2.828.692-2.762 2.528-9.988 2.981-11.93.148-.625 2.758-6.578 8.176-6.578 2.113 0 2.652 1.684 2.652 3.473 0 2.828-2.07 8.457-3.063 11.09-.433 1.183-.648 1.722-.648 2.715 0 2.332 1.746 4.058 4.078 4.058 4.637 0 6.473-7.226 6.473-7.617 0-.496-.434-.496-.586-.496-.496 0-.496.152-.754.887-.734 2.629-2.328 6.148-5.047 6.148-.844 0-1.187-.496-1.187-1.64 0-1.231.453-2.418.886-3.516.949-2.567 3.02-8.07 3.02-10.895 0-3.214-1.965-5.285-5.695-5.285-3.711 0-6.235 2.18-8.071 4.789-.043-.648-.191-2.332-1.574-3.515-1.231-1.036-2.824-1.274-4.055-1.274-4.465 0-6.883 3.149-7.722 4.293-.258-2.828-2.332-4.293-4.551-4.293-2.289 0-3.238 1.918-3.668 2.805-.906 1.746-1.531 4.66-1.531 4.808 0 .497.496.497.582.497.496 0 .539-.043.84-1.141.843-3.52 1.835-5.891 3.624-5.891.778 0 1.532.387 1.532 2.285 0 1.036-.153 1.575-.797 4.145zm289.824 44.399c-.14.734-.45 1.875-.45 2.113 0 .906.69 1.34 1.45 1.34.58 0 1.48-.391 1.83-1.383.04-.106.65-2.414.93-3.668l1.1-4.441c.3-1.102.58-2.18.84-3.325.19-.84.58-2.285.65-2.48.73-1.531 3.36-6.039 8.06-6.039 2.23 0 2.68 1.832 2.68 3.472 0 3.063-2.44 9.407-3.22 11.52-.45 1.144-.49 1.746-.49 2.285 0 2.332 1.73 4.059 4.05 4.059 4.66 0 6.48-7.227 6.48-7.617 0-.497-.43-.497-.59-.497-.49 0-.49.153-.75.887-.97 3.363-2.61 6.145-5.05 6.145-.84 0-1.18-.496-1.18-1.637 0-1.231.45-2.418.9-3.516.93-2.632 3.02-8.07 3.02-10.894 0-3.324-2.13-5.285-5.69-5.285-4.47 0-6.89 3.148-7.73 4.293-.25-2.762-2.28-4.293-4.55-4.293-2.29 0-3.23 1.918-3.73 2.804-.78 1.68-1.47 4.614-1.47 4.809 0 .496.5.496.59.496.49 0 .53-.043.84-1.145.84-3.515 1.83-5.886 3.62-5.886.99 0 1.53.644 1.53 2.285 0 1.035-.15 1.574-.8 4.141zm-101.004 242.55c0-5.136-3.453-8.351-7.918-8.351-6.621 0-13.266 7.035-13.266 14.047 0 4.918 3.321 8.367 7.915 8.367 6.601 0 13.269-6.817 13.269-14.063zm-13.203 12.985c-2.137 0-4.316-1.532-4.316-5.395 0-2.437 1.296-7.785 2.871-10.308 2.48-3.797 5.304-4.555 6.687-4.555 2.867 0 4.356 2.375 4.356 5.351 0 1.922-.993 7.118-2.868 10.356-1.746 2.867-4.464 4.551-6.73 4.551zM817.914 767.394c0-.14-.109-.359-.359-.359-.391 0-1.828 1.438-2.438 2.469-.781-1.938-2.187-2.5-3.328-2.5-4.234 0-8.641 5.297-8.641 10.5 0 3.515 2.11 5.734 4.735 5.734 1.531 0 2.937-.859 4.234-2.14-.328 1.25-1.515 6.093-1.625 6.406-.281 1.015-.562 1.156-2.578 1.187-.469 0-.828 0-.828.719 0 .031 0 .391.469.391 1.156 0 2.406-.11 3.593-.11 1.219 0 2.5.11 3.688.11.172 0 .641 0 .641-.719 0-.391-.36-.391-.922-.391-1.735 0-1.735-.25-1.735-.578 0-.25.078-.453.157-.781zm-9.922 15.063c-2.156 0-2.297-2.766-2.297-3.375 0-1.719 1.032-5.625 1.641-7.141 1.109-2.656 2.984-4.156 4.453-4.156 2.328 0 2.828 2.906 2.828 3.156 0 .219-1.969 8.063-2.078 8.219-.531 1-2.547 3.297-4.547 3.297zm20.621 3.742c-.125.5-.343 1.36-.343 1.485 0 .546.453.796.859.796.453 0 .844-.328.969-.546.125-.235.328-1.032.453-1.563.125-.469.406-1.625.562-2.266.141-.546.297-1.093.422-1.671.281-1.079.281-1.141.781-1.907.797-1.234 2.047-2.672 4.016-2.672 1.406 0 1.484 1.157 1.484 1.766 0 1.5-1.093 4.297-1.484 5.344-.281.703-.375.937-.375 1.359 0 1.328 1.094 2.156 2.375 2.156 2.516 0 3.625-3.468 3.625-3.843 0-.328-.328-.328-.406-.328-.344 0-.375.156-.469.437-.578 2-1.672 3.031-2.672 3.031-.531 0-.625-.343-.625-.875 0-.578.125-.906.578-2.031.297-.781 1.328-3.437 1.328-4.844 0-.406 0-1.468-.921-2.187-.438-.328-1.157-.688-2.344-.688-2.25 0-3.641 1.485-4.438 2.547-.203-2.14-1.984-2.547-3.265-2.547-2.094 0-3.5 1.282-4.25 2.297-.172-1.734-1.657-2.297-2.688-2.297-1.078 0-1.656.782-1.984 1.36-.547.937-.891 2.359-.891 2.484 0 .328.344.328.422.328.344 0 .375-.078.547-.75.375-1.484.859-2.719 1.844-2.719.64 0 .828.563.828 1.235 0 .484-.235 1.406-.406 2.078-.172.687-.422 1.719-.563 2.266l-.797 3.218c-.094.328-.25.953-.25 1.032 0 .546.453.796.86.796.453 0 .843-.328.968-.546.125-.235.328-1.032.453-1.563.125-.469.407-1.625.563-2.266.141-.546.297-1.093.422-1.671.281-1.032.328-1.235 1.047-2.266.703-1 1.89-2.313 3.765-2.313 1.469 0 1.485 1.282 1.485 1.766 0 .625-.078.953-.422 2.359zm21.063-.359c.687-4.735 4.844-7.953 9.515-7.953 5.625 0 9.5 4.547 9.641 9.297 0 .468.031.953.609.953.625 0 .625-.578.625-.828 0-5.282-4.437-10.672-10.843-10.672-5.375 0-10.219 3.812-10.797 9.359-1.641-1.953-3.844-2.734-4.063-2.734-.328 0-.359.328-.359.422 0 .359.047.375.5.546 2.687 1.094 3.719 3 4.141 3.782.125.218.312.218.328.218.234 0 .297-.156.375-.296 1.406-2.61 3.343-3.391 4.25-3.766.218-.078.375-.125.375-.453 0-.203-.078-.453-.375-.453-.125 0-1.11.328-2.141 1-.922.625-1.5 1.281-1.781 1.578zm161.544 35.867c0-.141-.11-.359-.36-.359-.39 0-1.83 1.437-2.44 2.468-.78-1.937-2.19-2.5-3.33-2.5-4.23 0-8.637 5.297-8.637 10.5 0 3.516 2.109 5.735 4.737 5.735 1.53 0 2.93-.86 4.23-2.141-.33 1.25-1.51 6.094-1.62 6.406-.28 1.016-.57 1.157-2.58 1.188-.47 0-.83 0-.83.719 0 .031 0 .39.47.39 1.16 0 2.41-.109 3.59-.109 1.22 0 2.5.109 3.69.109.17 0 .64 0 .64-.719 0-.39-.36-.39-.92-.39-1.74 0-1.74-.25-1.74-.578 0-.25.08-.453.16-.782zm-9.92 15.062c-2.159 0-2.3-2.765-2.3-3.375 0-1.718 1.03-5.625 1.64-7.14 1.11-2.656 2.98-4.156 4.45-4.156 2.33 0 2.83 2.906 2.83 3.156 0 .219-1.97 8.062-2.08 8.219-.53 1-2.54 3.296-4.54 3.296zm12.79 4.196c-.09.328-.25.953-.25 1.031 0 .547.45.797.86.797.45 0 .84-.328.97-.547.12-.234.33-1.031.45-1.562.13-.469.41-1.625.56-2.266.14-.547.3-1.094.43-1.672.28-1.031.32-1.234 1.04-2.266.71-1 1.89-2.312 3.77-2.312 1.47 0 1.48 1.281 1.48 1.766 0 1.5-1.08 4.296-1.48 5.343-.27.703-.38.938-.38 1.36 0 1.328 1.11 2.156 2.39 2.156 2.52 0 3.61-3.469 3.61-3.844 0-.328-.31-.328-.39-.328-.36 0-.37.156-.48.438-.58 2-1.66 3.031-2.66 3.031-.53 0-.62-.344-.62-.875 0-.578.12-.906.58-2.031.29-.782 1.32-3.438 1.32-4.844 0-2.438-1.93-2.875-3.26-2.875-2.1 0-3.5 1.281-4.25 2.297-.17-1.735-1.66-2.297-2.69-2.297-1.08 0-1.66.781-1.98 1.359-.55.938-.89 2.36-.89 2.485 0 .328.34.328.42.328.34 0 .37-.078.54-.75.38-1.485.86-2.719 1.85-2.719.64 0 .83.562.83 1.234 0 .485-.24 1.407-.41 2.078-.17.688-.42 1.719-.56 2.266zm21.16-.813c.69-4.734 4.85-7.953 9.52-7.953 5.62 0 9.5 4.547 9.64 9.297 0 .469.03.953.61.953.62 0 .62-.578.62-.828 0-5.281-4.43-10.672-10.84-10.672-5.37 0-10.22 3.813-10.8 9.36-1.64-1.954-3.84-2.735-4.06-2.735-.33 0-.36.328-.36.422 0 .359.05.375.5.547 2.69 1.094 3.72 3 4.14 3.781.13.219.32.219.33.219.24 0 .3-.156.38-.297 1.4-2.609 3.34-3.391 4.25-3.766.21-.078.37-.125.37-.453 0-.203-.08-.453-.37-.453-.13 0-1.11.328-2.14 1-.93.625-1.5 1.281-1.79 1.578zM892.293 962.363c0-.14-.109-.359-.359-.359-.391 0-1.829 1.437-2.438 2.469-.781-1.938-2.187-2.5-3.328-2.5-4.234 0-8.641 5.296-8.641 10.5 0 3.515 2.11 5.734 4.735 5.734 1.531 0 2.937-.859 4.234-2.141-.328 1.25-1.516 6.094-1.625 6.407-.281 1.015-.562 1.156-2.578 1.187-.469 0-.828 0-.828.719 0 .031 0 .39.469.39 1.156 0 2.406-.109 3.593-.109 1.219 0 2.5.109 3.688.109.172 0 .64 0 .64-.718 0-.391-.359-.391-.921-.391-1.735 0-1.735-.25-1.735-.578 0-.25.078-.453.156-.781zm-9.922 15.063c-2.156 0-2.297-2.766-2.297-3.375 0-1.719 1.031-5.625 1.641-7.141 1.109-2.656 2.984-4.156 4.453-4.156 2.328 0 2.828 2.906 2.828 3.156 0 .219-1.969 8.063-2.078 8.219-.531 1-2.547 3.297-4.547 3.297zm23.063-.899c0-2.797-2.079-4.406-4.547-4.406-3.703 0-7.219 3.5-7.219 6.938 0 2.515 1.828 4.39 4.562 4.39 3.594 0 7.204-3.312 7.204-6.922zm-7.172 6.219c-1.266 0-2.516-.797-2.516-2.781 0-1.031.484-3.5 1.453-4.922 1.078-1.563 2.547-2.219 3.672-2.219 1.359 0 2.516.938 2.516 2.797 0 .594-.313 3.078-1.407 4.844-.968 1.484-2.468 2.281-3.718 2.281zm14.496-1.937c.687-4.735 4.844-7.954 9.515-7.954 5.625 0 9.5 4.547 9.641 9.297 0 .469.031.953.609.953.625 0 .625-.578.625-.828 0-5.281-4.437-10.672-10.843-10.672-5.375 0-10.219 3.813-10.797 9.36-1.641-1.953-3.844-2.735-4.063-2.735-.328 0-.359.329-.359.422 0 .36.047.375.5.547 2.687 1.094 3.719 3 4.141 3.781.125.219.312.219.328.219.234 0 .297-.156.375-.297 1.406-2.609 3.343-3.39 4.25-3.765.218-.078.375-.125.375-.453 0-.204-.078-.454-.375-.454-.125 0-1.11.329-2.141 1-.922.625-1.5 1.282-1.781 1.579zM19.697 22.19c.8-1.92 2.016-3.968 3.584-6.176h3.36l-.928 1.728a26.007 26.007 0 00-2.752 7.584c-.32 1.728-.48 3.616-.48 5.632 0 3.2.448 6.144 1.376 8.8.544 1.6 1.504 3.616 2.88 6.112h-3.296l-1.12-1.536c-.704-.896-1.472-2.272-2.304-4.096-1.44-3.232-2.176-6.4-2.176-9.536 0-2.88.64-5.696 1.856-8.512zm18.878 8.928c-.256.192-.544.32-.832.448a9.191 9.191 0 01-1.184.288l-.992.192c-.96.16-1.632.384-2.016.608-.704.416-1.056 1.024-1.056 1.888 0 .768.224 1.312.64 1.664.416.32.928.512 1.536.512.96 0 1.856-.288 2.656-.864.8-.544 1.216-1.568 1.248-3.072zm-2.688-2.08c.832-.096 1.408-.224 1.76-.384.64-.256.96-.704.96-1.248 0-.704-.256-1.184-.736-1.472-.48-.256-1.184-.384-2.112-.384-1.056 0-1.824.256-2.24.768-.32.384-.544.928-.64 1.568H28.59c.096-1.472.512-2.72 1.248-3.68 1.184-1.472 3.2-2.24 6.048-2.24 1.888 0 3.52.384 4.992 1.12 1.44.736 2.176 2.112 2.176 4.192v7.808c0 .544 0 1.184.032 1.952.032.576.096.992.256 1.184.128.224.352.384.64.512v.672H39.15a7.784 7.784 0 01-.288-.96c-.032-.32-.096-.64-.128-1.056a9.237 9.237 0 01-2.112 1.728c-.96.544-2.048.832-3.264.832-1.536 0-2.816-.448-3.808-1.344-.992-.864-1.504-2.112-1.504-3.744 0-2.08.8-3.584 2.4-4.544.896-.512 2.208-.864 3.936-1.088zm12.802-13.024c1.568 2.208 2.784 4.256 3.584 6.176 1.248 2.816 1.856 5.632 1.856 8.512 0 3.136-.736 6.304-2.176 9.536-.832 1.824-1.6 3.2-2.304 4.096l-1.12 1.536h-3.296c1.376-2.496 2.336-4.512 2.88-6.112.928-2.656 1.408-5.6 1.408-8.8a30.95 30.95 0 00-.512-5.632 26.007 26.007 0 00-2.752-7.584l-.928-1.728zm578.208 6.176c.8-1.92 2.016-3.968 3.584-6.176h3.36l-.928 1.728a26.007 26.007 0 00-2.752 7.584c-.32 1.728-.48 3.616-.48 5.632 0 3.2.448 6.144 1.376 8.8.544 1.6 1.504 3.616 2.88 6.112h-3.296l-1.12-1.536c-.704-.896-1.472-2.272-2.304-4.096-1.44-3.232-2.176-6.4-2.176-9.536 0-2.88.64-5.696 1.856-8.512zm18.707-.192c2.24 0 3.968.8 5.248 2.432 1.248 1.6 1.888 3.68 1.888 6.24 0 2.656-.608 4.832-1.856 6.592-1.248 1.728-3.008 2.592-5.248 2.592-1.408 0-2.528-.288-3.392-.832-.512-.352-1.056-.928-1.664-1.76v2.144h-4.352V16.398h4.448v8.192c.544-.8 1.184-1.408 1.856-1.824.8-.512 1.824-.768 3.072-.768zm-1.152 14.176c1.152 0 2.048-.448 2.656-1.376.64-.928.96-2.144.96-3.648 0-1.216-.16-2.208-.448-3.008-.608-1.504-1.696-2.24-3.296-2.24s-2.72.736-3.328 2.176c-.32.8-.48 1.792-.48 3.04 0 1.472.32 2.688.992 3.616.64.96 1.632 1.44 2.944 1.44zm13.165-20.16c1.568 2.208 2.784 4.256 3.584 6.176 1.248 2.816 1.856 5.632 1.856 8.512 0 3.136-.736 6.304-2.176 9.536-.832 1.824-1.6 3.2-2.304 4.096l-1.12 1.536h-3.296c1.376-2.496 2.336-4.512 2.88-6.112.928-2.656 1.408-5.6 1.408-8.8a30.95 30.95 0 00-.512-5.632 26.007 26.007 0 00-2.752-7.584l-.928-1.728zM17.841 629.389c.8-1.92 2.016-3.968 3.584-6.176h3.36l-.928 1.728a26.007 26.007 0 00-2.752 7.584c-.32 1.728-.48 3.616-.48 5.632 0 3.2.448 6.144 1.376 8.8.544 1.6 1.504 3.616 2.88 6.112h-3.296l-1.12-1.536c-.704-.896-1.472-2.272-2.304-4.096-1.44-3.232-2.176-6.4-2.176-9.536 0-2.88.64-5.696 1.856-8.512zm19.678 6.304c-.096-.64-.288-1.216-.64-1.728-.512-.704-1.28-1.024-2.336-1.024-1.504 0-2.528.736-3.072 2.24-.288.768-.448 1.824-.448 3.136 0 1.248.16 2.272.448 3.008.512 1.44 1.536 2.144 3.008 2.144 1.024 0 1.76-.288 2.208-.864.448-.544.704-1.28.8-2.176h4.544c-.096 1.344-.608 2.624-1.472 3.84-1.408 1.952-3.456 2.944-6.208 2.944-2.72 0-4.736-.832-6.048-2.464-1.28-1.6-1.92-3.712-1.92-6.304 0-2.944.704-5.216 2.144-6.848 1.408-1.632 3.392-2.432 5.888-2.432 2.144 0 3.872.48 5.248 1.44 1.344.96 2.176 2.656 2.4 5.088zm9.314-12.48c1.568 2.208 2.784 4.256 3.584 6.176 1.248 2.816 1.856 5.632 1.856 8.512 0 3.136-.736 6.304-2.176 9.536-.832 1.824-1.6 3.2-2.304 4.096l-1.12 1.536h-3.296c1.376-2.496 2.336-4.512 2.88-6.112.928-2.656 1.408-5.6 1.408-8.8a30.95 30.95 0 00-.512-5.632 26.007 26.007 0 00-2.752-7.584l-.928-1.728zm579.005 6.176c.8-1.92 2.016-3.968 3.584-6.176h3.36l-.928 1.728a26.007 26.007 0 00-2.752 7.584c-.32 1.728-.48 3.616-.48 5.632 0 3.2.448 6.144 1.376 8.8.544 1.6 1.504 3.616 2.88 6.112h-3.296l-1.12-1.536c-.704-.896-1.472-2.272-2.304-4.096-1.44-3.232-2.176-6.4-2.176-9.536 0-2.88.64-5.696 1.856-8.512zm15.762-.224c1.024 0 1.952.224 2.752.672s1.472 1.088 1.952 1.888v-8.128h4.512v23.008h-4.32v-2.368c-.64 1.024-1.344 1.76-2.176 2.208-.8.448-1.824.704-3.04.704-1.984 0-3.648-.832-5.024-2.432-1.344-1.6-2.016-3.68-2.016-6.176 0-2.912.672-5.216 2.016-6.88 1.312-1.664 3.104-2.496 5.344-2.496zm.992 14.208c1.248 0 2.208-.448 2.848-1.408.672-.928.992-2.144.992-3.616 0-2.08-.512-3.584-1.568-4.48-.64-.544-1.408-.8-2.272-.8-1.28 0-2.24.48-2.848 1.472s-.928 2.208-.928 3.648c0 1.568.32 2.848.928 3.776.64.96 1.568 1.408 2.848 1.408zm13.966-20.16c1.568 2.208 2.784 4.256 3.584 6.176 1.248 2.816 1.856 5.632 1.856 8.512 0 3.136-.736 6.304-2.176 9.536-.832 1.824-1.6 3.2-2.304 4.096l-1.12 1.536h-3.296c1.376-2.496 2.336-4.512 2.88-6.112.928-2.656 1.408-5.6 1.408-8.8a30.95 30.95 0 00-.512-5.632 26.007 26.007 0 00-2.752-7.584l-.928-1.728z" fill-rule="nonzero"/>
</svg>
