<svg clip-rule="evenodd" fill-rule="evenodd" stroke-linejoin="round" viewBox="0 0 673 676" xmlns="http://www.w3.org/2000/svg"><path d="M0 3.663h672.051v672.051H0z" fill="#f0f0f0"/><ellipse cx="2341.39" cy="186.313" fill="#fff" rx="97.296" ry="97.299" stroke="#969696" stroke-dasharray="9.6 9.6" stroke-width="3.2" transform="rotate(90 1473.585 -753.255)"/><ellipse cx="1945.41" cy="636.596" fill="#fff" rx="97.299" ry="97.297" stroke="#969696" stroke-width="3.2" transform="rotate(90 1077.608 -302.972)"/><circle cx="2341.39" cy="636.596" fill="#fff" r="97.299" stroke="#969696" stroke-dasharray="9.6 9.6" stroke-width="3.2" transform="rotate(90 1473.58 -302.97)"/><ellipse cx="1918.75" cy="-151.43" fill="#fff" rx="95.826" ry="95.825" stroke="#969696" stroke-width="3.15" transform="matrix(-.17602 1 -1 -.17602 324.352 -1830.86)"/><ellipse cx="2143.39" cy="411.455" fill="#fff" rx="97.299" ry="97.297" stroke="#000" stroke-width="3.2" transform="rotate(90 1275.597 -528.114)"/><path d="M290.337 338.96L173.24 196.486" fill="none" stroke="#969696" stroke-linejoin="miter" stroke-width="4"/><path d="M170.308 192.922l7.487 2.81-6.18 5.08z" fill="#969696" stroke="#969696" stroke-width=".9966957000000001"/><path d="M164.023 501.506l105.781-138.582" fill="none" stroke="#969696" stroke-linejoin="miter" stroke-width="6.4"/><path d="M274.277 357.046l-1.628 12.688-10.17-7.764z" fill="#969696" stroke="#969696" stroke-width="1.5976981"/><path d="M295.516 345.027L184.638 490.726" fill="none" stroke="#969696" stroke-linejoin="miter" stroke-width="4"/><path d="M181.85 494.407l1-7.934 6.37 4.848z" fill="#969696" stroke="#969696" stroke-width="1.005304"/><path d="M161 167.936l2.13 312.473" fill="none" stroke="#969696" stroke-linejoin="miter" stroke-width="6.4"/><path d="M163.18 487.8l-6.485-11.027 12.8-.09z" fill="#969696" stroke="#969696" stroke-width="1.600032"/><path d="M152.238 512.082l.258-312.97" fill="none" stroke="#969696" stroke-linejoin="miter" stroke-width="6.4"/><path d="M152.497 191.726l6.391 11.079-12.8-.012z" fill="#969696" stroke="#969696" stroke-width="1.6"/><path d="M169.086 175.545L280.45 310.913" fill="none" stroke="#969696" stroke-linejoin="miter" stroke-width="6.4"/><path d="M285.143 316.623l-11.974-4.486 9.88-8.128z" fill="#969696" stroke="#969696" stroke-width="1.6057008000000002"/><circle cx="2097.8" cy="411.455" fill="#fff" r="21.6" stroke="#afafaf" stroke-width="3.2" transform="rotate(90 1229.996 -528.113)"/><path d="M383.372 339.427l117.092-142.465" fill="none" stroke="#969696" stroke-linejoin="miter" stroke-width="4"/><path d="M503.393 193.389l-1.305 7.887-6.18-5.079z" fill="#969696" stroke="#969696" stroke-width=".9966957000000001"/><path d="M509.676 501.97L403.896 363.39" fill="none" stroke="#969696" stroke-linejoin="miter" stroke-width="6.4"/><path d="M399.42 357.513l11.797 4.922-10.17 7.763z" fill="#969696" stroke="#969696" stroke-width="1.5976981"/><path d="M378.184 345.488l109.28 142.905" fill="none" stroke="#969696" stroke-linejoin="miter" stroke-width="4"/><path d="M490.271 492.073l-7.386-3.068 6.36-4.864z" fill="#969696" stroke="#969696" stroke-width=".9945152"/><path d="M512.703 168.4l-2.13 312.482" fill="none" stroke="#969696" stroke-linejoin="miter" stroke-width="6.4"/><path d="M510.525 488.27l-6.324-11.118 12.8.09z" fill="#969696" stroke="#969696" stroke-width="1.600032"/><path d="M521.465 512.547l-.258-312.96" fill="none" stroke="#969696" stroke-linejoin="miter" stroke-width="6.4"/><path d="M521.196 192.195l6.42 11.066-12.81.013z" fill="#969696" stroke="#969696" stroke-width="1.6"/><path d="M504.61 176.024L393.243 311.39" fill="none" stroke="#969696" stroke-linejoin="miter" stroke-width="6.4"/><path d="M388.555 317.089l2.094-12.614 9.881 8.127z" fill="#969696" stroke="#969696" stroke-width="1.6057008000000002"/><path d="M292.708 338.565c43.505-56.844 88.56-123.65 191.9-157.078" fill="none" stroke="#969696" stroke-linejoin="miter" stroke-width="2.4"/><path d="M487.247 180.633l-3.212 3.56-1.477-4.568z" fill="#969696" stroke="#969696" stroke-width=".5990757"/><path d="M379.264 338.558c-43.495-56.84-88.551-123.645-191.892-157.072" fill="none" stroke="#969696" stroke-linejoin="miter" stroke-width="2.4"/><path d="M184.74 180.637l4.69-1.008-1.478 4.567z" fill="#969696" stroke="#969696" stroke-width=".5990757"/><path d="M343.38 321.756c0-1.2-.84-2.15-2.22-2.15-1.6 0-3.23 1.54-3.23 3.17 0 1.12.84 2.15 2.28 2.15 1.38 0 3.17-1.37 3.17-3.17zm-4.54 22.47c.72-1.73.72-1.84 1.31-3.47.48-1.19.78-2.03.78-3.15 0-2.71-1.92-4.91-4.91-4.91-5.62 0-7.89 8.67-7.89 9.2 0 .6.6.6.72.6.6 0 .66-.11.96-1.07 1.6-5.62 4-7.42 6.04-7.42.47 0 1.49 0 1.49 1.92 0 1.25-.43 2.5-.66 3.1-.48 1.56-3.17 8.5-4.12 11.06-.6 1.56-1.38 3.53-1.38 4.78 0 2.81 2.03 4.91 4.91 4.91 5.61 0 7.82-8.67 7.82-9.21 0-.59-.53-.59-.71-.59-.6 0-.6.17-.89 1.06-1.08 3.78-3.05 7.42-6.11 7.42-1.02 0-1.43-.59-1.43-1.96 0-1.5.36-2.35 1.74-5.99zM150.29 90.82c0-1.15-.84-2.16-2.26-2.16-1.38 0-3.17 1.37-3.17 3.17 0 1.19.83 2.16 2.2 2.16 1.63 0 3.23-1.57 3.23-3.17zm-12.01 40.34c-1.14 4.55-4 7.95-7.36 7.95-.36 0-1.25 0-2.33-.53 1.8-.42 2.69-1.98 2.69-3.17 0-.95-.66-2.09-2.27-2.09-1.5 0-3.23 1.25-3.23 3.4 0 2.39 2.39 3.7 5.26 3.7 4.19 0 9.75-3.15 11.24-9.07l5.5-21.89c.29-1.19.29-2.04.29-2.21 0-3.4-2.5-5.5-5.5-5.5-6.09 0-9.5 8.67-9.5 9.21 0 .59.6.59.72.59.53 0 .6-.05 1.08-1.19 1.49-3.65 4.24-7.29 7.53-7.29.83 0 1.91.23 1.91 2.75 0 1.37-.17 2.03-.41 3.04zM540.41 94.14c0-.06 0-.66-.78-.66-1.37 0-5.73.47-7.28.6-.48.06-1.14.12-1.14 1.25 0 .65.6.65 1.5.65 2.86 0 2.92.55 2.92 1.02l-.17 1.2-7.55 29.89c-.17.66-.29 1.08-.29 2.03 0 3.41 2.64 5.5 5.45 5.5 1.97 0 3.45-1.19 4.47-3.34 1.08-2.28 1.8-5.74 1.8-5.86 0-.59-.53-.59-.72-.59-.6 0-.66.23-.83 1.06-1.02 3.89-2.16 7.42-4.55 7.42-1.79 0-1.79-1.92-1.79-2.75 0-1.44.06-1.73.36-2.88zM138.37 544.415c0-.06 0-.65-.78-.65-1.38 0-5.74.46-7.28.59-.49.06-1.14.12-1.14 1.2 0 .71.53.71 1.43.71 2.86 0 2.99.42 2.99 1.01l-.17 1.2-8.68 34.44c-.25.83-.25.96-.25 1.31 0 1.38 1.21 1.68 1.74 1.68.78 0 1.69-.53 2.03-1.25.31-.55 3-11.61 3.36-13.1 2.03.17 6.94 1.14 6.94 5.08 0 .42 0 .66-.19 1.25-.13.72-.24 1.44-.24 2.09 0 3.54 2.39 5.93 5.5 5.93 1.8 0 3.41-.96 4.72-3.18 1.5-2.62 2.16-5.9 2.16-6.03 0-.59-.55-.59-.72-.59-.59 0-.66.23-.84 1.06-1.19 4.38-2.57 7.42-5.21 7.42-1.12 0-1.9-.65-1.9-2.81 0-1.01.23-2.39.48-3.34.24-1.02.24-1.27.24-1.86 0-3.88-3.77-5.61-8.85-6.28 1.85-1.07 3.77-2.99 5.14-4.42 2.86-3.16 5.61-5.74 8.55-5.74.36 0 .42 0 .53.06.72.13.78.13 1.27.49.11.04.11.11.23.23-2.87.17-3.41 2.52-3.41 3.22 0 .97.66 2.09 2.27 2.09 1.56 0 3.3-1.31 3.3-3.64 0-1.79-1.38-3.76-4.08-3.76-1.67 0-4.42.48-8.72 5.26-2.03 2.27-4.36 4.66-6.64 5.55zM513.07 574.184c-.19.91-.55 2.28-.55 2.58 0 1.08.85 1.61 1.74 1.61.72 0 1.8-.49 2.22-1.68.06-.12.78-2.93 1.12-4.42l1.33-5.39c.36-1.31.72-2.62 1.02-4 .23-1.01.71-2.75.76-2.98.91-1.86 4.08-7.3 9.75-7.3 2.69 0 3.24 2.22 3.24 4.19 0 1.5-.43 3.17-.91 4.95l-1.67 6.94-1.19 4.55c-.25 1.2-.78 3.23-.78 3.53 0 1.08.83 1.61 1.73 1.61 1.85 0 2.21-1.5 2.69-3.41.84-3.34 3.05-12.08 3.59-14.41.18-.78 3.35-7.95 9.86-7.95 2.57 0 3.22 2.03 3.22 4.19 0 3.4-2.5 10.22-3.7 13.39-.53 1.44-.77 2.09-.77 3.28 0 2.81 2.08 4.91 4.89 4.91 5.63 0 7.83-8.74 7.83-9.21 0-.59-.53-.59-.7-.59-.61 0-.61.17-.91 1.06-.89 3.17-2.81 7.42-6.09 7.42-1.02 0-1.44-.59-1.44-1.96 0-1.5.55-2.94 1.08-4.25 1.14-3.11 3.64-9.75 3.64-13.16 0-3.88-2.39-6.39-6.87-6.39-4.49 0-7.54 2.62-9.74 5.79-.06-.78-.25-2.81-1.92-4.25-1.48-1.25-3.41-1.54-4.89-1.54-5.39 0-8.31 3.83-9.33 5.2-.3-3.41-2.81-5.2-5.5-5.2-2.75 0-3.89 2.33-4.42 3.4-1.08 2.1-1.86 5.63-1.86 5.8 0 .6.59.6.72.6.59 0 .65-.05 1.01-1.38 1.02-4.23 2.21-7.11 4.36-7.11.96 0 1.86.48 1.86 2.75 0 1.25-.18 1.92-.95 5.02z" fill-rule="nonzero"/><path d="M292.712 335.24c43.504 56.844 88.56 123.65 191.9 157.078" fill="none" stroke="#969696" stroke-linejoin="miter" stroke-width="2.4"/><path d="M487.248 493.174l-4.689 1.007 1.477-4.566z" fill="#969696" stroke="#969696" stroke-width=".5990757"/><path d="M379.268 335.247c-43.496 56.839-88.552 123.644-191.893 157.071" fill="none" stroke="#969696" stroke-linejoin="miter" stroke-width="2.4"/><path d="M184.739 493.164l3.212-3.558 1.478 4.57z" fill="#969696" stroke="#969696" stroke-width=".5990757"/><circle cx="2097.8" cy="411.455" fill="#fff" r="24.4" stroke="#ba1518" stroke-width="3.2" transform="rotate(90 1229.996 -528.113)"/><ellipse cx="1966.57" cy="241.209" fill="#fff" rx="24.4" ry="24.401" stroke="#ba1518" stroke-width="3.2" transform="rotate(90 1098.772 -698.358)"/><circle cx="1966.47" cy="582.318" fill="#fff" r="24.401" stroke="#ba1518" stroke-width="3.2" transform="rotate(90 1098.673 -357.247)"/><circle cx="2319.07" cy="240.474" fill="#fff" r="24.4" stroke="#2571a1" stroke-dasharray="6.4 3.2" stroke-width="3.2" transform="rotate(90 1451.268 -699.092)"/><ellipse cx="2188.99" cy="411.455" fill="#fff" rx="24.4" ry="24.401" stroke="#2571a1" stroke-dasharray="6.4 3.2" stroke-width="3.2" transform="rotate(90 1321.197 -528.113)"/><ellipse cx="2316.74" cy="583.793" fill="#fff" rx="24.398" ry="24.4" stroke="#2571a1" stroke-dasharray="6.4 3.2" stroke-width="3.2" transform="rotate(90 1448.945 -355.775)"/><g fill-rule="nonzero"><path d="M292.32 325.426l-.58-.53c0 .03-1.36 1.72-2.94 1.72-.83 0-1.72-.53-2.33-.89-.96-.58-1.62-.83-2.23-.83-1.36 0-2.03.78-3.88 2.8l.58.53c0-.03 1.36-1.72 2.94-1.72.83 0 1.73.55 2.34.91.97.56 1.61.81 2.22.81 1.36 0 2.05-.78 3.88-2.8zM290.94 340.381c0-5.62-3.34-7.37-6-7.37-4.91 0-9.64 5.12-9.64 10.17 0 3.34 2.15 6.06 5.81 6.06 2.25 0 4.84-.83 7.56-3.01.47 1.9 1.66 3.01 3.27 3.01 1.91 0 3.01-1.97 3.01-2.55 0-.25-.21-.36-.43-.36-.25 0-.36.11-.47.36-.64 1.77-1.94 1.77-2 1.77-1.11 0-1.11-2.8-1.11-3.66 0-.76 0-.82.36-1.26 3.36-4.22 4.12-8.39 4.12-8.42 0-.08-.04-.36-.43-.36-.36 0-.36.11-.54.75-.65 2.26-1.82 4.98-3.51 7.11zm-2.41 4.92c-3.15 2.77-5.92 3.16-7.36 3.16-2.14 0-3.22-1.63-3.22-3.91 0-1.76.94-5.64 2.08-7.47 1.69-2.6 3.63-3.29 4.88-3.29 3.54 0 3.54 4.7 3.54 7.5 0 1.33 0 3.4.08 4.01zM304.91 338.541c0-.41-.31-.95-1.01-.95-.68 0-1.41.64-1.41 1.37 0 .42.33.96 1.02.96.71 0 1.4-.71 1.4-1.38zm-5.12 12.75c-.11.33-.24.63-.24 1.05 0 1.19 1.02 2.14 2.39 2.14 2.52 0 3.61-3.47 3.61-3.85 0-.32-.31-.32-.39-.32-.36 0-.37.15-.48.43-.58 2-1.67 3.04-2.66 3.04-.5 0-.62-.33-.62-.88 0-.58.17-1.06.39-1.61.25-.67.53-1.36.81-2.01.22-.6 1.12-2.88 1.23-3.19.07-.25.14-.55.14-.8 0-1.19-1-2.14-2.37-2.14-2.5 0-3.64 3.42-3.64 3.84 0 .33.34.33.42.33.34 0 .37-.12.45-.4.66-2.16 1.75-3.07 2.69-3.07.39 0 .63.21.63.89 0 .58-.16.96-.79 2.5zM385.11 320.694l-.58-.53c0 .03-1.36 1.72-2.93 1.72-.83 0-1.72-.53-2.33-.89-.97-.58-1.63-.83-2.24-.83-1.36 0-2.03.79-3.87 2.8l.58.53c0-.03 1.36-1.72 2.93-1.72.83 0 1.74.55 2.35.91.97.56 1.61.81 2.22.81 1.36 0 2.04-.78 3.87-2.8zM377.99 337.912c-4.49 1.08-7.97 5.73-7.97 10.08 0 3.43 2.29 6.03 5.67 6.03 4.2 0 7.17-5.64 7.17-10.58 0-3.27-1.44-5.06-2.66-6.67-1.28-1.63-3.4-4.32-3.4-5.89 0-.78.72-1.64 1.97-1.64 1.08 0 1.79.46 2.54.96.72.43 1.44.9 1.99.9.89 0 1.42-.86 1.42-1.44 0-.78-.56-.89-1.86-1.17-1.86-.41-2.36-.41-2.94-.41-2.79 0-4.09 1.55-4.09 3.7 0 1.94 1.05 3.94 2.16 6.13zm.42.79c.9 1.65 1.98 3.58 1.98 6.16 0 2.38-1.37 8.36-4.7 8.36-1.97 0-3.44-1.5-3.44-4.23 0-2.25 1.33-9 6.16-10.29zM392.6 343.272c0-.41-.32-.95-1.02-.95-.67 0-1.41.64-1.41 1.37 0 .42.33.96 1.02.96.72 0 1.41-.71 1.41-1.38zm-5.13 12.75c-.11.33-.23.63-.23 1.05 0 1.19 1.01 2.14 2.39 2.14 2.51 0 3.61-3.47 3.61-3.85 0-.32-.32-.32-.39-.32-.36 0-.38.15-.49.43-.58 2-1.67 3.04-2.66 3.04-.5 0-.62-.33-.62-.88 0-.58.17-1.06.39-1.61.25-.67.53-1.36.81-2.01.22-.6 1.13-2.88 1.24-3.19.06-.25.14-.55.14-.8 0-1.19-1-2.14-2.38-2.14-2.5 0-3.64 3.42-3.64 3.84 0 .33.35.33.42.33.35 0 .38-.12.46-.4.65-2.16 1.75-3.07 2.68-3.07.4 0 .63.21.63.89 0 .58-.16.96-.78 2.5zM163.05 148.01l-.58-.53c0 .03-1.36 1.72-2.94 1.72-.83 0-1.72-.53-2.33-.89-.96-.58-1.62-.83-2.23-.83-1.36 0-2.03.78-3.87 2.8l.57.53c0-.03 1.36-1.72 2.94-1.72.83 0 1.74.55 2.34.91.97.56 1.61.81 2.22.81 1.36 0 2.05-.78 3.88-2.8zM163.64 160.49c0-2.68-1.99-4.9-4.88-4.9-2.09 0-3.09.56-4.34 1.5-1.97 1.43-3.95 4.92-4.63 7.64l-5.7 22.76c-.03.14.14.36.42.36.3 0 .41-.06.44-.17l2.52-9.91c.67 2.16 2.25 3.49 4.87 3.49 2.61 0 5.3-1.25 6.92-2.83 1.72-1.66 2.86-3.95 2.86-6.61 0-2.58-1.33-4.44-2.61-5.34 2.08-1.17 4.13-3.41 4.13-5.99zm-6.45 5.96c-.47.18-.88.25-1.74.25-.5 0-1.22.03-1.58-.14.08-.36 1.38-.29 1.77-.29.75 0 1.08 0 1.55.18zm4.43-6.78c0 2.51-1.36 5.09-3.22 6.2-.96-.36-1.68-.42-2.76-.42-.75 0-2.77-.03-2.77 1.14-.03 1.01 1.83.9 2.47.9 1.33 0 1.88-.04 2.95-.47 1.36 1.29 1.53 2.41 1.58 4.05.07 2.08-.8 4.77-1.8 6.17-1.4 1.94-3.79 3.22-5.84 3.22-2.73 0-4.09-2.08-4.09-4.62 0-.36 0-.89.18-1.58l2.3-9.06c.78-3.1 3.36-8.78 7.67-8.78 2.08 0 3.33 1.1 3.33 3.25zM174.32 170.59c0-.43-.31-.95-1-.95-.72 0-1.41.7-1.41 1.38 0 .4.3.95 1 .95.69 0 1.41-.66 1.41-1.38zm-5.31 16.93c-.44 1.73-1.77 3.19-3.26 3.19-.31 0-.62-.05-.89-.16.65-.3.85-.91.85-1.28 0-.6-.47-.93-.97-.93-.78 0-1.44.68-1.44 1.49 0 .95.99 1.58 2.49 1.58 1.51 0 4.45-.91 5.22-3.97l2.26-8.98a3 3 0 0 0 .13-.9c0-1.37-1.19-2.35-2.69-2.35-2.78 0-4.39 3.5-4.39 3.84 0 .33.34.33.42.33.3 0 .33-.08.5-.46.62-1.45 1.94-3.01 3.39-3.01.62 0 .86.43.86 1.23 0 .28-.05.63-.08.75zM158.62 495.254l-.58-.53c0 .03-1.36 1.72-2.94 1.72-.83 0-1.72-.53-2.33-.89-.96-.58-1.62-.83-2.23-.83-1.36 0-2.03.78-3.87 2.8l.57.53c0-.03 1.36-1.72 2.94-1.72.83 0 1.74.54 2.34.9.97.57 1.61.82 2.22.82 1.36 0 2.05-.78 3.88-2.8zM143.85 509.561c1.41-4.12 5.32-4.15 5.71-4.15 5.42 0 5.81 6.26 5.81 9.11 0 2.19-.19 2.79-.44 3.51-.78 2.61-1.86 6.77-1.86 7.71 0 .39.17.64.47.64.47 0 .75-.78 1.14-2.14.83-3.02 1.19-5.07 1.33-6.18.08-.46.14-.93.28-1.4 1.16-3.55 3.45-8.89 4.89-11.72.25-.44.67-1.22.67-1.36 0-.36-.36-.36-.42-.36-.11 0-.33 0-.44.25-1.86 3.41-3.29 6.99-4.73 10.61-.03-1.11-.06-3.83-1.47-7.31-.86-2.19-2.3-3.94-4.77-3.94-4.48 0-7 5.44-7 6.56 0 .36.33.36.69.36zM168.81 507.386c.03-.05.09-.38.09-.41 0-.12-.09-.34-.39-.34-.5 0-2.59.2-3.22.25-.2.02-.54.05-.54.58 0 .34.34.34.64.34 1.22 0 1.22.19 1.22.38 0 .18-.07.32-.11.56l-3.53 14.2c-.13.46-.13.5-.13.56 0 .38.3.8.85.8.68 0 1-.5 1.15-1.05.05-.1 1.13-4.53 1.23-4.87 1.79.17 3.22.75 3.22 2.06 0 .13 0 .25-.06.5-.09.38-.09.5-.09.78 0 1.78 1.45 2.58 2.65 2.58 2.44 0 3.19-3.81 3.19-3.84 0-.33-.33-.33-.39-.33-.36 0-.39.12-.52.61-.29 1.08-.96 2.86-2.2 2.86-.67 0-.87-.63-.87-1.3 0-.44 0-.48.14-1.14.03-.08.12-.5.12-.78 0-2.23-3-2.58-4.06-2.66.74-.45 1.66-1.28 2.09-1.65 1.27-1.21 2.53-2.39 3.94-2.39.3 0 .63.07.83.32-1.08.18-1.31 1.04-1.31 1.41 0 .56.44.94 1.01.94.68 0 1.43-.56 1.43-1.61 0-.83-.6-1.77-1.94-1.77-1.43 0-2.74 1.03-4.02 2.22-1.04 1-1.87 1.78-2.91 2.21zM516.58 154.45l-.57-.54c0 .04-1.36 1.72-2.94 1.72-.83 0-1.72-.53-2.33-.89-.97-.58-1.63-.83-2.23-.83-1.36 0-2.04.78-3.88 2.8l.58.53c0-.03 1.36-1.72 2.94-1.72.82 0 1.73.55 2.34.91.97.56 1.61.81 2.22.81 1.36 0 2.04-.78 3.87-2.79zM504.34 169.73c1.17.5 2.22.5 3.07.5.94 0 2.91 0 2.91-1.11 0-.86-1.25-.97-2.62-.97-.75 0-2 .08-3.33.68-.83-.43-1.44-1.1-1.44-2.07 0-2.19 3.52-3.49 6.75-3.49.56 0 1.86 0 3.3 1 .39.3.47.36.72.36.45 0 .96-.47.96-.97 0-.67-2.18-2.04-4.64-2.04-4.11 0-7.98 2.4-7.98 5.14 0 1.53 1.28 2.44 1.44 2.53-2.13 1.19-3.27 3.2-3.27 4.84 0 2.33 2.03 4.52 5.85 4.52 4.73 0 6.73-3.14 6.73-3.69 0-.22-.17-.36-.39-.36-.19 0-.28.14-.36.25-.5.83-1.36 2.16-5.67 2.16-2.19 0-5.24-.55-5.24-3.08 0-1.22 1.02-3.13 3.21-4.2zm1.17-.47c.83-.28 1.58-.31 2.19-.31.9 0 1.04.03 1.68.2-.53.25-.61.3-1.97.3-.79 0-1.21 0-1.9-.19zM523.08 166.59c.03-.05.11-.38.11-.41 0-.13-.11-.34-.41-.34-.5 0-2.59.2-3.22.25-.17.01-.53.04-.53.57 0 .35.36.35.64.35 1.21 0 1.21.18 1.21.37s-.05.33-.11.56l-3.11 12.41c-.08.25-.1.52-.1.77 0 1.61 1.43 2.39 2.63 2.39.61 0 1.36-.21 2.01-1.33.54-.94.88-2.41.88-2.52 0-.32-.33-.32-.41-.32-.34 0-.39.15-.5.6-.32 1.25-.79 2.86-1.87 2.86-.69 0-.86-.62-.86-1.23 0-.27.08-.75.16-1.03zM506.69 492.176l-.58-.53c0 .03-1.36 1.72-2.93 1.72-.83 0-1.72-.53-2.33-.89-.97-.58-1.63-.83-2.24-.83-1.36 0-2.03.78-3.87 2.8l.58.53c0-.03 1.36-1.72 2.93-1.72.83 0 1.74.55 2.35.91.97.56 1.61.81 2.22.81 1.36 0 2.04-.78 3.87-2.8zM500.21 504.298c.64.66 1.47.66 2.19.66.89 0 3.18 0 3.18-1.13 0-.89-1.43-.97-2.87-.97-.39 0-1.36 0-2.3.36-.17-.42-.25-.61-.25-1.36 0-.5.19-1.25.19-1.32 0-.28-.19-.47-.44-.47-.64 0-.64 1.65-.64 1.76 0 .61.11 1.25.39 1.8-3.76 1.89-9.42 8.5-9.42 15.45 0 5.05 3.25 6.13 5.84 6.99 1.08.4 1.14.4 2.19.75.75.26 2.22.76 2.22 2.45 0 .95-.69 2.36-2.02 2.36-.92 0-1.89-.44-2.64-1.08-.25-.22-.29-.25-.43-.25-.18 0-.36.14-.36.39 0 .36 1.54 1.72 3.43 1.72 2.24 0 3.93-2.28 3.93-4.33 0-1.36-.69-2.12-.97-2.4-.61-.69-1.3-.89-3.41-1.61-2.87-.97-3.45-1.16-4.31-1.91-1.5-1.36-1.5-3.4-1.5-4.09 0-5.55 4.37-11.83 8-13.77zm.81-.39c.55-.25 1.19-.25 1.66-.25 1.18 0 1.33.03 1.97.22-.29.11-.64.28-2.22.28-.75 0-1 0-1.41-.25zM515.16 528.414c-.12.5-.34 1.36-.34 1.48 0 .55.45.8.86.8.45 0 .84-.33.97-.55.12-.23.33-1.03.45-1.56.13-.47.41-1.62.56-2.26.15-.55.3-1.1.43-1.68.28-1.07.28-1.14.78-1.9.79-1.24 2.04-2.67 4.01-2.67 1.41 0 1.49 1.15 1.49 1.76 0 1.5-1.1 4.3-1.49 5.34-.28.71-.37.94-.37 1.36 0 1.33 1.09 2.16 2.37 2.16 2.52 0 3.63-3.47 3.63-3.84 0-.33-.33-.33-.41-.33-.34 0-.37.15-.47.44-.57 2-1.67 3.03-2.67 3.03-.53 0-.62-.35-.62-.88 0-.58.12-.9.57-2.03.3-.78 1.33-3.44 1.33-4.84 0-.41 0-1.47-.92-2.19-.44-.33-1.16-.69-2.34-.69-2.25 0-3.64 1.49-4.44 2.55-.2-2.14-1.98-2.55-3.27-2.55-2.09 0-3.5 1.28-4.25 2.3-.17-1.74-1.65-2.3-2.68-2.3-1.08 0-1.66.78-1.99 1.36-.54.94-.89 2.36-.89 2.49 0 .32.35.32.42.32.35 0 .38-.07.55-.75.38-1.48.86-2.71 1.84-2.71.64 0 .83.56.83 1.23 0 .48-.23 1.41-.4 2.08-.18.69-.43 1.72-.57 2.26l-.79 3.22c-.1.33-.25.96-.25 1.03 0 .55.45.8.86.8.45 0 .84-.33.96-.55.13-.23.33-1.03.46-1.56.12-.47.4-1.62.56-2.26.14-.55.3-1.1.42-1.68.28-1.03.33-1.23 1.05-2.26.7-1 1.89-2.31 3.76-2.31 1.47 0 1.49 1.28 1.49 1.76 0 .63-.08.95-.42 2.36z"/></g></svg>