<svg xmlns="http://www.w3.org/2000/svg" version="1.1" baseProfile="full" width="232.00224988981086" height="232.00224988981086"><g transform="translate(10,10)"><defs><style type="text/css">text {	font-family: Lato,"Lucida Sans Unicode","Lucida Grande",Garuda,sans-serif;	font-weight: 300;	font-size: 10px;	stroke: #666;	fill: #666;	text-anchor: middle;}text.shadow {	/*font-size: 12px;*/	stroke: #fff;	stroke-width: 3px;}.node {	fill: none;	stroke: #999;	stroke-width: 1px;}.leaf {	fill: teal;	stroke: white;}.leaf text {	display: none;}path {	stroke: #bcbd22;	stroke-width: 2px;	fill: none;}</style></defs><path d="M79.41822117625065,64.54293994002428Q73.8402828549453,87.43305410690189 56.80583165155589,103.70874747733387"></path><path d="M132.58402871356017,64.54293994002431Q138.1619670348655,87.43305410690192 155.19641823825492,103.7087474773339"></path><path d="M83.38873542021065,149.75168741735814Q106.0011249449054,143.1372666209125 128.61351446960015,149.75168741735814"></path><path d="M99.00112494490543,30.624355652982196Q96.10242047012773,43.480273600208086 86.41822117625065,52.41858428704215"></path><path d="M113.00112494490543,30.6243556529822Q115.89982941968313,43.48027360020809 125.58402871356019,52.418584287042165"></path><path d="M93.41822117625065,64.5429399400243Q106.00112494490543,60.62533267963247 118.58402871356019,64.5429399400243"></path><path d="M106.00112494490543,18.500000000000057Q104.24212721751897,25.567345957244306 99.00112494490543,30.624355652982196"></path><path d="M106.00112494490543,18.500000000000057Q107.76012267229189,25.56734595724431 113.00112494490543,30.6243556529822"></path><path d="M99.00112494490543,30.624355652982196Q106.00112494490543,28.614019391475832 113.00112494490543,30.6243556529822"></path><path d="M86.41822117625065,52.41858428704215Q84.6592234488642,59.4859302442864 79.41822117625065,64.54293994002428"></path><path d="M86.41822117625065,52.41858428704215Q88.17721890363711,59.4859302442864 93.41822117625065,64.5429399400243"></path><path d="M79.41822117625065,64.54293994002428Q86.41822117625065,62.53260367851793 93.41822117625065,64.5429399400243"></path><path d="M125.58402871356019,52.418584287042165Q123.82503098617373,59.485930244286415 118.58402871356019,64.5429399400243"></path><path d="M125.58402871356019,52.418584287042165Q127.34302644094663,59.48593024428642 132.58402871356017,64.54293994002431"></path><path d="M118.58402871356019,64.5429399400243Q125.58402871356017,62.53260367851794 132.58402871356017,64.54293994002431"></path><path d="M49.80583165155589,115.833103130316Q46.90712717677818,128.6890210775419 37.22292788290112,137.62733176437595"></path><path d="M63.80583165155589,115.83310313031602Q66.70453612633358,128.68902107754192 76.38873542021065,137.62733176437598"></path><path d="M44.22292788290112,149.7516874173581Q56.805831651555884,145.8340801569663 69.38873542021065,149.75168741735814"></path><path d="M56.80583165155589,103.70874747733387Q55.04683392416944,110.77609343457812 49.80583165155589,115.833103130316"></path><path d="M56.80583165155589,103.70874747733387Q58.56482937894234,110.77609343457813 63.80583165155589,115.83310313031602"></path><path d="M49.80583165155589,115.833103130316Q56.80583165155589,113.82276686880964 63.80583165155589,115.83310313031602"></path><path d="M37.22292788290112,137.62733176437595Q35.46393015551467,144.69467772162022 30.222927882901118,149.7516874173581"></path><path d="M37.22292788290112,137.62733176437595Q38.98192561028757,144.69467772162022 44.22292788290112,149.7516874173581"></path><path d="M30.222927882901118,149.7516874173581Q37.22292788290112,147.74135115585176 44.22292788290112,149.7516874173581"></path><path d="M76.38873542021065,137.62733176437598Q74.6297376928242,144.69467772162025 69.38873542021065,149.75168741735814"></path><path d="M76.38873542021065,137.62733176437598Q78.14773314759711,144.69467772162025 83.38873542021065,149.75168741735814"></path><path d="M69.38873542021065,149.75168741735814Q76.38873542021065,147.7413511558518 83.38873542021065,149.75168741735814"></path><path d="M148.19641823825492,115.83310313031603Q145.29771376347722,128.68902107754192 135.61351446960015,137.62733176437598"></path><path d="M162.19641823825492,115.83310313031605Q165.09512271303262,128.68902107754195 174.7793220069097,137.627331764376"></path><path d="M142.61351446960015,149.75168741735814Q155.19641823825492,145.8340801569663 167.7793220069097,149.75168741735817"></path><path d="M155.19641823825492,103.7087474773339Q153.43742051086846,110.77609343457814 148.19641823825492,115.83310313031603"></path><path d="M155.19641823825492,103.7087474773339Q156.95541596564138,110.77609343457816 162.19641823825492,115.83310313031605"></path><path d="M148.19641823825492,115.83310313031603Q155.19641823825492,113.82276686880967 162.19641823825492,115.83310313031605"></path><path d="M135.61351446960015,137.62733176437598Q133.8545167422137,144.69467772162025 128.61351446960015,149.75168741735814"></path><path d="M135.61351446960015,137.62733176437598Q137.3725121969866,144.69467772162025 142.61351446960015,149.75168741735814"></path><path d="M128.61351446960015,149.75168741735814Q135.61351446960015,147.7413511558518 142.61351446960015,149.75168741735814"></path><path d="M174.7793220069097,137.627331764376Q173.02032427952324,144.69467772162028 167.7793220069097,149.75168741735817"></path><path d="M174.7793220069097,137.627331764376Q176.53831973429615,144.69467772162028 181.7793220069097,149.75168741735817"></path><path d="M167.7793220069097,149.75168741735817Q174.7793220069097,147.74135115585182 181.7793220069097,149.75168741735817"></path><g class="node" name="*" transform="translate(106.00112494490543,106.00112494490543)"><circle r="106.00112494490543"></circle><g class="label" transform="translate(97.93226975976972,-40.564874328477146)"><text class="shadow" dy="0.3em"></text><text class="main" dy="0.3em"></text></g></g><g class="node" name="*_1" transform="translate(106.00112494490543,49.19529329334955)"><circle r="42.195293293349515"></circle><g class="label" transform="translate(38.98336784203638,-16.147439667150646)"><text class="shadow" dy="0.3em">1</text><text class="main" dy="0.3em">1</text></g></g><g class="node" name="*_1_1" transform="translate(106.00112494490543,26.582903768654816)"><circle r="15.082903768654766"></circle><g class="label" transform="translate(13.93478608269749,-5.771977384221154)"><text class="shadow" dy="0.3em">1</text><text class="main" dy="0.3em">1</text></g></g><g class="leaf node" name="*_1_1_1" transform="translate(106.00112494490543,18.500000000000057)"><circle r="5"></circle><g class="label" transform="translate(4.619397662556434,-1.913417161825449)"><text class="shadow" dy="0.3em">1</text><text class="main" dy="0.3em">1</text></g></g><g class="leaf node" name="*_1_1_2" transform="translate(99.00112494490543,30.624355652982196)"><circle r="5"></circle><g class="label" transform="translate(4.619397662556434,-1.913417161825449)"><text class="shadow" dy="0.3em">2</text><text class="main" dy="0.3em">2</text></g></g><g class="leaf node" name="*_1_1_3" transform="translate(113.00112494490543,30.6243556529822)"><circle r="5"></circle><g class="label" transform="translate(4.619397662556434,-1.913417161825449)"><text class="shadow" dy="0.3em">3</text><text class="main" dy="0.3em">3</text></g></g><g class="node" name="*_1_2" transform="translate(86.41822117625065,60.50148805569691)"><circle r="15.082903768654766"></circle><g class="label" transform="translate(13.93478608269749,-5.771977384221154)"><text class="shadow" dy="0.3em">2</text><text class="main" dy="0.3em">2</text></g></g><g class="leaf node" name="*_1_2_1" transform="translate(86.41822117625065,52.41858428704215)"><circle r="5"></circle><g class="label" transform="translate(4.619397662556434,-1.913417161825449)"><text class="shadow" dy="0.3em">1</text><text class="main" dy="0.3em">1</text></g></g><g class="leaf node" name="*_1_2_2" transform="translate(79.41822117625065,64.54293994002428)"><circle r="5"></circle><g class="label" transform="translate(4.619397662556434,-1.913417161825449)"><text class="shadow" dy="0.3em">2</text><text class="main" dy="0.3em">2</text></g></g><g class="leaf node" name="*_1_2_3" transform="translate(93.41822117625065,64.5429399400243)"><circle r="5"></circle><g class="label" transform="translate(4.619397662556434,-1.913417161825449)"><text class="shadow" dy="0.3em">3</text><text class="main" dy="0.3em">3</text></g></g><g class="node" name="*_1_3" transform="translate(125.58402871356019,60.501488055696925)"><circle r="15.082903768654766"></circle><g class="label" transform="translate(13.93478608269749,-5.771977384221154)"><text class="shadow" dy="0.3em">3</text><text class="main" dy="0.3em">3</text></g></g><g class="leaf node" name="*_1_3_1" transform="translate(125.58402871356019,52.418584287042165)"><circle r="5"></circle><g class="label" transform="translate(4.619397662556434,-1.913417161825449)"><text class="shadow" dy="0.3em">1</text><text class="main" dy="0.3em">1</text></g></g><g class="leaf node" name="*_1_3_2" transform="translate(118.58402871356019,64.5429399400243)"><circle r="5"></circle><g class="label" transform="translate(4.619397662556434,-1.913417161825449)"><text class="shadow" dy="0.3em">2</text><text class="main" dy="0.3em">2</text></g></g><g class="leaf node" name="*_1_3_3" transform="translate(132.58402871356017,64.54293994002431)"><circle r="5"></circle><g class="label" transform="translate(4.619397662556434,-1.913417161825449)"><text class="shadow" dy="0.3em">3</text><text class="main" dy="0.3em">3</text></g></g><g class="node" name="*_2" transform="translate(56.80583165155589,134.40404077068337)"><circle r="42.195293293349515"></circle><g class="label" transform="translate(38.98336784203638,-16.147439667150646)"><text class="shadow" dy="0.3em">2</text><text class="main" dy="0.3em">2</text></g></g><g class="node" name="*_2_1" transform="translate(56.80583165155589,111.79165124598863)"><circle r="15.082903768654766"></circle><g class="label" transform="translate(13.93478608269749,-5.771977384221154)"><text class="shadow" dy="0.3em">1</text><text class="main" dy="0.3em">1</text></g></g><g class="leaf node" name="*_2_1_1" transform="translate(56.80583165155589,103.70874747733387)"><circle r="5"></circle><g class="label" transform="translate(4.619397662556434,-1.913417161825449)"><text class="shadow" dy="0.3em">1</text><text class="main" dy="0.3em">1</text></g></g><g class="leaf node" name="*_2_1_2" transform="translate(49.80583165155589,115.833103130316)"><circle r="5"></circle><g class="label" transform="translate(4.619397662556434,-1.913417161825449)"><text class="shadow" dy="0.3em">2</text><text class="main" dy="0.3em">2</text></g></g><g class="leaf node" name="*_2_1_3" transform="translate(63.80583165155589,115.83310313031602)"><circle r="5"></circle><g class="label" transform="translate(4.619397662556434,-1.913417161825449)"><text class="shadow" dy="0.3em">3</text><text class="main" dy="0.3em">3</text></g></g><g class="node" name="*_2_2" transform="translate(37.22292788290112,145.71023553303073)"><circle r="15.082903768654766"></circle><g class="label" transform="translate(13.93478608269749,-5.771977384221154)"><text class="shadow" dy="0.3em">2</text><text class="main" dy="0.3em">2</text></g></g><g class="leaf node" name="*_2_2_1" transform="translate(37.22292788290112,137.62733176437595)"><circle r="5"></circle><g class="label" transform="translate(4.619397662556434,-1.913417161825449)"><text class="shadow" dy="0.3em">1</text><text class="main" dy="0.3em">1</text></g></g><g class="leaf node" name="*_2_2_2" transform="translate(30.222927882901118,149.7516874173581)"><circle r="5"></circle><g class="label" transform="translate(4.619397662556434,-1.913417161825449)"><text class="shadow" dy="0.3em">2</text><text class="main" dy="0.3em">2</text></g></g><g class="leaf node" name="*_2_2_3" transform="translate(44.22292788290112,149.7516874173581)"><circle r="5"></circle><g class="label" transform="translate(4.619397662556434,-1.913417161825449)"><text class="shadow" dy="0.3em">3</text><text class="main" dy="0.3em">3</text></g></g><g class="node" name="*_2_3" transform="translate(76.38873542021065,145.71023553303075)"><circle r="15.082903768654766"></circle><g class="label" transform="translate(13.93478608269749,-5.771977384221154)"><text class="shadow" dy="0.3em">3</text><text class="main" dy="0.3em">3</text></g></g><g class="leaf node" name="*_2_3_1" transform="translate(76.38873542021065,137.62733176437598)"><circle r="5"></circle><g class="label" transform="translate(4.619397662556434,-1.913417161825449)"><text class="shadow" dy="0.3em">1</text><text class="main" dy="0.3em">1</text></g></g><g class="leaf node" name="*_2_3_2" transform="translate(69.38873542021065,149.75168741735814)"><circle r="5"></circle><g class="label" transform="translate(4.619397662556434,-1.913417161825449)"><text class="shadow" dy="0.3em">2</text><text class="main" dy="0.3em">2</text></g></g><g class="leaf node" name="*_2_3_3" transform="translate(83.38873542021065,149.75168741735814)"><circle r="5"></circle><g class="label" transform="translate(4.619397662556434,-1.913417161825449)"><text class="shadow" dy="0.3em">3</text><text class="main" dy="0.3em">3</text></g></g><g class="node" name="*_3" transform="translate(155.19641823825492,134.4040407706834)"><circle r="42.195293293349515"></circle><g class="label" transform="translate(38.98336784203638,-16.147439667150646)"><text class="shadow" dy="0.3em">3</text><text class="main" dy="0.3em">3</text></g></g><g class="node" name="*_3_1" transform="translate(155.19641823825492,111.79165124598866)"><circle r="15.082903768654766"></circle><g class="label" transform="translate(13.93478608269749,-5.771977384221154)"><text class="shadow" dy="0.3em">1</text><text class="main" dy="0.3em">1</text></g></g><g class="leaf node" name="*_3_1_1" transform="translate(155.19641823825492,103.7087474773339)"><circle r="5"></circle><g class="label" transform="translate(4.619397662556434,-1.913417161825449)"><text class="shadow" dy="0.3em">1</text><text class="main" dy="0.3em">1</text></g></g><g class="leaf node" name="*_3_1_2" transform="translate(148.19641823825492,115.83310313031603)"><circle r="5"></circle><g class="label" transform="translate(4.619397662556434,-1.913417161825449)"><text class="shadow" dy="0.3em">2</text><text class="main" dy="0.3em">2</text></g></g><g class="leaf node" name="*_3_1_3" transform="translate(162.19641823825492,115.83310313031605)"><circle r="5"></circle><g class="label" transform="translate(4.619397662556434,-1.913417161825449)"><text class="shadow" dy="0.3em">3</text><text class="main" dy="0.3em">3</text></g></g><g class="node" name="*_3_2" transform="translate(135.61351446960015,145.71023553303075)"><circle r="15.082903768654766"></circle><g class="label" transform="translate(13.93478608269749,-5.771977384221154)"><text class="shadow" dy="0.3em">2</text><text class="main" dy="0.3em">2</text></g></g><g class="leaf node" name="*_3_2_1" transform="translate(135.61351446960015,137.62733176437598)"><circle r="5"></circle><g class="label" transform="translate(4.619397662556434,-1.913417161825449)"><text class="shadow" dy="0.3em">1</text><text class="main" dy="0.3em">1</text></g></g><g class="leaf node" name="*_3_2_2" transform="translate(128.61351446960015,149.75168741735814)"><circle r="5"></circle><g class="label" transform="translate(4.619397662556434,-1.913417161825449)"><text class="shadow" dy="0.3em">2</text><text class="main" dy="0.3em">2</text></g></g><g class="leaf node" name="*_3_2_3" transform="translate(142.61351446960015,149.75168741735814)"><circle r="5"></circle><g class="label" transform="translate(4.619397662556434,-1.913417161825449)"><text class="shadow" dy="0.3em">3</text><text class="main" dy="0.3em">3</text></g></g><g class="node" name="*_3_3" transform="translate(174.7793220069097,145.71023553303078)"><circle r="15.082903768654766"></circle><g class="label" transform="translate(13.93478608269749,-5.771977384221154)"><text class="shadow" dy="0.3em">3</text><text class="main" dy="0.3em">3</text></g></g><g class="leaf node" name="*_3_3_1" transform="translate(174.7793220069097,137.627331764376)"><circle r="5"></circle><g class="label" transform="translate(4.619397662556434,-1.913417161825449)"><text class="shadow" dy="0.3em">1</text><text class="main" dy="0.3em">1</text></g></g><g class="leaf node" name="*_3_3_2" transform="translate(167.7793220069097,149.75168741735817)"><circle r="5"></circle><g class="label" transform="translate(4.619397662556434,-1.913417161825449)"><text class="shadow" dy="0.3em">2</text><text class="main" dy="0.3em">2</text></g></g><g class="leaf node" name="*_3_3_3" transform="translate(181.7793220069097,149.75168741735817)"><circle r="5"></circle><g class="label" transform="translate(4.619397662556434,-1.913417161825449)"><text class="shadow" dy="0.3em">3</text><text class="main" dy="0.3em">3</text></g></g></g></svg>