<svg xmlns="http://www.w3.org/2000/svg" baseProfile="full" width="232.002" height="232.002"><g transform="translate(10 10)"><defs><style>text{font-family:Lato,&quot;Lucida Sans Unicode&quot;,&quot;Lucida Grande&quot;,Garuda,sans-serif;font-weight:300;font-size:10px;stroke:#666;fill:#666;text-anchor:middle}text.shadow{stroke:#fff;stroke-width:3px}.node,path{fill:none;stroke:#999;stroke-width:1px}.leaf{fill:teal;stroke:#fff}.leaf text{display:none}path{stroke:#bcbd22;stroke-width:2px}</style></defs><path d="M79.418 64.543q-5.578 22.89-22.612 39.166M132.584 64.543q5.578 22.89 22.612 39.166M83.389 149.752q22.612-6.615 45.225 0M99.001 30.624Q96.102 43.48 86.418 52.42M113.001 30.624Q115.9 43.48 125.584 52.42M93.418 64.543q12.583-3.918 25.166 0M106.001 18.5q-1.759 7.067-7 12.124M106.001 18.5q1.76 7.067 7 12.124M99.001 30.624q7-2.01 14 0M86.418 52.419q-1.759 7.067-7 12.124M86.418 52.419q1.76 7.067 7 12.124M79.418 64.543q7-2.01 14 0M125.584 52.419q-1.759 7.067-7 12.124M125.584 52.419q1.759 7.067 7 12.124M118.584 64.543q7-2.01 14 0M49.806 115.833q-2.899 12.856-12.583 21.794M63.806 115.833q2.899 12.856 12.583 21.794M44.223 149.752q12.583-3.918 25.166 0M56.806 103.709q-1.76 7.067-7 12.124M56.806 103.709q1.759 7.067 7 12.124M49.806 115.833q7-2.01 14 0M37.223 137.627q-1.76 7.068-7 12.125M37.223 137.627q1.759 7.068 7 12.125M30.223 149.752q7-2.01 14 0M76.389 137.627q-1.76 7.068-7 12.125M76.389 137.627q1.759 7.068 7 12.125M69.389 149.752q7-2.01 14 0M148.196 115.833q-2.898 12.856-12.582 21.794M162.196 115.833q2.9 12.856 12.583 21.794M142.614 149.752q12.582-3.918 25.165 0M155.196 103.709q-1.759 7.067-7 12.124M155.196 103.709q1.76 7.067 7 12.124M148.196 115.833q7-2.01 14 0M135.614 137.627q-1.76 7.068-7 12.125M135.614 137.627q1.759 7.068 7 12.125M128.614 149.752q7-2.01 14 0M174.78 137.627q-1.76 7.068-7 12.125M174.78 137.627q1.758 7.068 7 12.125M167.78 149.752q7-2.01 14 0"/><g class="node" transform="translate(106.001 106.001)"><circle r="106.001"/></g><g class="node" transform="translate(106.001 49.195)"><circle r="42.195"/><g class="label"><text class="shadow" dy=".3em" transform="translate(38.983 -16.147)">1</text><text class="main" dy=".3em" transform="translate(38.983 -16.147)">1</text></g></g><g class="node" transform="translate(106.001 26.583)"><circle r="15.083"/><g class="label"><text class="shadow" dy=".3em" transform="translate(13.935 -5.772)">1</text><text class="main" dy=".3em" transform="translate(13.935 -5.772)">1</text></g></g><g class="leaf node" transform="translate(106.001 18.5)"><circle r="5"/><g class="label"><text class="shadow" dy=".3em" transform="translate(4.62 -1.913)">1</text><text class="main" dy=".3em" transform="translate(4.62 -1.913)">1</text></g></g><g class="leaf node" transform="translate(99.001 30.624)"><circle r="5"/><g class="label"><text class="shadow" dy=".3em" transform="translate(4.62 -1.913)">2</text><text class="main" dy=".3em" transform="translate(4.62 -1.913)">2</text></g></g><g class="leaf node" transform="translate(113.001 30.624)"><circle r="5"/><g class="label"><text class="shadow" dy=".3em" transform="translate(4.62 -1.913)">3</text><text class="main" dy=".3em" transform="translate(4.62 -1.913)">3</text></g></g><g class="node" transform="translate(86.418 60.501)"><circle r="15.083"/><g class="label"><text class="shadow" dy=".3em" transform="translate(13.935 -5.772)">2</text><text class="main" dy=".3em" transform="translate(13.935 -5.772)">2</text></g></g><g class="leaf node" transform="translate(86.418 52.419)"><circle r="5"/><g class="label"><text class="shadow" dy=".3em" transform="translate(4.62 -1.913)">1</text><text class="main" dy=".3em" transform="translate(4.62 -1.913)">1</text></g></g><g class="leaf node" transform="translate(79.418 64.543)"><circle r="5"/><g class="label"><text class="shadow" dy=".3em" transform="translate(4.62 -1.913)">2</text><text class="main" dy=".3em" transform="translate(4.62 -1.913)">2</text></g></g><g class="leaf node" transform="translate(93.418 64.543)"><circle r="5"/><g class="label"><text class="shadow" dy=".3em" transform="translate(4.62 -1.913)">3</text><text class="main" dy=".3em" transform="translate(4.62 -1.913)">3</text></g></g><g class="node" transform="translate(125.584 60.501)"><circle r="15.083"/><g class="label"><text class="shadow" dy=".3em" transform="translate(13.935 -5.772)">3</text><text class="main" dy=".3em" transform="translate(13.935 -5.772)">3</text></g></g><g class="leaf node" transform="translate(125.584 52.419)"><circle r="5"/><g class="label"><text class="shadow" dy=".3em" transform="translate(4.62 -1.913)">1</text><text class="main" dy=".3em" transform="translate(4.62 -1.913)">1</text></g></g><g class="leaf node" transform="translate(118.584 64.543)"><circle r="5"/><g class="label"><text class="shadow" dy=".3em" transform="translate(4.62 -1.913)">2</text><text class="main" dy=".3em" transform="translate(4.62 -1.913)">2</text></g></g><g class="leaf node" transform="translate(132.584 64.543)"><circle r="5"/><g class="label"><text class="shadow" dy=".3em" transform="translate(4.62 -1.913)">3</text><text class="main" dy=".3em" transform="translate(4.62 -1.913)">3</text></g></g><g class="node" transform="translate(56.806 134.404)"><circle r="42.195"/><g class="label"><text class="shadow" dy=".3em" transform="translate(38.983 -16.147)">2</text><text class="main" dy=".3em" transform="translate(38.983 -16.147)">2</text></g></g><g class="node" transform="translate(56.806 111.792)"><circle r="15.083"/><g class="label"><text class="shadow" dy=".3em" transform="translate(13.935 -5.772)">1</text><text class="main" dy=".3em" transform="translate(13.935 -5.772)">1</text></g></g><g class="leaf node" transform="translate(56.806 103.709)"><circle r="5"/><g class="label"><text class="shadow" dy=".3em" transform="translate(4.62 -1.913)">1</text><text class="main" dy=".3em" transform="translate(4.62 -1.913)">1</text></g></g><g class="leaf node" transform="translate(49.806 115.833)"><circle r="5"/><g class="label"><text class="shadow" dy=".3em" transform="translate(4.62 -1.913)">2</text><text class="main" dy=".3em" transform="translate(4.62 -1.913)">2</text></g></g><g class="leaf node" transform="translate(63.806 115.833)"><circle r="5"/><g class="label"><text class="shadow" dy=".3em" transform="translate(4.62 -1.913)">3</text><text class="main" dy=".3em" transform="translate(4.62 -1.913)">3</text></g></g><g class="node" transform="translate(37.223 145.71)"><circle r="15.083"/><g class="label"><text class="shadow" dy=".3em" transform="translate(13.935 -5.772)">2</text><text class="main" dy=".3em" transform="translate(13.935 -5.772)">2</text></g></g><g class="leaf node" transform="translate(37.223 137.627)"><circle r="5"/><g class="label"><text class="shadow" dy=".3em" transform="translate(4.62 -1.913)">1</text><text class="main" dy=".3em" transform="translate(4.62 -1.913)">1</text></g></g><g class="leaf node" transform="translate(30.223 149.752)"><circle r="5"/><g class="label"><text class="shadow" dy=".3em" transform="translate(4.62 -1.913)">2</text><text class="main" dy=".3em" transform="translate(4.62 -1.913)">2</text></g></g><g class="leaf node" transform="translate(44.223 149.752)"><circle r="5"/><g class="label"><text class="shadow" dy=".3em" transform="translate(4.62 -1.913)">3</text><text class="main" dy=".3em" transform="translate(4.62 -1.913)">3</text></g></g><g class="node" transform="translate(76.389 145.71)"><circle r="15.083"/><g class="label"><text class="shadow" dy=".3em" transform="translate(13.935 -5.772)">3</text><text class="main" dy=".3em" transform="translate(13.935 -5.772)">3</text></g></g><g class="leaf node" transform="translate(76.389 137.627)"><circle r="5"/><g class="label"><text class="shadow" dy=".3em" transform="translate(4.62 -1.913)">1</text><text class="main" dy=".3em" transform="translate(4.62 -1.913)">1</text></g></g><g class="leaf node" transform="translate(69.389 149.752)"><circle r="5"/><g class="label"><text class="shadow" dy=".3em" transform="translate(4.62 -1.913)">2</text><text class="main" dy=".3em" transform="translate(4.62 -1.913)">2</text></g></g><g class="leaf node" transform="translate(83.389 149.752)"><circle r="5"/><g class="label"><text class="shadow" dy=".3em" transform="translate(4.62 -1.913)">3</text><text class="main" dy=".3em" transform="translate(4.62 -1.913)">3</text></g></g><g class="node" transform="translate(155.196 134.404)"><circle r="42.195"/><g class="label"><text class="shadow" dy=".3em" transform="translate(38.983 -16.147)">3</text><text class="main" dy=".3em" transform="translate(38.983 -16.147)">3</text></g></g><g class="node" transform="translate(155.196 111.792)"><circle r="15.083"/><g class="label"><text class="shadow" dy=".3em" transform="translate(13.935 -5.772)">1</text><text class="main" dy=".3em" transform="translate(13.935 -5.772)">1</text></g></g><g class="leaf node" transform="translate(155.196 103.709)"><circle r="5"/><g class="label"><text class="shadow" dy=".3em" transform="translate(4.62 -1.913)">1</text><text class="main" dy=".3em" transform="translate(4.62 -1.913)">1</text></g></g><g class="leaf node" transform="translate(148.196 115.833)"><circle r="5"/><g class="label"><text class="shadow" dy=".3em" transform="translate(4.62 -1.913)">2</text><text class="main" dy=".3em" transform="translate(4.62 -1.913)">2</text></g></g><g class="leaf node" transform="translate(162.196 115.833)"><circle r="5"/><g class="label"><text class="shadow" dy=".3em" transform="translate(4.62 -1.913)">3</text><text class="main" dy=".3em" transform="translate(4.62 -1.913)">3</text></g></g><g class="node" transform="translate(135.614 145.71)"><circle r="15.083"/><g class="label"><text class="shadow" dy=".3em" transform="translate(13.935 -5.772)">2</text><text class="main" dy=".3em" transform="translate(13.935 -5.772)">2</text></g></g><g class="leaf node" transform="translate(135.614 137.627)"><circle r="5"/><g class="label"><text class="shadow" dy=".3em" transform="translate(4.62 -1.913)">1</text><text class="main" dy=".3em" transform="translate(4.62 -1.913)">1</text></g></g><g class="leaf node" transform="translate(128.614 149.752)"><circle r="5"/><g class="label"><text class="shadow" dy=".3em" transform="translate(4.62 -1.913)">2</text><text class="main" dy=".3em" transform="translate(4.62 -1.913)">2</text></g></g><g class="leaf node" transform="translate(142.614 149.752)"><circle r="5"/><g class="label"><text class="shadow" dy=".3em" transform="translate(4.62 -1.913)">3</text><text class="main" dy=".3em" transform="translate(4.62 -1.913)">3</text></g></g><g class="node" transform="translate(174.78 145.71)"><circle r="15.083"/><g class="label"><text class="shadow" dy=".3em" transform="translate(13.935 -5.772)">3</text><text class="main" dy=".3em" transform="translate(13.935 -5.772)">3</text></g></g><g class="leaf node" transform="translate(174.78 137.627)"><circle r="5"/><g class="label"><text class="shadow" dy=".3em" transform="translate(4.62 -1.913)">1</text><text class="main" dy=".3em" transform="translate(4.62 -1.913)">1</text></g></g><g class="leaf node" transform="translate(167.78 149.752)"><circle r="5"/><g class="label"><text class="shadow" dy=".3em" transform="translate(4.62 -1.913)">2</text><text class="main" dy=".3em" transform="translate(4.62 -1.913)">2</text></g></g><g class="leaf node" transform="translate(181.78 149.752)"><circle r="5"/><g class="label"><text class="shadow" dy=".3em" transform="translate(4.62 -1.913)">3</text><text class="main" dy=".3em" transform="translate(4.62 -1.913)">3</text></g></g></g></svg>