<svg viewBox="0 0 800 640" xmlns="http://www.w3.org/2000/svg" role="img" aria-label="Preview node move">
  <rect width="800" height="640" fill="#fbfaf8" />
  <text x="34" y="44" font-family="Open Sans, Arial, sans-serif" font-size="14" font-weight="700" fill="#6b7280">Move nodes greedily</text>
  <text x="560" y="44" font-family="Monaco, Consolas, monospace" font-size="13" fill="#374151">L = 6.249   Delta L = -0.239</text>
  <g>
    <g>
  <path d="M224.97,183.024C222.969,178.192,219.781,173.421,216.082,169.723C212.384,166.024,207.613,162.836,202.781,160.835C197.949,158.833,192.321,157.714,187.091,157.714C181.861,157.714,176.233,158.833,171.401,160.835C166.569,162.836,161.798,166.024,158.1,169.723C154.401,173.421,151.213,178.192,149.212,183.024C147.21,187.856,146.091,193.484,146.091,198.714C146.091,203.944,147.21,209.572,149.212,214.404C151.213,219.236,154.401,224.007,158.1,227.705C161.798,231.403,166.569,234.592,171.401,236.593C176.233,238.594,181.861,239.714,187.091,239.714C192.321,239.714,197.949,238.594,202.781,236.593C207.613,234.592,212.384,231.403,216.082,227.705C219.781,224.007,222.969,219.236,224.97,214.404C226.971,209.572,228.091,203.944,228.091,198.714C228.091,193.484,226.971,187.856,224.97,183.024" fill="#EBC384" fill-opacity="0.09" stroke="#EBC384" stroke-opacity="0.55" stroke-width="2" stroke-linejoin="round"  />
  <rect x="173.0909836065574" y="163.7139344262295" width="32" height="20" rx="10" fill="#fbfaf8" fill-opacity="0.9" />
  <text x="189.0909836065574" y="177.7139344262295" text-anchor="middle" font-family="Open Sans, Arial, sans-serif" font-size="11" font-weight="700" fill="#EBC384">M1</text>
</g>
<g>
  <path d="M286.285,106.363C283.907,100.623,280.12,94.955,275.728,90.563C271.335,86.17,265.667,82.383,259.928,80.005C254.188,77.628,247.503,76.298,241.29,76.298C235.078,76.298,228.392,77.628,222.653,80.005C216.913,82.383,211.246,86.17,206.853,90.563C202.46,94.955,198.673,100.623,196.296,106.363C193.918,112.102,192.588,118.788,192.588,125C192.588,131.212,193.918,137.898,196.296,143.637C198.673,149.377,202.46,155.045,206.853,159.437C211.246,163.83,216.913,167.617,222.653,169.995C228.392,172.372,235.078,173.702,241.29,173.702C247.503,173.702,254.188,172.372,259.928,169.995C265.667,167.617,271.335,163.83,275.728,159.437C280.12,155.045,283.907,149.377,286.285,143.637C288.662,137.898,289.992,131.212,289.992,125C289.992,118.788,288.662,112.102,286.285,106.363" fill="#DFDDA2" fill-opacity="0.17" stroke="#4b5563" stroke-opacity="0.74" stroke-width="3" stroke-linejoin="round"  />
  <rect x="227.29016393442626" y="124" width="32" height="20" rx="10" fill="#fbfaf8" fill-opacity="0.9" />
  <text x="243.29016393442626" y="138" text-anchor="middle" font-family="Open Sans, Arial, sans-serif" font-size="11" font-weight="700" fill="#DFDDA2">M2</text>
</g>
<g>
  <path d="M321.376,176.294C318.691,169.812,314.414,163.412,309.453,158.451C304.492,153.49,298.092,149.213,291.61,146.528C285.128,143.844,277.578,142.342,270.562,142.342C263.546,142.342,255.997,143.844,249.515,146.528C243.033,149.213,236.632,153.49,231.671,158.451C226.71,163.412,224.896,168.181,219.749,176.294C209.216,192.896,180.012,236.245,173.417,253.299C170.457,260.953,169.885,265.137,169.885,271.056C169.885,276.975,171.152,283.344,173.417,288.813C175.682,294.281,179.291,299.681,183.476,303.867C187.661,308.052,193.061,311.66,198.53,313.925C203.998,316.19,210.368,317.457,216.287,317.457C222.206,317.457,228.576,316.19,234.044,313.925C239.513,311.66,242.853,309.296,249.098,303.867C263.072,291.718,297.374,251.835,309.453,236.233C315.33,228.641,318.691,224.871,321.376,218.389C324.061,211.908,325.562,204.358,325.562,197.342C325.562,190.326,324.061,182.776,321.376,176.294" fill="#B4CCDF" fill-opacity="0.09" stroke="#B4CCDF" stroke-opacity="0.55" stroke-width="2" stroke-linejoin="round"  />
  <rect x="256.56229508196725" y="148.34180327868853" width="32" height="20" rx="10" fill="#fbfaf8" fill-opacity="0.9" />
  <text x="272.56229508196725" y="162.34180327868853" text-anchor="middle" font-family="Open Sans, Arial, sans-serif" font-size="11" font-weight="700" fill="#B4CCDF">M3</text>
</g>
<g>
  <path d="M410.318,137.522C407.714,131.237,403.567,125.031,398.757,120.221C393.947,115.41,387.74,111.264,381.455,108.66C375.17,106.057,367.85,104.601,361.047,104.601C354.244,104.601,346.923,106.057,340.638,108.66C334.353,111.264,328.147,115.41,323.336,120.221C318.526,125.031,314.379,131.237,311.776,137.522C309.172,143.807,307.716,151.128,307.716,157.931C307.716,164.734,309.172,172.055,311.776,178.34C314.379,184.625,318.526,190.831,323.336,195.642C328.147,200.452,334.353,204.599,340.638,207.202C346.923,209.805,354.244,211.262,361.047,211.262C367.85,211.262,375.17,209.805,381.455,207.202C387.74,204.599,393.947,200.452,398.757,195.642C403.567,190.831,407.714,184.625,410.318,178.34C412.921,172.055,414.377,164.734,414.377,157.931C414.377,151.128,412.921,143.807,410.318,137.522" fill="#82A3C9" fill-opacity="0.09" stroke="#82A3C9" stroke-opacity="0.55" stroke-width="2" stroke-linejoin="round" stroke-dasharray="7 5" />
  <rect x="347.0467213114754" y="124" width="32" height="20" rx="10" fill="#fbfaf8" fill-opacity="0.9" />
  <text x="363.0467213114754" y="138" text-anchor="middle" font-family="Open Sans, Arial, sans-serif" font-size="11" font-weight="700" fill="#82A3C9">M5</text>
</g>
<g>
  <path d="M363.272,244.411C360.875,238.623,357.056,232.908,352.626,228.479C348.197,224.049,342.482,220.23,336.694,217.833C330.907,215.436,324.165,214.095,317.901,214.095C311.636,214.095,304.895,215.436,299.107,217.833C293.32,220.23,287.605,224.049,283.175,228.479C278.746,232.908,274.927,238.623,272.53,244.411C270.132,250.198,268.791,256.94,268.791,263.204C268.791,269.469,270.132,276.21,272.53,281.997C274.927,287.785,278.746,293.5,283.175,297.93C287.605,302.359,293.32,306.178,299.107,308.575C304.895,310.973,311.636,312.313,317.901,312.313C324.165,312.313,330.907,310.973,336.694,308.575C342.482,306.178,348.197,302.359,352.626,297.93C357.056,293.5,360.875,287.785,363.272,281.997C365.669,276.21,367.01,269.469,367.01,263.204C367.01,256.94,365.669,250.198,363.272,244.411" fill="#5B8E8A" fill-opacity="0.09" stroke="#5B8E8A" stroke-opacity="0.55" stroke-width="2" stroke-linejoin="round"  />
  <rect x="303.9008196721312" y="220.09472993633958" width="32" height="20" rx="10" fill="#fbfaf8" fill-opacity="0.9" />
  <text x="319.9008196721312" y="234.09472993633958" text-anchor="middle" font-family="Open Sans, Arial, sans-serif" font-size="11" font-weight="700" fill="#5B8E8A">M6</text>
</g>
<g>
  <path d="M503.952,154.128C501.395,147.957,497.323,141.863,492.6,137.139C487.877,132.416,481.782,128.344,475.611,125.788C469.44,123.232,462.251,121.802,455.571,121.802C448.891,121.802,441.703,123.232,435.532,125.788C429.36,128.344,423.266,132.416,418.543,137.139C413.819,141.863,409.747,147.957,407.191,154.128C404.635,160.3,403.205,167.488,403.205,174.168C403.205,180.848,404.635,188.036,407.191,194.208C409.747,200.379,413.819,206.473,418.543,211.197C423.266,215.92,429.36,219.992,435.532,222.548C441.703,225.105,448.891,226.534,455.571,226.534C462.251,226.534,469.44,225.105,475.611,222.548C481.782,219.992,487.877,215.92,492.6,211.197C497.323,206.473,501.395,200.379,503.952,194.208C506.508,188.036,507.938,180.848,507.938,174.168C507.938,167.488,506.508,160.3,503.952,154.128" fill="#EBC384" fill-opacity="0.09" stroke="#EBC384" stroke-opacity="0.55" stroke-width="2" stroke-linejoin="round"  />
  <rect x="441.5713114754098" y="127.80167830939469" width="32" height="20" rx="10" fill="#fbfaf8" fill-opacity="0.9" />
  <text x="457.5713114754098" y="141.80167830939467" text-anchor="middle" font-family="Open Sans, Arial, sans-serif" font-size="11" font-weight="700" fill="#EBC384">M7</text>
</g>
<g>
  <path d="M642.056,173.946C639.626,168.079,635.755,162.285,631.264,157.795C626.774,153.304,620.98,149.433,615.113,147.003C609.246,144.573,602.413,143.214,596.062,143.214C589.712,143.214,582.878,144.573,577.011,147.003C571.144,149.433,565.351,153.304,560.86,157.795C556.37,162.285,552.499,168.079,550.069,173.946C547.639,179.813,546.279,186.646,546.279,192.997C546.279,199.347,547.639,206.181,550.069,212.048C552.499,217.915,556.37,223.708,560.86,228.199C565.351,232.689,571.144,236.56,577.011,238.99C582.878,241.42,589.712,242.78,596.062,242.78C602.413,242.78,609.246,241.42,615.113,238.99C620.98,236.56,626.774,232.689,631.264,228.199C635.755,223.708,639.626,217.915,642.056,212.048C644.486,206.181,645.845,199.347,645.845,192.997C645.845,186.646,644.486,179.813,642.056,173.946" fill="#DFDDA2" fill-opacity="0.09" stroke="#DFDDA2" stroke-opacity="0.55" stroke-width="2" stroke-linejoin="round"  />
  <rect x="582.0622950819672" y="149.2136651294125" width="32" height="20" rx="10" fill="#fbfaf8" fill-opacity="0.9" />
  <text x="598.0622950819672" y="163.2136651294125" text-anchor="middle" font-family="Open Sans, Arial, sans-serif" font-size="11" font-weight="700" fill="#DFDDA2">M8</text>
</g>
<g>
  <path d="M560.788,226.577C558.246,220.439,554.195,214.378,549.497,209.68C544.799,204.982,538.738,200.931,532.6,198.389C526.461,195.846,519.311,194.424,512.667,194.424C506.023,194.424,498.873,195.846,492.735,198.389C486.597,200.931,480.535,204.982,475.837,209.68C471.139,214.378,467.089,220.439,464.546,226.577C462.004,232.716,460.581,239.866,460.581,246.51C460.581,253.154,462.004,260.304,464.546,266.442C467.089,272.581,471.139,278.642,475.837,283.34C480.535,288.038,486.597,292.088,492.735,294.631C498.873,297.173,506.023,298.596,512.667,298.596C519.311,298.596,526.461,297.173,532.6,294.631C538.738,292.088,544.799,288.038,549.497,283.34C554.195,278.642,558.246,272.581,560.788,266.442C563.331,260.304,564.753,253.154,564.753,246.51C564.753,239.866,563.331,232.716,560.788,226.577" fill="#B4CCDF" fill-opacity="0.09" stroke="#B4CCDF" stroke-opacity="0.55" stroke-width="2" stroke-linejoin="round"  />
  <rect x="498.6672131147541" y="200.4241131419036" width="32" height="20" rx="10" fill="#fbfaf8" fill-opacity="0.9" />
  <text x="514.6672131147541" y="214.4241131419036" text-anchor="middle" font-family="Open Sans, Arial, sans-serif" font-size="11" font-weight="700" fill="#B4CCDF">M9</text>
</g>
<g>
  <path d="M444.594,257.906C442.129,251.955,438.203,246.079,433.648,241.524C429.093,236.969,423.217,233.043,417.266,230.578C411.315,228.113,404.383,226.734,397.942,226.734C391.5,226.734,384.569,228.113,378.618,230.578C372.667,233.043,366.79,236.969,362.236,241.524C357.681,246.079,353.754,251.955,351.289,257.906C348.824,263.857,347.446,270.789,347.446,277.23C347.446,283.672,348.824,290.603,351.289,296.554C353.754,302.505,357.681,308.382,362.236,312.937C366.79,317.491,372.667,321.418,378.618,323.883C384.569,326.348,391.5,327.727,397.942,327.727C404.383,327.727,411.315,326.348,417.266,323.883C423.217,321.418,429.093,317.491,433.648,312.937C438.203,308.382,442.129,302.505,444.594,296.554C447.059,290.603,448.438,283.672,448.438,277.23C448.438,270.789,447.059,263.857,444.594,257.906" fill="#E68C6C" fill-opacity="0.09" stroke="#E68C6C" stroke-opacity="0.55" stroke-width="2" stroke-linejoin="round"  />
  <rect x="383.94180327868855" y="232.73402580735114" width="40" height="20" rx="10" fill="#fbfaf8" fill-opacity="0.9" />
  <text x="403.94180327868855" y="246.73402580735114" text-anchor="middle" font-family="Open Sans, Arial, sans-serif" font-size="11" font-weight="700" fill="#E68C6C">M10</text>
</g>
<g>
  <path d="M551.714,290.422C549.429,284.906,545.79,279.459,541.569,275.238C537.347,271.016,531.901,267.377,526.385,265.092C520.869,262.808,514.445,261.53,508.475,261.53C502.504,261.53,496.08,262.808,490.564,265.092C485.049,267.377,479.602,271.016,475.38,275.238C471.159,279.459,467.52,284.906,465.235,290.422C462.95,295.937,461.672,302.362,461.672,308.332C461.672,314.302,462.95,320.727,465.235,326.242C467.52,331.758,471.159,337.205,475.38,341.426C479.602,345.648,485.049,349.287,490.564,351.571C496.08,353.856,502.504,355.134,508.475,355.134C514.445,355.134,520.869,353.856,526.385,351.571C531.901,349.287,537.347,345.648,541.569,341.426C545.79,337.205,549.429,331.758,551.714,326.242C553.999,320.727,555.277,314.302,555.277,308.332C555.277,302.362,553.999,295.937,551.714,290.422" fill="#82A3C9" fill-opacity="0.09" stroke="#82A3C9" stroke-opacity="0.55" stroke-width="2" stroke-linejoin="round"  />
  <rect x="494.4745901639344" y="267.52984357329814" width="40" height="20" rx="10" fill="#fbfaf8" fill-opacity="0.9" />
  <text x="514.4745901639344" y="281.52984357329814" text-anchor="middle" font-family="Open Sans, Arial, sans-serif" font-size="11" font-weight="700" fill="#82A3C9">M11</text>
</g>
<g>
  <path d="M688.222,278.858C685.882,273.209,682.154,267.63,677.83,263.307C673.507,258.983,667.928,255.255,662.279,252.915C656.629,250.575,650.049,249.266,643.934,249.266C637.82,249.266,631.239,250.575,625.59,252.915C619.941,255.255,614.362,258.983,610.039,263.307C605.715,267.63,601.987,273.209,599.647,278.858C597.307,284.507,595.998,291.088,595.998,297.202C595.998,303.317,597.307,309.897,599.647,315.547C601.987,321.196,605.715,326.775,610.039,331.098C614.362,335.422,619.941,339.15,625.59,341.49C631.239,343.83,637.82,345.138,643.934,345.138C650.049,345.138,656.629,343.83,662.279,341.49C667.928,339.15,673.507,335.422,677.83,331.098C682.154,326.775,685.882,321.196,688.222,315.547C690.562,309.897,691.87,303.317,691.87,297.202C691.87,291.088,690.562,284.507,688.222,278.858" fill="#5B8E8A" fill-opacity="0.09" stroke="#5B8E8A" stroke-opacity="0.55" stroke-width="2" stroke-linejoin="round"  />
  <rect x="629.9344262295082" y="255.26643223957817" width="40" height="20" rx="10" fill="#fbfaf8" fill-opacity="0.9" />
  <text x="649.9344262295082" y="269.2664322395782" text-anchor="middle" font-family="Open Sans, Arial, sans-serif" font-size="11" font-weight="700" fill="#5B8E8A">M12</text>
</g>
<g>
  <path d="M554.37,360.291C551.945,354.437,548.082,348.655,543.602,344.175C539.121,339.694,533.34,335.831,527.485,333.406C521.631,330.981,514.811,329.624,508.475,329.624C502.138,329.624,495.318,330.981,489.464,333.406C483.609,335.831,477.828,339.694,473.348,344.175C468.867,348.655,465.004,354.437,462.579,360.291C460.154,366.146,458.797,372.965,458.797,379.302C458.797,385.639,460.154,392.458,462.579,398.312C465.004,404.167,468.867,409.948,473.348,414.429C477.828,418.91,483.609,422.772,489.464,425.197C495.318,427.622,502.138,428.979,508.475,428.979C514.811,428.979,521.631,427.622,527.485,425.197C533.34,422.772,539.121,418.91,543.602,414.429C548.082,409.948,551.945,404.167,554.37,398.312C556.795,392.458,558.152,385.639,558.152,379.302C558.152,372.965,556.795,366.146,554.37,360.291" fill="#EBC384" fill-opacity="0.09" stroke="#EBC384" stroke-opacity="0.55" stroke-width="2" stroke-linejoin="round"  />
  <rect x="494.4745901639344" y="335.62448942684955" width="40" height="20" rx="10" fill="#fbfaf8" fill-opacity="0.9" />
  <text x="514.4745901639344" y="349.62448942684955" text-anchor="middle" font-family="Open Sans, Arial, sans-serif" font-size="11" font-weight="700" fill="#EBC384">M13</text>
</g>
<g>
  <path d="M647.348,517.525C644.9,511.615,641.605,508.541,636.477,501.255C625.422,485.548,595.879,441.066,582.339,428.167C576.169,422.289,572.34,420.038,566.636,417.675C560.932,415.312,554.288,413.991,548.114,413.991C541.94,413.991,535.296,415.312,529.592,417.675C523.887,420.038,518.255,423.801,513.889,428.167C509.523,432.533,505.76,438.165,503.397,443.869C501.034,449.574,499.713,456.218,499.713,462.392C499.713,468.566,501.034,475.21,503.397,480.914C505.76,486.618,509.041,489.444,513.889,496.617C524.563,512.408,552.091,558.853,565.557,572.176C571.783,578.335,575.916,580.598,581.826,583.047C587.736,585.495,594.62,586.864,601.017,586.864C607.414,586.864,614.298,585.495,620.208,583.047C626.118,580.598,631.954,576.699,636.477,572.176C641.001,567.652,644.9,561.817,647.348,555.906C649.796,549.996,651.165,543.113,651.165,536.716C651.165,530.319,649.796,523.435,647.348,517.525" fill="#B4CCDF" fill-opacity="0.09" stroke="#B4CCDF" stroke-opacity="0.55" stroke-width="2" stroke-linejoin="round"  />
  <rect x="534.1139344262294" y="419.99063850652084" width="40" height="20" rx="10" fill="#fbfaf8" fill-opacity="0.9" />
  <text x="554.1139344262294" y="433.99063850652084" text-anchor="middle" font-family="Open Sans, Arial, sans-serif" font-size="11" font-weight="700" fill="#B4CCDF">M15</text>
</g>
<g>
  <path d="M559.393,572.319C557.138,566.874,553.545,561.497,549.377,557.33C545.21,553.162,539.833,549.57,534.388,547.314C528.943,545.059,522.601,543.797,516.707,543.797C510.814,543.797,504.471,545.059,499.026,547.314C493.581,549.57,488.205,553.162,484.037,557.33C479.87,561.497,476.277,566.874,474.022,572.319C471.766,577.764,470.505,584.106,470.505,590C470.505,595.894,471.766,602.236,474.022,607.681C476.277,613.126,479.87,618.503,484.037,622.67C488.205,626.838,493.581,630.43,499.026,632.686C504.471,634.941,510.814,636.203,516.707,636.203C522.601,636.203,528.943,634.941,534.388,632.686C539.833,630.43,545.21,626.838,549.377,622.67C553.545,618.503,557.138,613.126,559.393,607.681C561.648,602.236,562.91,595.894,562.91,590C562.91,584.106,561.648,577.764,559.393,572.319" fill="#E68C6C" fill-opacity="0.09" stroke="#E68C6C" stroke-opacity="0.55" stroke-width="2" stroke-linejoin="round"  />
  <rect x="502.7073770491804" y="549.7974822351648" width="40" height="20" rx="10" fill="#fbfaf8" fill-opacity="0.9" />
  <text x="522.7073770491804" y="563.7974822351648" text-anchor="middle" font-family="Open Sans, Arial, sans-serif" font-size="11" font-weight="700" fill="#E68C6C">M16</text>
</g>
<g>
  <path d="M513.113,504.897C510.601,498.83,506.598,492.84,501.955,488.197C497.312,483.554,491.322,479.552,485.256,477.039C479.189,474.526,472.123,473.121,465.557,473.121C458.991,473.121,451.925,474.526,445.859,477.039C439.793,479.552,433.803,483.554,429.16,488.197C424.517,492.84,420.514,498.83,418.001,504.897C415.489,510.963,414.083,518.029,414.083,524.595C414.083,531.161,415.489,538.227,418.001,544.293C420.514,550.36,424.517,556.35,429.16,560.993C433.803,565.636,439.793,569.638,445.859,572.151C451.925,574.664,458.991,576.069,465.557,576.069C472.123,576.069,479.189,574.664,485.256,572.151C491.322,569.638,497.312,565.636,501.955,560.993C506.598,556.35,510.601,550.36,513.113,544.293C515.626,538.227,517.032,531.161,517.032,524.595C517.032,518.029,515.626,510.963,513.113,504.897" fill="#82A3C9" fill-opacity="0.09" stroke="#82A3C9" stroke-opacity="0.55" stroke-width="2" stroke-linejoin="round"  />
  <rect x="451.55737704918033" y="479.12081485481804" width="40" height="20" rx="10" fill="#fbfaf8" fill-opacity="0.9" />
  <text x="471.55737704918033" y="493.12081485481804" text-anchor="middle" font-family="Open Sans, Arial, sans-serif" font-size="11" font-weight="700" fill="#82A3C9">M17</text>
</g>
<g>
  <path d="M403.652,488.794C401.078,482.582,396.979,476.447,392.224,471.692C387.469,466.937,381.335,462.838,375.122,460.265C368.909,457.691,361.673,456.252,354.948,456.252C348.224,456.252,340.987,457.691,334.775,460.265C328.562,462.838,322.427,466.937,317.673,471.692C312.918,476.447,308.818,482.582,306.245,488.794C303.672,495.007,302.232,502.244,302.232,508.968C302.232,515.693,303.672,522.929,306.245,529.142C308.818,535.354,312.918,541.489,317.673,546.244C322.427,550.999,328.562,555.098,334.775,557.671C340.987,560.245,348.224,561.684,354.948,561.684C361.673,561.684,368.909,560.245,375.122,557.671C381.335,555.098,387.469,550.999,392.224,546.244C396.979,541.489,401.078,535.354,403.652,529.142C406.225,522.929,407.664,515.693,407.664,508.968C407.664,502.244,406.225,495.007,403.652,488.794" fill="#5B8E8A" fill-opacity="0.09" stroke="#5B8E8A" stroke-opacity="0.55" stroke-width="2" stroke-linejoin="round"  />
  <rect x="340.9483606557377" y="462.25200597526896" width="40" height="20" rx="10" fill="#fbfaf8" fill-opacity="0.9" />
  <text x="360.9483606557377" y="476.25200597526896" text-anchor="middle" font-family="Open Sans, Arial, sans-serif" font-size="11" font-weight="700" fill="#5B8E8A">M18</text>
</g>
<g>
  <path d="M197.893,414.727C195.683,409.392,192.162,404.123,188.079,400.039C183.995,395.956,178.726,392.435,173.391,390.225C168.055,388.015,161.841,386.779,156.066,386.779C150.29,386.779,144.076,388.015,138.74,390.225C133.405,392.435,128.136,395.956,124.053,400.039C119.969,404.123,116.449,409.392,114.239,414.727C112.029,420.063,110.792,426.277,110.792,432.052C110.792,437.828,112.029,444.042,114.239,449.378C116.449,454.713,119.969,459.982,124.053,464.065C128.136,468.149,133.405,471.669,138.74,473.879C144.076,476.09,150.29,477.326,156.066,477.326C161.841,477.326,168.055,476.09,173.391,473.879C178.726,471.669,183.995,468.149,188.079,464.065C192.162,459.982,195.683,454.713,197.893,449.378C200.103,444.042,201.339,437.828,201.339,432.052C201.339,426.277,200.103,420.063,197.893,414.727" fill="#EBC384" fill-opacity="0.09" stroke="#EBC384" stroke-opacity="0.55" stroke-width="2" stroke-linejoin="round"  />
  <rect x="142.06557377049182" y="392.77920981049925" width="40" height="20" rx="10" fill="#fbfaf8" fill-opacity="0.9" />
  <text x="162.06557377049182" y="406.77920981049925" text-anchor="middle" font-family="Open Sans, Arial, sans-serif" font-size="11" font-weight="700" fill="#EBC384">M19</text>
</g>
<g>
  <path d="M228.793,513.97C226.368,508.116,222.505,502.335,218.025,497.854C213.544,493.373,207.763,489.511,201.909,487.086C196.054,484.661,189.235,483.304,182.898,483.304C176.562,483.304,169.743,484.661,163.888,487.086C158.034,489.511,152.253,493.373,147.772,497.854C143.291,502.335,139.429,508.116,137.004,513.97C134.579,519.824,133.222,526.644,133.222,532.98C133.222,539.317,134.579,546.136,137.004,551.991C139.429,557.845,143.291,563.626,147.772,568.107C152.253,572.587,158.034,576.45,163.888,578.875C169.743,581.3,176.562,582.656,182.898,582.656C189.235,582.656,196.054,581.3,201.909,578.875C207.763,576.45,213.544,572.587,218.025,568.107C222.505,563.626,226.368,557.845,228.793,551.991C231.218,546.136,232.574,539.317,232.574,532.98C232.574,526.644,231.218,519.824,228.793,513.97" fill="#DFDDA2" fill-opacity="0.09" stroke="#DFDDA2" stroke-opacity="0.55" stroke-width="2" stroke-linejoin="round"  />
  <rect x="168.89836065573772" y="489.30425417194886" width="40" height="20" rx="10" fill="#fbfaf8" fill-opacity="0.9" />
  <text x="188.89836065573772" y="503.30425417194886" text-anchor="middle" font-family="Open Sans, Arial, sans-serif" font-size="11" font-weight="700" fill="#DFDDA2">M20</text>
</g>
<g>
  <path d="M306.481,469.236C304.233,463.809,300.651,458.449,296.497,454.295C292.343,450.14,286.983,446.559,281.555,444.311C276.128,442.063,269.805,440.805,263.93,440.805C258.055,440.805,251.733,442.063,246.305,444.311C240.878,446.559,235.518,450.14,231.364,454.295C227.209,458.449,223.628,463.809,221.38,469.236C219.131,474.664,217.874,480.986,217.874,486.861C217.874,492.736,219.131,499.059,221.38,504.486C223.628,509.914,227.209,515.274,231.364,519.428C235.518,523.583,240.878,527.164,246.305,529.412C251.733,531.66,258.055,532.918,263.93,532.918C269.805,532.918,276.128,531.66,281.555,529.412C286.983,527.164,292.343,523.583,296.497,519.428C300.651,515.274,304.233,509.914,306.481,504.486C308.729,499.059,309.987,492.736,309.987,486.861C309.987,480.986,308.729,474.664,306.481,469.236" fill="#B4CCDF" fill-opacity="0.09" stroke="#B4CCDF" stroke-opacity="0.55" stroke-width="2" stroke-linejoin="round"  />
  <rect x="249.9303278688525" y="446.805074596155" width="40" height="20" rx="10" fill="#fbfaf8" fill-opacity="0.9" />
  <text x="269.9303278688525" y="460.805074596155" text-anchor="middle" font-family="Open Sans, Arial, sans-serif" font-size="11" font-weight="700" fill="#B4CCDF">M21</text>
</g>
<g>
  <path d="M314.599,395.971C311.922,389.508,307.658,383.125,302.711,378.179C297.764,373.232,291.382,368.967,284.918,366.29C278.455,363.613,270.926,362.115,263.93,362.115C256.934,362.115,249.406,363.613,242.943,366.29C236.479,368.967,230.097,373.232,225.15,378.179C220.203,383.125,215.938,389.508,213.261,395.971C210.584,402.435,209.087,409.963,209.087,416.959C209.087,423.955,210.584,431.483,213.261,437.947C215.938,444.41,220.203,450.793,225.15,455.739C230.097,460.686,236.479,464.951,242.943,467.628C249.406,470.305,256.934,471.803,263.93,471.803C270.926,471.803,278.455,470.305,284.918,467.628C291.382,464.951,297.764,460.686,302.711,455.739C307.658,450.793,311.922,444.41,314.599,437.947C317.277,431.483,318.774,423.955,318.774,416.959C318.774,409.963,317.277,402.435,314.599,395.971" fill="#E68C6C" fill-opacity="0.09" stroke="#E68C6C" stroke-opacity="0.55" stroke-width="2" stroke-linejoin="round"  />
  <rect x="249.9303278688525" y="368.1152159740563" width="40" height="20" rx="10" fill="#fbfaf8" fill-opacity="0.9" />
  <text x="269.9303278688525" y="382.1152159740563" text-anchor="middle" font-family="Open Sans, Arial, sans-serif" font-size="11" font-weight="700" fill="#E68C6C">M22</text>
</g>
<g>
  <path d="M227.638,332.637C225.371,327.163,221.76,321.758,217.57,317.568C213.381,313.379,207.976,309.767,202.502,307.5C197.028,305.233,190.653,303.965,184.728,303.965C178.803,303.965,172.427,305.233,166.954,307.5C161.48,309.767,156.075,313.379,151.886,317.568C147.696,321.758,144.085,327.163,141.817,332.637C139.55,338.11,138.282,344.486,138.282,350.411C138.282,356.335,139.55,362.711,141.817,368.185C144.085,373.658,147.696,379.064,151.886,383.253C156.075,387.442,161.48,391.054,166.954,393.321C172.427,395.588,178.803,396.857,184.728,396.857C190.653,396.857,197.028,395.588,202.502,393.321C207.976,391.054,213.381,387.442,217.57,383.253C221.76,379.064,225.371,373.658,227.638,368.185C229.906,362.711,231.174,356.335,231.174,350.411C231.174,344.486,229.906,338.11,227.638,332.637" fill="#82A3C9" fill-opacity="0.09" stroke="#82A3C9" stroke-opacity="0.55" stroke-width="2" stroke-linejoin="round"  />
  <rect x="170.72786885245904" y="309.96462875431587" width="40" height="20" rx="10" fill="#fbfaf8" fill-opacity="0.9" />
  <text x="190.72786885245904" y="323.96462875431587" text-anchor="middle" font-family="Open Sans, Arial, sans-serif" font-size="11" font-weight="700" fill="#82A3C9">M23</text>
</g>
<g>
  <path d="M361.308,313.453C358.801,307.401,354.807,301.424,350.175,296.792C345.543,292.16,339.566,288.166,333.514,285.659C327.461,283.153,320.412,281.75,313.861,281.75C307.31,281.75,300.26,283.153,294.207,285.659C288.155,288.166,282.179,292.16,277.546,296.792C272.914,301.424,268.921,307.401,266.414,313.453C263.907,319.506,262.504,326.555,262.504,333.107C262.504,339.658,263.907,346.707,266.414,352.76C268.921,358.812,272.914,364.789,277.546,369.421C282.179,374.053,288.155,378.047,294.207,380.554C300.26,383.061,307.31,384.463,313.861,384.463C320.412,384.463,327.461,383.061,333.514,380.554C339.566,378.047,345.543,374.053,350.175,369.421C354.807,364.789,358.801,358.812,361.308,352.76C363.815,346.707,365.217,339.658,365.217,333.107C365.217,326.555,363.815,319.506,361.308,313.453" fill="#5B8E8A" fill-opacity="0.09" stroke="#5B8E8A" stroke-opacity="0.55" stroke-width="2" stroke-linejoin="round"  />
  <rect x="299.8606557377049" y="287.7502220300075" width="40" height="20" rx="10" fill="#fbfaf8" fill-opacity="0.9" />
  <text x="319.8606557377049" y="301.7502220300075" text-anchor="middle" font-family="Open Sans, Arial, sans-serif" font-size="11" font-weight="700" fill="#5B8E8A">M24</text>
</g>
<g>
  <path d="M428.802,382.429C426.41,376.655,422.6,370.953,418.181,366.533C413.761,362.113,408.059,358.304,402.285,355.912C396.511,353.52,389.785,352.182,383.534,352.182C377.284,352.182,370.558,353.52,364.784,355.912C359.009,358.304,353.308,362.113,348.888,366.533C344.468,370.953,340.658,376.655,338.267,382.429C335.875,388.203,334.537,394.929,334.537,401.18C334.537,407.43,335.875,414.156,338.267,419.93C340.658,425.704,344.468,431.406,348.888,435.826C353.308,440.246,359.009,444.055,364.784,446.447C370.558,448.839,377.284,450.177,383.534,450.177C389.785,450.177,396.511,448.839,402.285,446.447C408.059,444.055,413.761,440.246,418.181,435.826C422.6,431.406,426.41,425.704,428.802,419.93C431.194,414.156,432.532,407.43,432.532,401.18C432.532,394.929,431.194,388.203,428.802,382.429" fill="#EBC384" fill-opacity="0.09" stroke="#EBC384" stroke-opacity="0.55" stroke-width="2" stroke-linejoin="round"  />
  <rect x="369.5344262295082" y="358.1820044512282" width="40" height="20" rx="10" fill="#fbfaf8" fill-opacity="0.9" />
  <text x="389.5344262295082" y="372.1820044512282" text-anchor="middle" font-family="Open Sans, Arial, sans-serif" font-size="11" font-weight="700" fill="#EBC384">M25</text>
</g>
    <line x1="203.0888222881433" y1="198.45095625612126" x2="240.56634755399367" y2="197.8348873476415" stroke="#6F6A62" stroke-width="3.660238469913802" stroke-opacity="0.26" stroke-linecap="round" />
<line x1="250.1805512156423" y1="146.9712956507136" x2="259.3095099150638" y2="169.53218576985685" stroke="#6F6A62" stroke-width="4.931508828281255" stroke-opacity="0.26" stroke-linecap="round" />
<line x1="252.77484686246913" y1="221.49975612736083" x2="228.97625443595027" y2="253.8217208414672" stroke="#90a3b2" stroke-width="6.424864538776978" stroke-opacity="0.52" stroke-linecap="round" />
<line x1="264.14369070666334" y1="131.28435618434528" x2="333.7301543184891" y2="150.41952631821462" stroke="#4b5563" stroke-width="9" stroke-opacity="0.72" stroke-linecap="round" />
<line x1="298.0666549623106" y1="185.36222951446146" x2="335.07294580034824" y2="169.24407251086797" stroke="#4b5563" stroke-width="5.914120974629114" stroke-opacity="0.72" stroke-linecap="round" />
<line x1="288.0713765265445" y1="221.70226441896992" x2="303.8297231615088" y2="243.62692060674635" stroke="#6F6A62" stroke-width="6.177154739626204" stroke-opacity="0.26" stroke-linecap="round" />
<line x1="350.3028520955761" y1="184.1454291437343" x2="327.0438834922709" y2="240.89566879243498" stroke="#4b5563" stroke-width="4.828899519067488" stroke-opacity="0.72" stroke-linecap="round" />
<line x1="237.6249488900288" y1="269.4069600940065" x2="293.863103617564" y2="265.06147627034846" stroke="#6F6A62" stroke-width="4.041936690520686" stroke-opacity="0.26" stroke-linecap="round" />
<line x1="388.96831967049013" y1="162.72735758168534" x2="428.5999774056571" y2="169.53505362812933" stroke="#4b5563" stroke-width="3.44737112677186" stroke-opacity="0.72" stroke-linecap="round" />
<line x1="482.6951572301299" y1="177.80318737256937" x2="571.498855557505" y2="189.70471395252684" stroke="#6F6A62" stroke-width="8.21376191795757" stroke-opacity="0.26" stroke-linecap="round" />
<line x1="575.2041784174155" y1="206.3809972698989" x2="535.4633188305024" y2="231.88198760811918" stroke="#6F6A62" stroke-width="4.383149769240377" stroke-opacity="0.26" stroke-linecap="round" />
<line x1="472.52578082302375" y1="195.64973026470315" x2="495.88660540008567" y2="225.24842522282296" stroke="#6F6A62" stroke-width="5.285740397898364" stroke-opacity="0.26" stroke-linecap="round" />
<line x1="486.5032688020167" y1="253.51586234998118" x2="422.57041774091834" y2="270.6354231324547" stroke="#6F6A62" stroke-width="5.38810884856445" stroke-opacity="0.26" stroke-linecap="round" />
<line x1="442.2150843306485" y1="198.05377233677586" x2="410.3853460225697" y2="254.97679640095913" stroke="#6F6A62" stroke-width="4.3529028242377485" stroke-opacity="0.26" stroke-linecap="round" />
<line x1="510.834536451827" y1="273.53348649528056" x2="509.94976744864425" y2="286.5798076149386" stroke="#6F6A62" stroke-width="2.598528523099912" stroke-opacity="0.26" stroke-linecap="round" />
<line x1="606.4081223570689" y1="215.5170173068003" x2="634.3596518487043" y2="276.3605536365226" stroke="#6F6A62" stroke-width="3.575376837958691" stroke-opacity="0.26" stroke-linecap="round" />
<line x1="530.2034975203809" y1="306.5466996419042" x2="621.0754236299529" y2="299.08057628118524" stroke="#6F6A62" stroke-width="2.714660921964618" stroke-opacity="0.26" stroke-linecap="round" />
<line x1="537.9342941276782" y1="256.26744865186555" x2="622.5384144517335" y2="288.93977154123655" stroke="#6F6A62" stroke-width="3.5642260360054054" stroke-opacity="0.26" stroke-linecap="round" />
<line x1="508.47459019465475" y1="330.13409085293137" x2="508.474590129163" y2="354.62448942684955" stroke="#6F6A62" stroke-width="6.1794321631403495" stroke-opacity="0.26" stroke-linecap="round" />
<line x1="416.67310663314623" y1="294.52771765617575" x2="490.34509123065766" y2="362.5599848120847" stroke="#6F6A62" stroke-width="3.634574568576032" stroke-opacity="0.26" stroke-linecap="round" />
<line x1="624.3197341288695" y1="309.09048568627964" x2="529.5782757438901" y2="366.51116699220137" stroke="#6F6A62" stroke-width="3.783829835072607" stroke-opacity="0.26" stroke-linecap="round" />
<line x1="519.0999862024914" y1="401.5741041173915" x2="538.0379473572219" y2="441.27098423019197" stroke="#6F6A62" stroke-width="2.850391533924674" stroke-opacity="0.26" stroke-linecap="round" />
<line x1="561.684122346802" y1="481.45654855615" x2="586.4339029161348" y2="516.2274938805007" stroke="#90a3b2" stroke-width="5.556259855649462" stroke-opacity="0.52" stroke-linecap="round" />
<line x1="579.7587605267976" y1="550.1510695742727" x2="534.6304040146405" y2="578.6725173156813" stroke="#6F6A62" stroke-width="4.454897640277057" stroke-opacity="0.26" stroke-linecap="round" />
<line x1="529.4241118417265" y1="476.47388566922814" x2="486.70159615975626" y2="508.66370357918913" stroke="#6F6A62" stroke-width="5.501433663784223" stroke-opacity="0.26" stroke-linecap="round" />
<line x1="575.9690344308218" y1="534.4743467526273" x2="491.9262988722679" y2="526.9544846514399" stroke="#6F6A62" stroke-width="6.786867649436557" stroke-opacity="0.26" stroke-linecap="round" />
<line x1="503.64586450744434" y1="573.2983937990916" x2="481.86647655128405" y2="545.4493403469522" stroke="#6F6A62" stroke-width="5.7332827781957025" stroke-opacity="0.26" stroke-linecap="round" />
<line x1="439.34343981190136" y1="520.8915277744893" x2="382.3918469748089" y2="512.8452999787595" stroke="#6F6A62" stroke-width="1.6" stroke-opacity="0.26" stroke-linecap="round" />
<line x1="327.49838817129125" y1="512.7991100277362" x2="207.3375614332563" y2="529.5694513757562" stroke="#6F6A62" stroke-width="4.778037877346057" stroke-opacity="0.26" stroke-linecap="round" />
<line x1="204.34426661657457" y1="520.77452061927" x2="245.63026938829464" y2="497.27684265418" stroke="#6F6A62" stroke-width="5.084047858805127" stroke-opacity="0.26" stroke-linecap="round" />
<line x1="328.01535675024365" y1="502.4265159254168" x2="284.3918510592123" y2="491.8311920976119" stroke="#6F6A62" stroke-width="2.6819855344814916" stroke-opacity="0.26" stroke-linecap="round" />
<line x1="335.4565685083954" y1="489.2640184469839" x2="284.9185149064563" y2="438.17571803028335" stroke="#6F6A62" stroke-width="4.589029579409083" stroke-opacity="0.26" stroke-linecap="round" />
<line x1="197.0277418809056" y1="512.7499250234099" x2="246.8419353428468" y2="441.4261221550425" stroke="#6F6A62" stroke-width="2.6098168355510145" stroke-opacity="0.26" stroke-linecap="round" />
<line x1="263.930327898975" y1="465.805074596155" x2="263.930327826159" y2="446.8028168128289" stroke="#6F6A62" stroke-width="2.675151605896777" stroke-opacity="0.26" stroke-linecap="round" />
<line x1="176.14321358096208" y1="429.24300835740183" x2="234.37447970112058" y2="421.09474638440435" stroke="#6F6A62" stroke-width="4.9585813870887545" stroke-opacity="0.26" stroke-linecap="round" />
<line x1="241.0813842583975" y1="397.760625852608" x2="201.14732798050764" y2="364.2067941580961" stroke="#6F6A62" stroke-width="4.741590510578419" stroke-opacity="0.26" stroke-linecap="round" />
<line x1="205.9839015678858" y1="347.5622971624972" x2="287.73781597678317" y2="336.6070795882235" stroke="#6F6A62" stroke-width="5.787733199474829" stroke-opacity="0.26" stroke-linecap="round" />
<line x1="376.7068875554424" y1="291.34201710288636" x2="335.81186099555043" y2="318.5188570561056" stroke="#6F6A62" stroke-width="4.484728432691661" stroke-opacity="0.26" stroke-linecap="round" />
<line x1="279.1990481151251" y1="391.3168907890153" x2="300.37619647059654" y2="355.752214161506" stroke="#6F6A62" stroke-width="5.579947214051375" stroke-opacity="0.26" stroke-linecap="round" />
<line x1="332.7127125586648" y1="351.52547066054717" x2="366.369585282756" y2="384.4090454336472" stroke="#6F6A62" stroke-width="3.5524334913653863" stroke-opacity="0.26" stroke-linecap="round" />
<line x1="293.51774233562935" y1="413.05551429361924" x2="359.7430833204895" y2="404.3183278156931" stroke="#6F6A62" stroke-width="2.5302191549587953" stroke-opacity="0.26" stroke-linecap="round" />
<line x1="362.0531830012608" y1="482.17811599603294" x2="377.38282297098147" y2="424.375153550206" stroke="#6F6A62" stroke-width="8.782421381397839" stroke-opacity="0.26" stroke-linecap="round" />
<line x1="176.55819699150396" y1="509.1326668136096" x2="161.27449474997871" y2="451.6451049733271" stroke="#6F6A62" stroke-width="3.9745081765006463" stroke-opacity="0.26" stroke-linecap="round" />
    <g>
  <circle cx="187.0909836065574" cy="198.7139344262295" r="11" fill="#EBC384" stroke="#ffffff" stroke-width="3" />
  
  <text x="187.0909836065574" y="203.7139344262295" text-anchor="middle" font-family="Open Sans, Arial, sans-serif" font-size="12" font-weight="700" fill="#ffffff">0</text>
</g>
<g>
  <circle cx="241.29016393442626" cy="125" r="18.701831544863268" fill="#DFDDA2" stroke="#ffffff" stroke-width="3" />
  
  <text x="241.29016393442626" y="130" text-anchor="middle" font-family="Open Sans, Arial, sans-serif" font-size="14" font-weight="700" fill="#ffffff">1</text>
</g>
<g>
  <circle cx="270.56229508196725" cy="197.34180327868853" r="25" fill="#B4CCDF" stroke="#ffffff" stroke-width="3" />
  
  <text x="270.56229508196725" y="202.34180327868853" text-anchor="middle" font-family="Open Sans, Arial, sans-serif" font-size="14" font-weight="700" fill="#ffffff">2</text>
</g>
<g>
  <circle cx="216.28688524590166" cy="271.05573770491804" r="16.401668806218446" fill="#B4CCDF" stroke="#ffffff" stroke-width="3" />
  
  <text x="216.28688524590166" y="276.05573770491804" text-anchor="middle" font-family="Open Sans, Arial, sans-serif" font-size="12" font-weight="700" fill="#ffffff">3</text>
</g>
<g>
  <circle cx="361.0467213114754" cy="157.9311475409836" r="27.330536275839574" fill="#82A3C9" stroke="#4b5563" stroke-width="4" />
  
  <text x="361.0467213114754" y="162.9311475409836" text-anchor="middle" font-family="Open Sans, Arial, sans-serif" font-size="14" font-weight="700" fill="#ffffff">4</text>
</g>
<g>
  <circle cx="317.9008196721312" cy="263.20409836065573" r="19.109368424316163" fill="#5B8E8A" stroke="#ffffff" stroke-width="3" />
  
  <text x="317.9008196721312" y="268.20409836065573" text-anchor="middle" font-family="Open Sans, Arial, sans-serif" font-size="14" font-weight="700" fill="#ffffff">5</text>
</g>
<g>
  <circle cx="455.5713114754098" cy="174.16803278688525" r="22.366354477490564" fill="#EBC384" stroke="#ffffff" stroke-width="3" />
  
  <text x="455.5713114754098" y="179.16803278688525" text-anchor="middle" font-family="Open Sans, Arial, sans-serif" font-size="14" font-weight="700" fill="#ffffff">6</text>
</g>
<g>
  <circle cx="596.0622950819672" cy="192.9967213114754" r="19.783056182062882" fill="#DFDDA2" stroke="#ffffff" stroke-width="3" />
  
  <text x="596.0622950819672" y="197.9967213114754" text-anchor="middle" font-family="Open Sans, Arial, sans-serif" font-size="14" font-weight="700" fill="#ffffff">7</text>
</g>
<g>
  <circle cx="512.6672131147541" cy="246.50983606557375" r="22.085722923670133" fill="#B4CCDF" stroke="#ffffff" stroke-width="3" />
  
  <text x="512.6672131147541" y="251.50983606557375" text-anchor="middle" font-family="Open Sans, Arial, sans-serif" font-size="14" font-weight="700" fill="#ffffff">8</text>
</g>
<g>
  <circle cx="397.94180327868855" cy="277.23032786885244" r="20.49630206150129" fill="#E68C6C" stroke="#ffffff" stroke-width="3" />
  
  <text x="397.94180327868855" y="282.23032786885244" text-anchor="middle" font-family="Open Sans, Arial, sans-serif" font-size="14" font-weight="700" fill="#ffffff">9</text>
</g>
<g>
  <circle cx="508.4745901639344" cy="308.33196721311475" r="16.802123639816603" fill="#82A3C9" stroke="#ffffff" stroke-width="3" />
  
  <text x="508.4745901639344" y="313.33196721311475" text-anchor="middle" font-family="Open Sans, Arial, sans-serif" font-size="12" font-weight="700" fill="#ffffff">10</text>
</g>
<g>
  <circle cx="643.9344262295082" cy="297.2024590163934" r="17.93602677681522" fill="#5B8E8A" stroke="#ffffff" stroke-width="3" />
  
  <text x="643.9344262295082" y="302.2024590163934" text-anchor="middle" font-family="Open Sans, Arial, sans-serif" font-size="14" font-weight="700" fill="#ffffff">11</text>
</g>
<g>
  <circle cx="508.4745901639344" cy="379.3016393442623" r="19.677149917412773" fill="#EBC384" stroke="#ffffff" stroke-width="3" />
  
  <text x="508.4745901639344" y="384.3016393442623" text-anchor="middle" font-family="Open Sans, Arial, sans-serif" font-size="14" font-weight="700" fill="#ffffff">12</text>
</g>
<g>
  <circle cx="548.1139344262294" cy="462.39180327868854" r="18.401164772167697" fill="#B4CCDF" stroke="#ffffff" stroke-width="3" />
  
  <text x="548.1139344262294" y="467.39180327868854" text-anchor="middle" font-family="Open Sans, Arial, sans-serif" font-size="14" font-weight="700" fill="#ffffff">13</text>
</g>
<g>
  <circle cx="601.0172131147542" cy="536.7155737704918" r="20.148247531941728" fill="#B4CCDF" stroke="#ffffff" stroke-width="3" />
  
  <text x="601.0172131147542" y="541.7155737704918" text-anchor="middle" font-family="Open Sans, Arial, sans-serif" font-size="14" font-weight="700" fill="#ffffff">14</text>
</g>
<g>
  <circle cx="516.7073770491804" cy="590" r="16.20251776483515" fill="#E68C6C" stroke="#ffffff" stroke-width="3" />
  
  <text x="516.7073770491804" y="595" text-anchor="middle" font-family="Open Sans, Arial, sans-serif" font-size="12" font-weight="700" fill="#ffffff">15</text>
</g>
<g>
  <circle cx="465.55737704918033" cy="524.5950819672131" r="21.474267112395047" fill="#82A3C9" stroke="#ffffff" stroke-width="3" />
  
  <text x="465.55737704918033" y="529.5950819672131" text-anchor="middle" font-family="Open Sans, Arial, sans-serif" font-size="14" font-weight="700" fill="#ffffff">16</text>
</g>
<g>
  <circle cx="354.9483606557377" cy="508.96803278688526" r="22.716026811616317" fill="#5B8E8A" stroke="#ffffff" stroke-width="3" />
  
  <text x="354.9483606557377" y="513.9680327868853" text-anchor="middle" font-family="Open Sans, Arial, sans-serif" font-size="14" font-weight="700" fill="#ffffff">17</text>
</g>
<g>
  <circle cx="156.06557377049182" cy="432.0524590163934" r="15.273249205894166" fill="#EBC384" stroke="#ffffff" stroke-width="3" />
  
  <text x="156.06557377049182" y="437.0524590163934" text-anchor="middle" font-family="Open Sans, Arial, sans-serif" font-size="12" font-weight="700" fill="#ffffff">18</text>
</g>
<g>
  <circle cx="182.89836065573772" cy="532.9803278688526" r="19.676073696903675" fill="#DFDDA2" stroke="#ffffff" stroke-width="3" />
  
  <text x="182.89836065573772" y="537.9803278688526" text-anchor="middle" font-family="Open Sans, Arial, sans-serif" font-size="14" font-weight="700" fill="#ffffff">19</text>
</g>
<g>
  <circle cx="263.9303278688525" cy="486.8614754098361" r="16.056400813681066" fill="#B4CCDF" stroke="#ffffff" stroke-width="3" />
  
  <text x="263.9303278688525" y="491.8614754098361" text-anchor="middle" font-family="Open Sans, Arial, sans-serif" font-size="12" font-weight="700" fill="#ffffff">20</text>
</g>
<g>
  <circle cx="263.9303278688525" cy="416.9590163934426" r="24.8438004193863" fill="#E68C6C" stroke="#ffffff" stroke-width="3" />
  
  <text x="263.9303278688525" y="421.9590163934426" text-anchor="middle" font-family="Open Sans, Arial, sans-serif" font-size="14" font-weight="700" fill="#ffffff">21</text>
</g>
<g>
  <circle cx="184.72786885245904" cy="350.41065573770493" r="16.446026983389054" fill="#82A3C9" stroke="#ffffff" stroke-width="3" />
  
  <text x="184.72786885245904" y="355.41065573770493" text-anchor="middle" font-family="Open Sans, Arial, sans-serif" font-size="12" font-weight="700" fill="#ffffff">22</text>
</g>
<g>
  <circle cx="313.8606557377049" cy="333.10655737704917" r="21.356335347041707" fill="#5B8E8A" stroke="#ffffff" stroke-width="3" />
  
  <text x="313.8606557377049" y="338.10655737704917" text-anchor="middle" font-family="Open Sans, Arial, sans-serif" font-size="14" font-weight="700" fill="#ffffff">23</text>
</g>
<g>
  <circle cx="383.5344262295082" cy="401.17950819672126" r="18.997503745493102" fill="#EBC384" stroke="#ffffff" stroke-width="3" />
  
  <text x="383.5344262295082" y="406.17950819672126" text-anchor="middle" font-family="Open Sans, Arial, sans-serif" font-size="14" font-weight="700" fill="#ffffff">24</text>
</g>
  </g>
</svg>
