<svg viewBox="0 0 800 640" xmlns="http://www.w3.org/2000/svg" role="img" aria-label="Start from singletons">
  <rect width="800" height="640" fill="#fbfaf8" />
  <text x="34" y="44" font-family="Open Sans, Arial, sans-serif" font-size="14" font-weight="700" fill="#6b7280">Aggregate modules</text>
  <text x="560" y="44" font-family="Monaco, Consolas, monospace" font-size="13" fill="#374151">L = 3.866</text>
  <g>
    <g>
  <path d="M363.272,244.411C356.973,228.357,331.195,191.606,321.376,176.294C316.289,168.362,314.414,163.412,309.453,158.451C304.492,153.49,298.092,149.213,291.61,146.528C285.128,143.844,279.912,142.408,270.562,142.342C251.969,142.21,203.914,154.492,187.091,157.714C179.787,159.113,176.233,158.833,171.401,160.835C166.569,162.836,161.798,166.024,158.1,169.723C154.401,173.421,151.213,178.192,149.212,183.024C147.21,187.856,146.091,193.484,146.091,198.714C146.091,203.944,147.36,207.31,149.212,214.404C153.309,230.092,166.09,273.713,173.417,288.813C176.942,296.076,179.291,299.681,183.476,303.867C187.661,308.052,193.061,311.66,198.53,313.925C203.998,316.19,207.885,316.844,216.287,317.457C236.205,318.912,297.584,314.835,317.901,312.313C326.718,311.219,330.907,310.973,336.694,308.575C342.482,306.178,348.197,302.359,352.626,297.93C357.056,293.5,360.875,287.785,363.272,281.997C365.669,276.21,367.01,269.469,367.01,263.204C367.01,256.94,366.355,252.269,363.272,244.411" fill="#EBC384" fill-opacity="0.09" stroke="#EBC384" stroke-opacity="0.55" stroke-width="2" stroke-linejoin="round"  />
  <rect x="256.56229508196725" y="148.34180327868853" width="32" height="20" rx="10" fill="#fbfaf8" fill-opacity="0.9" />
  <text x="272.56229508196725" y="162.34180327868853" text-anchor="middle" font-family="Open Sans, Arial, sans-serif" font-size="11" font-weight="700" fill="#EBC384">M1</text>
</g>
<g>
  <path d="M410.318,137.522C407.714,131.237,403.567,125.031,398.757,120.221C393.947,115.41,390.345,112.527,381.455,108.66C359.68,99.188,282.752,84.965,259.928,80.005C251.024,78.071,247.503,76.298,241.29,76.298C235.078,76.298,228.392,77.628,222.653,80.005C216.913,82.383,211.246,86.17,206.853,90.563C202.46,94.955,198.673,100.623,196.296,106.363C193.918,112.102,192.588,118.788,192.588,125C192.588,131.212,193.918,137.898,196.296,143.637C198.673,149.377,202.46,155.045,206.853,159.437C211.246,163.83,214.529,166.098,222.653,169.995C243.381,179.938,317.436,201.255,340.638,207.202C350.153,209.641,354.244,211.262,361.047,211.262C367.85,211.262,375.17,209.805,381.455,207.202C387.74,204.599,393.947,200.452,398.757,195.642C403.567,190.831,407.714,184.625,410.318,178.34C412.921,172.055,414.377,164.734,414.377,157.931C414.377,151.128,412.921,143.807,410.318,137.522" fill="#DFDDA2" fill-opacity="0.09" stroke="#DFDDA2" stroke-opacity="0.55" stroke-width="2" stroke-linejoin="round"  />
  <rect x="227.29016393442626" y="124" width="32" height="20" rx="10" fill="#fbfaf8" fill-opacity="0.9" />
  <text x="243.29016393442626" y="138" text-anchor="middle" font-family="Open Sans, Arial, sans-serif" font-size="11" font-weight="700" fill="#DFDDA2">M2</text>
</g>
<g>
  <path d="M642.056,173.946C639.626,168.079,635.755,162.285,631.264,157.795C626.774,153.304,620.98,149.433,615.113,147.003C609.246,144.573,605.372,144.848,596.062,143.214C570.881,138.793,481.22,121.223,455.571,121.802C445.846,122.021,441.703,123.232,435.532,125.788C429.36,128.344,423.266,132.416,418.543,137.139C413.819,141.863,409.747,147.957,407.191,154.128C404.635,160.3,403.205,167.488,403.205,174.168C403.205,180.848,404.635,188.036,407.191,194.208C409.747,200.379,413.819,206.473,418.543,211.197C423.266,215.92,429.36,219.992,435.532,222.548C441.703,225.105,445.829,225.005,455.571,226.534C481.203,230.559,570.898,243.802,596.062,242.78C605.388,242.401,609.246,241.42,615.113,238.99C620.98,236.56,626.774,232.689,631.264,228.199C635.755,223.708,639.626,217.915,642.056,212.048C644.486,206.181,645.845,199.347,645.845,192.997C645.845,186.646,644.486,179.813,642.056,173.946" fill="#B4CCDF" fill-opacity="0.09" stroke="#B4CCDF" stroke-opacity="0.55" stroke-width="2" stroke-linejoin="round"  />
  <rect x="441.5713114754098" y="127.80167830939469" width="32" height="20" rx="10" fill="#fbfaf8" fill-opacity="0.9" />
  <text x="457.5713114754098" y="141.80167830939467" text-anchor="middle" font-family="Open Sans, Arial, sans-serif" font-size="11" font-weight="700" fill="#B4CCDF">M3</text>
</g>
<g>
  <path d="M560.788,226.577C558.246,220.439,554.195,214.378,549.497,209.68C544.799,204.982,538.738,200.931,532.6,198.389C526.461,195.846,519.311,194.424,512.667,194.424C506.023,194.424,502.045,196.154,492.735,198.389C470.248,203.788,399.15,221.112,378.618,230.578C370.248,234.437,366.79,236.969,362.236,241.524C357.681,246.079,353.754,251.955,351.289,257.906C348.824,263.857,347.446,270.789,347.446,277.23C347.446,283.672,348.824,290.603,351.289,296.554C353.754,302.505,357.681,308.382,362.236,312.937C366.79,317.491,372.667,321.418,378.618,323.883C384.569,326.348,391.5,327.727,397.942,327.727C404.383,327.727,408.163,325.941,417.266,323.883C439.636,318.825,511.714,303.926,532.6,294.631C541.231,290.789,544.799,288.038,549.497,283.34C554.195,278.642,558.246,272.581,560.788,266.442C563.331,260.304,564.753,253.154,564.753,246.51C564.753,239.866,563.331,232.716,560.788,226.577" fill="#E68C6C" fill-opacity="0.09" stroke="#E68C6C" stroke-opacity="0.55" stroke-width="2" stroke-linejoin="round"  />
  <rect x="498.6672131147541" y="200.4241131419036" width="32" height="20" rx="10" fill="#fbfaf8" fill-opacity="0.9" />
  <text x="514.6672131147541" y="214.4241131419036" text-anchor="middle" font-family="Open Sans, Arial, sans-serif" font-size="11" font-weight="700" fill="#E68C6C">M4</text>
</g>
<g>
  <path d="M688.222,278.858C685.882,273.209,682.154,267.63,677.83,263.307C673.507,258.983,667.928,255.255,662.279,252.915C656.629,250.575,652.925,249.744,643.934,249.266C619.691,247.98,532.507,258.062,508.475,261.53C499.669,262.801,496.08,262.808,490.564,265.092C485.049,267.377,479.602,271.016,475.38,275.238C471.159,279.459,467.52,284.906,465.235,290.422C462.95,295.937,462.624,300.335,461.672,308.332C459.796,324.104,457.541,363.216,458.797,379.302C459.454,387.705,460.154,392.458,462.579,398.312C465.004,404.167,468.867,409.948,473.348,414.429C477.828,418.91,483.609,422.772,489.464,425.197C495.318,427.622,502.138,428.979,508.475,428.979C514.811,428.979,518.722,428.657,527.485,425.197C552.557,415.298,639.555,356.131,662.279,341.49C670.08,336.463,673.507,335.422,677.83,331.098C682.154,326.775,685.882,321.196,688.222,315.547C690.562,309.897,691.87,303.317,691.87,297.202C691.87,291.088,690.562,284.507,688.222,278.858" fill="#82A3C9" fill-opacity="0.09" stroke="#82A3C9" stroke-opacity="0.55" stroke-width="2" stroke-linejoin="round"  />
  <rect x="629.9344262295082" y="255.26643223957817" width="32" height="20" rx="10" fill="#fbfaf8" fill-opacity="0.9" />
  <text x="645.9344262295082" y="269.2664322395782" text-anchor="middle" font-family="Open Sans, Arial, sans-serif" font-size="11" font-weight="700" fill="#82A3C9">M5</text>
</g>
<g>
  <path d="M647.348,517.525C644.9,511.615,641.605,508.541,636.477,501.255C625.422,485.548,595.879,441.066,582.339,428.167C576.169,422.289,572.34,420.038,566.636,417.675C560.932,415.312,554.288,413.991,548.114,413.991C541.94,413.991,535.296,415.312,529.592,417.675C523.887,420.038,521.159,423.164,513.889,428.167C496.841,439.898,443.661,473.294,429.16,488.197C422.782,494.752,420.514,498.83,418.001,504.897C415.489,510.963,414.083,518.029,414.083,524.595C414.083,531.161,415.489,538.227,418.001,544.293C420.514,550.36,423.689,553.916,429.16,560.993C440.252,575.342,470.925,611.254,484.037,622.67C490.165,628.005,493.581,630.43,499.026,632.686C504.471,634.941,510.814,636.203,516.707,636.203C522.601,636.203,526.61,635.617,534.388,632.686C552.63,625.812,602.956,593.784,620.208,583.047C627.872,578.276,631.954,576.699,636.477,572.176C641.001,567.652,644.9,561.817,647.348,555.906C649.796,549.996,651.165,543.113,651.165,536.716C651.165,530.319,649.796,523.435,647.348,517.525" fill="#5B8E8A" fill-opacity="0.09" stroke="#5B8E8A" stroke-opacity="0.55" stroke-width="2" stroke-linejoin="round"  />
  <rect x="534.1139344262294" y="419.99063850652084" width="32" height="20" rx="10" fill="#fbfaf8" fill-opacity="0.9" />
  <text x="550.1139344262294" y="433.99063850652084" text-anchor="middle" font-family="Open Sans, Arial, sans-serif" font-size="11" font-weight="700" fill="#5B8E8A">M6</text>
</g>
<g>
  <path d="M428.802,382.429C426.41,376.655,422.6,370.953,418.181,366.533C413.761,362.113,408.059,358.304,402.285,355.912C396.511,353.52,389.785,352.182,383.534,352.182C377.284,352.182,370.558,353.52,364.784,355.912C359.009,358.304,353.308,362.113,348.888,366.533C344.468,370.953,342.067,374.371,338.267,382.429C329.105,401.852,311.63,467.202,306.245,488.794C303.928,498.086,302.232,502.244,302.232,508.968C302.232,515.693,303.672,522.929,306.245,529.142C308.818,535.354,312.918,541.489,317.673,546.244C322.427,550.999,328.562,555.098,334.775,557.671C340.987,560.245,348.224,561.684,354.948,561.684C361.673,561.684,368.909,560.245,375.122,557.671C381.335,555.098,387.469,550.999,392.224,546.244C396.979,541.489,399.908,537.81,403.652,529.142C412.391,508.907,424.221,441.28,428.802,419.93C430.694,411.112,432.532,407.43,432.532,401.18C432.532,394.929,431.194,388.203,428.802,382.429" fill="#EBC384" fill-opacity="0.09" stroke="#EBC384" stroke-opacity="0.55" stroke-width="2" stroke-linejoin="round"  />
  <rect x="369.5344262295082" y="358.1820044512282" width="32" height="20" rx="10" fill="#fbfaf8" fill-opacity="0.9" />
  <text x="385.5344262295082" y="372.1820044512282" text-anchor="middle" font-family="Open Sans, Arial, sans-serif" font-size="11" font-weight="700" fill="#EBC384">M7</text>
</g>
<g>
  <path d="M361.308,313.453C358.801,307.401,354.807,301.424,350.175,296.792C345.543,292.16,339.566,288.166,333.514,285.659C327.461,283.153,323.302,281.873,313.861,281.75C289.717,281.436,208.009,299.647,184.728,303.965C176.07,305.57,172.427,305.233,166.954,307.5C161.48,309.767,156.075,313.379,151.886,317.568C147.696,321.758,145.44,325.261,141.817,332.637C133.898,348.759,118.851,397.405,114.239,414.727C112.155,422.551,110.792,426.277,110.792,432.052C110.792,437.828,112.029,444.042,114.239,449.378C116.449,454.713,119.969,459.982,124.053,464.065C128.136,468.149,133.405,471.669,138.74,473.879C144.076,476.09,147.766,476.722,156.066,477.326C176.587,478.818,241.98,474.533,263.93,471.803C273.701,470.587,278.455,470.305,284.918,467.628C291.382,464.951,297.764,460.686,302.711,455.739C307.658,450.793,309.568,446.24,314.599,437.947C325.319,420.276,354.472,371.548,361.308,352.76C364.412,344.227,365.217,339.658,365.217,333.107C365.217,326.555,363.815,319.506,361.308,313.453" fill="#DFDDA2" fill-opacity="0.09" stroke="#DFDDA2" stroke-opacity="0.55" stroke-width="2" stroke-linejoin="round"  />
  <rect x="299.8606557377049" y="287.7502220300075" width="32" height="20" rx="10" fill="#fbfaf8" fill-opacity="0.9" />
  <text x="315.8606557377049" y="301.7502220300075" text-anchor="middle" font-family="Open Sans, Arial, sans-serif" font-size="11" font-weight="700" fill="#DFDDA2">M8</text>
</g>
<g>
  <path d="M306.481,469.236C304.233,463.809,300.651,458.449,296.497,454.295C292.343,450.14,286.983,446.559,281.555,444.311C276.128,442.063,269.805,440.805,263.93,440.805C258.055,440.805,254.078,441.583,246.305,444.311C228.637,450.512,180.574,477.222,163.888,487.086C156.265,491.592,152.253,493.373,147.772,497.854C143.291,502.335,139.429,508.116,137.004,513.97C134.579,519.824,133.222,526.644,133.222,532.98C133.222,539.317,134.579,546.136,137.004,551.991C139.429,557.845,143.291,563.626,147.772,568.107C152.253,572.587,158.034,576.45,163.888,578.875C169.743,581.3,176.562,582.656,182.898,582.656C189.235,582.656,193.779,582.085,201.909,578.875C219.787,571.816,265.559,539.719,281.555,529.412C288.559,524.9,292.343,523.583,296.497,519.428C300.651,515.274,304.233,509.914,306.481,504.486C308.729,499.059,309.987,492.736,309.987,486.861C309.987,480.986,308.729,474.664,306.481,469.236" fill="#B4CCDF" fill-opacity="0.09" stroke="#B4CCDF" stroke-opacity="0.55" stroke-width="2" stroke-linejoin="round"  />
  <rect x="249.9303278688525" y="446.805074596155" width="32" height="20" rx="10" fill="#fbfaf8" fill-opacity="0.9" />
  <text x="265.9303278688525" y="460.805074596155" text-anchor="middle" font-family="Open Sans, Arial, sans-serif" font-size="11" font-weight="700" fill="#B4CCDF">M9</text>
</g>
    <line x1="203.0888222881433" y1="198.45095625612126" x2="240.56634755399367" y2="197.8348873476415" stroke="#bc9c6a" stroke-width="3.660238469913802" stroke-opacity="0.52" stroke-linecap="round" />
<line x1="250.1805512156423" y1="146.9712956507136" x2="259.3095099150638" y2="169.53218576985685" stroke="#6F6A62" stroke-width="4.931508828281255" stroke-opacity="0.26" stroke-linecap="round" />
<line x1="252.77484686246913" y1="221.49975612736083" x2="228.97625443595027" y2="253.8217208414672" stroke="#bc9c6a" stroke-width="6.424864538776978" stroke-opacity="0.52" stroke-linecap="round" />
<line x1="264.14369070666334" y1="131.28435618434528" x2="333.7301543184891" y2="150.41952631821462" stroke="#b2b182" stroke-width="9" stroke-opacity="0.52" stroke-linecap="round" />
<line x1="298.0666549623106" y1="185.36222951446146" x2="335.07294580034824" y2="169.24407251086797" stroke="#6F6A62" stroke-width="5.914120974629114" stroke-opacity="0.26" stroke-linecap="round" />
<line x1="288.0713765265445" y1="221.70226441896992" x2="303.8297231615088" y2="243.62692060674635" stroke="#bc9c6a" stroke-width="6.177154739626204" stroke-opacity="0.52" stroke-linecap="round" />
<line x1="350.3028520955761" y1="184.1454291437343" x2="327.0438834922709" y2="240.89566879243498" stroke="#6F6A62" stroke-width="4.828899519067488" stroke-opacity="0.26" stroke-linecap="round" />
<line x1="237.6249488900288" y1="269.4069600940065" x2="293.863103617564" y2="265.06147627034846" stroke="#bc9c6a" stroke-width="4.041936690520686" stroke-opacity="0.52" stroke-linecap="round" />
<line x1="388.96831967049013" y1="162.72735758168534" x2="428.5999774056571" y2="169.53505362812933" stroke="#6F6A62" stroke-width="3.44737112677186" stroke-opacity="0.26" stroke-linecap="round" />
<line x1="482.6951572301299" y1="177.80318737256937" x2="571.498855557505" y2="189.70471395252684" stroke="#90a3b2" stroke-width="8.21376191795757" stroke-opacity="0.52" stroke-linecap="round" />
<line x1="575.2041784174155" y1="206.3809972698989" x2="535.4633188305024" y2="231.88198760811918" stroke="#6F6A62" stroke-width="4.383149769240377" stroke-opacity="0.26" stroke-linecap="round" />
<line x1="472.52578082302375" y1="195.64973026470315" x2="495.88660540008567" y2="225.24842522282296" stroke="#6F6A62" stroke-width="5.285740397898364" stroke-opacity="0.26" stroke-linecap="round" />
<line x1="486.5032688020167" y1="253.51586234998118" x2="422.57041774091834" y2="270.6354231324547" stroke="#b87056" stroke-width="5.38810884856445" stroke-opacity="0.52" stroke-linecap="round" />
<line x1="442.2150843306485" y1="198.05377233677586" x2="410.3853460225697" y2="254.97679640095913" stroke="#6F6A62" stroke-width="4.3529028242377485" stroke-opacity="0.26" stroke-linecap="round" />
<line x1="510.834536451827" y1="273.53348649528056" x2="509.94976744864425" y2="286.5798076149386" stroke="#6F6A62" stroke-width="2.598528523099912" stroke-opacity="0.26" stroke-linecap="round" />
<line x1="606.4081223570689" y1="215.5170173068003" x2="634.3596518487043" y2="276.3605536365226" stroke="#6F6A62" stroke-width="3.575376837958691" stroke-opacity="0.26" stroke-linecap="round" />
<line x1="530.2034975203809" y1="306.5466996419042" x2="621.0754236299529" y2="299.08057628118524" stroke="#6882a1" stroke-width="2.714660921964618" stroke-opacity="0.52" stroke-linecap="round" />
<line x1="537.9342941276782" y1="256.26744865186555" x2="622.5384144517335" y2="288.93977154123655" stroke="#6F6A62" stroke-width="3.5642260360054054" stroke-opacity="0.26" stroke-linecap="round" />
<line x1="508.47459019465475" y1="330.13409085293137" x2="508.474590129163" y2="354.62448942684955" stroke="#6882a1" stroke-width="6.1794321631403495" stroke-opacity="0.52" stroke-linecap="round" />
<line x1="416.67310663314623" y1="294.52771765617575" x2="490.34509123065766" y2="362.5599848120847" stroke="#6F6A62" stroke-width="3.634574568576032" stroke-opacity="0.26" stroke-linecap="round" />
<line x1="624.3197341288695" y1="309.09048568627964" x2="529.5782757438901" y2="366.51116699220137" stroke="#6882a1" stroke-width="3.783829835072607" stroke-opacity="0.52" stroke-linecap="round" />
<line x1="519.0999862024914" y1="401.5741041173915" x2="538.0379473572219" y2="441.27098423019197" stroke="#6F6A62" stroke-width="2.850391533924674" stroke-opacity="0.26" stroke-linecap="round" />
<line x1="561.684122346802" y1="481.45654855615" x2="586.4339029161348" y2="516.2274938805007" stroke="#49726e" stroke-width="5.556259855649462" stroke-opacity="0.52" stroke-linecap="round" />
<line x1="579.7587605267976" y1="550.1510695742727" x2="534.6304040146405" y2="578.6725173156813" stroke="#49726e" stroke-width="4.454897640277057" stroke-opacity="0.52" stroke-linecap="round" />
<line x1="529.4241118417265" y1="476.47388566922814" x2="486.70159615975626" y2="508.66370357918913" stroke="#49726e" stroke-width="5.501433663784223" stroke-opacity="0.52" stroke-linecap="round" />
<line x1="575.9690344308218" y1="534.4743467526273" x2="491.9262988722679" y2="526.9544846514399" stroke="#49726e" stroke-width="6.786867649436557" stroke-opacity="0.52" stroke-linecap="round" />
<line x1="503.64586450744434" y1="573.2983937990916" x2="481.86647655128405" y2="545.4493403469522" stroke="#49726e" stroke-width="5.7332827781957025" stroke-opacity="0.52" stroke-linecap="round" />
<line x1="439.34343981190136" y1="520.8915277744893" x2="382.3918469748089" y2="512.8452999787595" stroke="#6F6A62" stroke-width="1.6" stroke-opacity="0.26" stroke-linecap="round" />
<line x1="327.49838817129125" y1="512.7991100277362" x2="207.3375614332563" y2="529.5694513757562" stroke="#6F6A62" stroke-width="4.778037877346057" stroke-opacity="0.26" stroke-linecap="round" />
<line x1="204.34426661657457" y1="520.77452061927" x2="245.63026938829464" y2="497.27684265418" stroke="#90a3b2" stroke-width="5.084047858805127" stroke-opacity="0.52" stroke-linecap="round" />
<line x1="328.01535675024365" y1="502.4265159254168" x2="284.3918510592123" y2="491.8311920976119" stroke="#6F6A62" stroke-width="2.6819855344814916" stroke-opacity="0.26" stroke-linecap="round" />
<line x1="335.4565685083954" y1="489.2640184469839" x2="284.9185149064563" y2="438.17571803028335" stroke="#6F6A62" stroke-width="4.589029579409083" stroke-opacity="0.26" stroke-linecap="round" />
<line x1="197.0277418809056" y1="512.7499250234099" x2="246.8419353428468" y2="441.4261221550425" stroke="#6F6A62" stroke-width="2.6098168355510145" stroke-opacity="0.26" stroke-linecap="round" />
<line x1="263.930327898975" y1="465.805074596155" x2="263.930327826159" y2="446.8028168128289" stroke="#6F6A62" stroke-width="2.675151605896777" stroke-opacity="0.26" stroke-linecap="round" />
<line x1="176.14321358096208" y1="429.24300835740183" x2="234.37447970112058" y2="421.09474638440435" stroke="#b2b182" stroke-width="4.9585813870887545" stroke-opacity="0.52" stroke-linecap="round" />
<line x1="241.0813842583975" y1="397.760625852608" x2="201.14732798050764" y2="364.2067941580961" stroke="#b2b182" stroke-width="4.741590510578419" stroke-opacity="0.52" stroke-linecap="round" />
<line x1="205.9839015678858" y1="347.5622971624972" x2="287.73781597678317" y2="336.6070795882235" stroke="#b2b182" stroke-width="5.787733199474829" stroke-opacity="0.52" stroke-linecap="round" />
<line x1="376.7068875554424" y1="291.34201710288636" x2="335.81186099555043" y2="318.5188570561056" stroke="#6F6A62" stroke-width="4.484728432691661" stroke-opacity="0.26" stroke-linecap="round" />
<line x1="279.1990481151251" y1="391.3168907890153" x2="300.37619647059654" y2="355.752214161506" stroke="#b2b182" stroke-width="5.579947214051375" stroke-opacity="0.52" stroke-linecap="round" />
<line x1="332.7127125586648" y1="351.52547066054717" x2="366.369585282756" y2="384.4090454336472" stroke="#6F6A62" stroke-width="3.5524334913653863" stroke-opacity="0.26" stroke-linecap="round" />
<line x1="293.51774233562935" y1="413.05551429361924" x2="359.7430833204895" y2="404.3183278156931" stroke="#6F6A62" stroke-width="2.5302191549587953" stroke-opacity="0.26" stroke-linecap="round" />
<line x1="362.0531830012608" y1="482.17811599603294" x2="377.38282297098147" y2="424.375153550206" stroke="#bc9c6a" stroke-width="8.782421381397839" stroke-opacity="0.52" stroke-linecap="round" />
<line x1="176.55819699150396" y1="509.1326668136096" x2="161.27449474997871" y2="451.6451049733271" stroke="#6F6A62" stroke-width="3.9745081765006463" stroke-opacity="0.26" stroke-linecap="round" />
    <g>
  <circle cx="187.0909836065574" cy="198.7139344262295" r="11" fill="#EBC384" stroke="#ffffff" stroke-width="3" />
  
  <text x="187.0909836065574" y="203.7139344262295" text-anchor="middle" font-family="Open Sans, Arial, sans-serif" font-size="12" font-weight="700" fill="#ffffff">0</text>
</g>
<g>
  <circle cx="241.29016393442626" cy="125" r="18.701831544863268" fill="#DFDDA2" stroke="#ffffff" stroke-width="3" />
  
  <text x="241.29016393442626" y="130" text-anchor="middle" font-family="Open Sans, Arial, sans-serif" font-size="14" font-weight="700" fill="#ffffff">1</text>
</g>
<g>
  <circle cx="270.56229508196725" cy="197.34180327868853" r="25" fill="#EBC384" stroke="#ffffff" stroke-width="3" />
  
  <text x="270.56229508196725" y="202.34180327868853" text-anchor="middle" font-family="Open Sans, Arial, sans-serif" font-size="14" font-weight="700" fill="#ffffff">2</text>
</g>
<g>
  <circle cx="216.28688524590166" cy="271.05573770491804" r="16.401668806218446" fill="#EBC384" stroke="#ffffff" stroke-width="3" />
  
  <text x="216.28688524590166" y="276.05573770491804" text-anchor="middle" font-family="Open Sans, Arial, sans-serif" font-size="12" font-weight="700" fill="#ffffff">3</text>
</g>
<g>
  <circle cx="361.0467213114754" cy="157.9311475409836" r="23.330536275839574" fill="#DFDDA2" stroke="#ffffff" stroke-width="3" />
  
  <text x="361.0467213114754" y="162.9311475409836" text-anchor="middle" font-family="Open Sans, Arial, sans-serif" font-size="14" font-weight="700" fill="#ffffff">4</text>
</g>
<g>
  <circle cx="317.9008196721312" cy="263.20409836065573" r="19.109368424316163" fill="#EBC384" stroke="#ffffff" stroke-width="3" />
  
  <text x="317.9008196721312" y="268.20409836065573" text-anchor="middle" font-family="Open Sans, Arial, sans-serif" font-size="14" font-weight="700" fill="#ffffff">5</text>
</g>
<g>
  <circle cx="455.5713114754098" cy="174.16803278688525" r="22.366354477490564" fill="#B4CCDF" stroke="#ffffff" stroke-width="3" />
  
  <text x="455.5713114754098" y="179.16803278688525" text-anchor="middle" font-family="Open Sans, Arial, sans-serif" font-size="14" font-weight="700" fill="#ffffff">6</text>
</g>
<g>
  <circle cx="596.0622950819672" cy="192.9967213114754" r="19.783056182062882" fill="#B4CCDF" stroke="#ffffff" stroke-width="3" />
  
  <text x="596.0622950819672" y="197.9967213114754" text-anchor="middle" font-family="Open Sans, Arial, sans-serif" font-size="14" font-weight="700" fill="#ffffff">7</text>
</g>
<g>
  <circle cx="512.6672131147541" cy="246.50983606557375" r="22.085722923670133" fill="#E68C6C" stroke="#ffffff" stroke-width="3" />
  
  <text x="512.6672131147541" y="251.50983606557375" text-anchor="middle" font-family="Open Sans, Arial, sans-serif" font-size="14" font-weight="700" fill="#ffffff">8</text>
</g>
<g>
  <circle cx="397.94180327868855" cy="277.23032786885244" r="20.49630206150129" fill="#E68C6C" stroke="#ffffff" stroke-width="3" />
  
  <text x="397.94180327868855" y="282.23032786885244" text-anchor="middle" font-family="Open Sans, Arial, sans-serif" font-size="14" font-weight="700" fill="#ffffff">9</text>
</g>
<g>
  <circle cx="508.4745901639344" cy="308.33196721311475" r="16.802123639816603" fill="#82A3C9" stroke="#ffffff" stroke-width="3" />
  
  <text x="508.4745901639344" y="313.33196721311475" text-anchor="middle" font-family="Open Sans, Arial, sans-serif" font-size="12" font-weight="700" fill="#ffffff">10</text>
</g>
<g>
  <circle cx="643.9344262295082" cy="297.2024590163934" r="17.93602677681522" fill="#82A3C9" stroke="#ffffff" stroke-width="3" />
  
  <text x="643.9344262295082" y="302.2024590163934" text-anchor="middle" font-family="Open Sans, Arial, sans-serif" font-size="14" font-weight="700" fill="#ffffff">11</text>
</g>
<g>
  <circle cx="508.4745901639344" cy="379.3016393442623" r="19.677149917412773" fill="#82A3C9" stroke="#ffffff" stroke-width="3" />
  
  <text x="508.4745901639344" y="384.3016393442623" text-anchor="middle" font-family="Open Sans, Arial, sans-serif" font-size="14" font-weight="700" fill="#ffffff">12</text>
</g>
<g>
  <circle cx="548.1139344262294" cy="462.39180327868854" r="18.401164772167697" fill="#5B8E8A" stroke="#ffffff" stroke-width="3" />
  
  <text x="548.1139344262294" y="467.39180327868854" text-anchor="middle" font-family="Open Sans, Arial, sans-serif" font-size="14" font-weight="700" fill="#ffffff">13</text>
</g>
<g>
  <circle cx="601.0172131147542" cy="536.7155737704918" r="20.148247531941728" fill="#5B8E8A" stroke="#ffffff" stroke-width="3" />
  
  <text x="601.0172131147542" y="541.7155737704918" text-anchor="middle" font-family="Open Sans, Arial, sans-serif" font-size="14" font-weight="700" fill="#ffffff">14</text>
</g>
<g>
  <circle cx="516.7073770491804" cy="590" r="16.20251776483515" fill="#5B8E8A" stroke="#ffffff" stroke-width="3" />
  
  <text x="516.7073770491804" y="595" text-anchor="middle" font-family="Open Sans, Arial, sans-serif" font-size="12" font-weight="700" fill="#ffffff">15</text>
</g>
<g>
  <circle cx="465.55737704918033" cy="524.5950819672131" r="21.474267112395047" fill="#5B8E8A" stroke="#ffffff" stroke-width="3" />
  
  <text x="465.55737704918033" y="529.5950819672131" text-anchor="middle" font-family="Open Sans, Arial, sans-serif" font-size="14" font-weight="700" fill="#ffffff">16</text>
</g>
<g>
  <circle cx="354.9483606557377" cy="508.96803278688526" r="22.716026811616317" fill="#EBC384" stroke="#ffffff" stroke-width="3" />
  
  <text x="354.9483606557377" y="513.9680327868853" text-anchor="middle" font-family="Open Sans, Arial, sans-serif" font-size="14" font-weight="700" fill="#ffffff">17</text>
</g>
<g>
  <circle cx="156.06557377049182" cy="432.0524590163934" r="15.273249205894166" fill="#DFDDA2" stroke="#ffffff" stroke-width="3" />
  
  <text x="156.06557377049182" y="437.0524590163934" text-anchor="middle" font-family="Open Sans, Arial, sans-serif" font-size="12" font-weight="700" fill="#ffffff">18</text>
</g>
<g>
  <circle cx="182.89836065573772" cy="532.9803278688526" r="19.676073696903675" fill="#B4CCDF" stroke="#ffffff" stroke-width="3" />
  
  <text x="182.89836065573772" y="537.9803278688526" text-anchor="middle" font-family="Open Sans, Arial, sans-serif" font-size="14" font-weight="700" fill="#ffffff">19</text>
</g>
<g>
  <circle cx="263.9303278688525" cy="486.8614754098361" r="16.056400813681066" fill="#B4CCDF" stroke="#ffffff" stroke-width="3" />
  
  <text x="263.9303278688525" y="491.8614754098361" text-anchor="middle" font-family="Open Sans, Arial, sans-serif" font-size="12" font-weight="700" fill="#ffffff">20</text>
</g>
<g>
  <circle cx="263.9303278688525" cy="416.9590163934426" r="24.8438004193863" fill="#DFDDA2" stroke="#ffffff" stroke-width="3" />
  
  <text x="263.9303278688525" y="421.9590163934426" text-anchor="middle" font-family="Open Sans, Arial, sans-serif" font-size="14" font-weight="700" fill="#ffffff">21</text>
</g>
<g>
  <circle cx="184.72786885245904" cy="350.41065573770493" r="16.446026983389054" fill="#DFDDA2" stroke="#ffffff" stroke-width="3" />
  
  <text x="184.72786885245904" y="355.41065573770493" text-anchor="middle" font-family="Open Sans, Arial, sans-serif" font-size="12" font-weight="700" fill="#ffffff">22</text>
</g>
<g>
  <circle cx="313.8606557377049" cy="333.10655737704917" r="21.356335347041707" fill="#DFDDA2" stroke="#ffffff" stroke-width="3" />
  
  <text x="313.8606557377049" y="338.10655737704917" text-anchor="middle" font-family="Open Sans, Arial, sans-serif" font-size="14" font-weight="700" fill="#ffffff">23</text>
</g>
<g>
  <circle cx="383.5344262295082" cy="401.17950819672126" r="18.997503745493102" fill="#EBC384" stroke="#ffffff" stroke-width="3" />
  
  <text x="383.5344262295082" y="406.17950819672126" text-anchor="middle" font-family="Open Sans, Arial, sans-serif" font-size="14" font-weight="700" fill="#ffffff">24</text>
</g>
  </g>
</svg>
